<svg xmlns="http://www.w3.org/2000/svg" viewBox="0 0 400.3 400.3"><defs><style>.cls-1,.cls-2{fill:#fff;}.cls-1{stroke:#000;stroke-miterlimit:10;}</style></defs><g id="レイヤー_2" data-name="レイヤー 2"><g id="レイヤー_1-2" data-name="レイヤー 1"><path class="cls-1" d="M399.8,210.07V190.23l-23.49-8.64-2.88-18.23,19.66-15.47L387,129l-25-1c-3.76-7.37-4.63-9.07-8.38-16.44L367.5,90.83,355.83,74.77l-24.07,6.82-13.05-13,6.82-24.07L309.47,32.8,288.68,46.72l-16.45-8.38-1-25L252.41,7.21,236.94,26.87,218.71,24,210.07.5H190.23L181.59,24l-18.23,2.88L147.89,7.21,129,13.34l-1,25-16.44,8.38L90.83,32.8,74.77,44.47l6.82,24.07-13,13L44.47,74.77,32.8,90.83l13.92,20.79-8.38,16.45-25,1L7.21,147.89l19.66,15.47L24,181.59.5,190.23v19.84L24,218.71l2.88,18.23L7.21,252.41l6.13,18.87,25,1c3.76,7.37,4.63,9.07,8.38,16.44L32.8,309.47l11.67,16.06,24.07-6.82,13,13.05-6.82,24.07L90.83,367.5l20.79-13.92L128.07,362l1,25,18.87,6.13,15.47-19.66,18.23,2.88,8.64,23.49h19.84l8.64-23.49,18.23-2.88,15.47,19.66L271.28,387l1-25,16.44-8.38,20.79,13.92,16.06-11.67-6.82-24.07,13.05-13.05,24.07,6.82,11.67-16.06-13.92-20.79L362,272.23l25-1,6.13-18.87-19.66-15.47,2.88-18.23ZM213.7,62.38c5.44-1.71,15.67-3.43,30.06-3.43,29.75,0,56.94,15,56.94,63.5,0,37.9-20.06,63.14-51.68,65.09A51.05,51.05,0,0,0,213.7,153Zm-26.55-19.7V152.83a50.62,50.62,0,0,0-18.71,9.38q-11.48-8.44-22.72-16.77c-21.38-15.8-43.41-32.09-65.67-48A157.67,157.67,0,0,1,187.15,42.68ZM65.56,283a158.17,158.17,0,0,1,.31-166.12c22.18,15.8,44.21,32.1,65.58,47.9,7.32,5.41,14.73,10.9,22.22,16.4a51.09,51.09,0,0,0-1.15,39.26c-10.6,7.66-21.21,15.2-31.65,22.63C102.66,256,83.91,269.32,65.56,283Zm121.59,74.66A157.62,157.62,0,0,1,79.68,302.37c18.21-13.55,36.94-26.86,55.1-39.78,10.35-7.36,20.86-14.83,31.38-22.43a50.68,50.68,0,0,0,21,11.31Zm13-126.47a31,31,0,1,1,31-31A31,31,0,0,1,200.15,231.15ZM213.7,357.57V251.32a50.63,50.63,0,0,0,21-11.66c13.23,9.65,26.32,19.33,39.13,28.81,15.23,11.26,30.8,22.77,46.55,34.2A157.63,157.63,0,0,1,213.7,357.57Zm120.83-74.28c-15.69-11.38-31.23-22.88-46.44-34.12-13.1-9.69-26.49-19.59-40-29.47h0a50.71,50.71,0,0,0,2.2-8c.32,0,.65-.07,1-.08,18.76-.71,36.73-10.28,50.08-23.1A78.65,78.65,0,0,0,316.53,168c8-15.32,11-32.72,11-49.85q0-6.22-.57-12.22a158.08,158.08,0,0,1,7.53,177.35Z"/><path class="cls-2" d="M200.15,60.15a140,140,0,1,1-99,41,139,139,0,0,1,99-41m0-21a161,161,0,1,0,161,161,161,161,0,0,0-161-161Z"/></g></g></svg>