<?xml version="1.0" encoding="utf-8"?>
<!-- Generator: Adobe Illustrator 27.9.2, SVG Export Plug-In . SVG Version: 6.00 Build 0)  -->
<svg version="1.1" id="レイヤー_1" xmlns="http://www.w3.org/2000/svg" xmlns:xlink="http://www.w3.org/1999/xlink" x="0px"
	 y="0px" viewBox="0 0 400.3 400.3" style="enable-background:new 0 0 400.3 400.3;" xml:space="preserve">
<style type="text/css">
	.st0{stroke:#000000;stroke-miterlimit:10;}
	.st1{fill:#FFFFFF;stroke:#000000;stroke-miterlimit:10;}
	.st2{fill:#FFFFFF;}
</style>
<rect x="0.5" y="0.5" class="st0" width="407" height="407"/>
<g id="レイヤー_2_00000130624661597864051200000017044853304594117565_">
	<g id="レイヤー_1-2">
		<path class="st1" d="M399.8,210.1v-19.8l-23.5-8.6l-2.9-18.2l19.7-15.5L387,129l-25-1c-3.8-7.4-4.6-9.1-8.4-16.4l13.9-20.7
			l-11.7-16.1l-24.1,6.8l-13-13l6.8-24.1l-16.1-11.7l-20.8,13.9l-16.5-8.4l-1-25l-18.8-6.1l-15.5,19.7L218.7,24l-8.6-23.5h-19.8
			L181.6,24l-18.2,2.9L147.9,7.2L129,13.3l-1,25l-16.4,8.4L90.8,32.8L74.8,44.5l6.8,24.1l-13,13l-24.1-6.8L32.8,90.8l13.9,20.8
			l-8.4,16.5l-25,1l-6.1,18.8l19.7,15.5L24,181.6l-23.5,8.6v19.8l23.5,8.6l2.9,18.2L7.2,252.4l6.1,18.9l25,1
			c3.8,7.4,4.6,9.1,8.4,16.4l-13.9,20.8l11.7,16.1l24.1-6.8l13,13l-6.8,24.1l16.1,11.7l20.8-13.9l16.5,8.4l1,25l18.9,6.1l15.5-19.7
			l18.2,2.9l8.6,23.5h19.8l8.6-23.5l18.2-2.9l15.5,19.7l18.8-6.1l1-25l16.4-8.4l20.8,13.9l16.1-11.7l-6.8-24.1l13-13l24.1,6.8
			l11.7-16.1l-13.9-20.8l8.4-16.5l25-1l6.1-18.9l-19.7-15.5l2.9-18.2L399.8,210.1z M213.7,62.4c5.4-1.7,15.7-3.4,30.1-3.4
			c29.8,0,56.9,15,56.9,63.5c0,37.9-20.1,63.1-51.7,65.1c-5-16.8-18.4-29.9-35.3-34.5V62.4z M187.1,42.7v110.2
			c-6.8,1.8-13.2,5-18.7,9.4c-7.7-5.6-15.2-11.2-22.7-16.8c-21.4-15.8-43.4-32.1-65.7-48C107.1,65.8,145.6,46.1,187.1,42.7z
			 M65.6,283c-31.3-51-31.2-115.3,0.3-166.1c22.2,15.8,44.2,32.1,65.6,47.9c7.3,5.4,14.7,10.9,22.2,16.4c-5.6,12.4-6,26.5-1.1,39.3
			c-10.6,7.7-21.2,15.2-31.7,22.6C102.7,256,83.9,269.3,65.6,283z M187.1,357.7c-41.7-3.4-80.4-23.3-107.5-55.3
			c18.2-13.5,36.9-26.9,55.1-39.8c10.4-7.4,20.9-14.8,31.4-22.4c6,5.4,13.2,9.3,21,11.3L187.1,357.7z M200.1,231.2
			c-17.1,0-31-13.9-31-31s13.9-31,31-31s31,13.9,31,31l0,0C231.1,217.3,217.3,231.2,200.1,231.2L200.1,231.2z M213.7,357.6V251.3
			c7.8-2.1,15-6.1,21-11.7c13.2,9.6,26.3,19.3,39.1,28.8c15.2,11.3,30.8,22.8,46.5,34.2C293.4,334.3,255.1,354,213.7,357.6z
			 M334.5,283.3c-15.7-11.4-31.2-22.9-46.4-34.1c-13.1-9.7-26.5-19.6-40-29.5l0,0c1-2.6,1.7-5.3,2.2-8c0.3,0,0.6-0.1,1-0.1
			c18.8-0.7,36.7-10.3,50.1-23.1c6.1-6,11.3-12.9,15.2-20.5c8-15.3,11-32.7,11-49.8c0-4.1-0.2-8.2-0.6-12.2
			C365.6,157.9,368.5,228.2,334.5,283.3L334.5,283.3z"/>
		<path class="st2" d="M200.1,60.2c77.3,0,140,62.7,140,140s-62.7,140-140,140s-140-62.7-140-140c0-37.1,14.8-72.7,41-99
			C127.3,74.8,163,60,200.1,60.2 M200.1,39.2c-88.9,0-161,72.1-161,161s72.1,161,161,161s161-72.1,161-161c0,0,0,0,0,0
			C361.1,111.2,289.1,39.1,200.1,39.2z"/>
	</g>
</g>
</svg>
