<svg xmlns="http://www.w3.org/2000/svg" viewBox="0 0 513.66 513.65"><defs><style>.cls-1,.cls-5{fill:#fff;}.cls-2{font-size:49.63px;}.cls-2,.cls-5,.cls-6{font-family:AnnabelleJF;}.cls-3,.cls-4{fill:none;stroke:#000;stroke-miterlimit:10;}.cls-3{stroke-width:4px;}.cls-4{stroke-width:2px;}.cls-5{font-size:38px;}.cls-6,.cls-7{font-size:45px;}.cls-7{font-family:KozGoPr6N-Regular-83pv-RKSJ-H, Kozuka Gothic Pr6N;}</style></defs><g id="レイヤー_2" data-name="レイヤー 2"><g id="レイヤー_1-2" data-name="レイヤー 1"><polygon class="cls-1" points="245.11 512.15 234.06 482.1 208.87 478.11 189.07 503.28 166.78 496.04 165.56 464.04 142.83 452.46 116.23 470.28 97.27 456.5 106 425.7 87.96 407.66 57.15 416.39 43.38 397.42 61.2 370.82 49.61 348.09 17.62 346.87 10.38 324.58 35.54 304.79 31.55 279.59 1.5 268.55 1.5 245.11 31.55 234.06 35.54 208.87 10.38 189.07 17.62 166.78 49.61 165.56 61.2 142.83 43.38 116.23 57.15 97.27 87.96 106 106 87.96 97.27 57.15 116.23 43.38 142.83 61.2 165.56 49.61 166.78 17.62 189.07 10.38 208.87 35.54 234.06 31.55 245.11 1.5 268.55 1.5 279.59 31.55 304.79 35.54 324.58 10.38 346.87 17.62 348.09 49.61 370.82 61.2 397.42 43.37 416.39 57.15 407.66 87.96 425.7 106 456.5 97.27 470.28 116.23 452.46 142.83 464.04 165.56 496.04 166.78 503.28 189.07 478.11 208.87 482.1 234.06 512.15 245.11 512.15 268.55 482.1 279.59 478.11 304.79 503.28 324.58 496.04 346.87 464.04 348.09 452.46 370.82 470.28 397.42 456.5 416.39 425.7 407.66 407.66 425.7 416.39 456.5 397.43 470.28 370.82 452.46 348.09 464.04 346.87 496.04 324.58 503.28 304.79 478.11 279.59 482.1 268.55 512.15 245.11 512.15"/><path d="M267.5,3l10.38,28.24.61,1.66,1.74.27L292,35l11.73,1.86,1.73.27,1.09-1.38,18.6-23.65,14.34,4.65,6,1.94,1.15,30.07.07,1.76,1.57.8,21.16,10.78,1.57.8,1.46-1,25-16.75L406,51.48l8.64,6.27-8.2,29L406,88.4l1.24,1.24,8.4,8.4,8.39,8.39,1.25,1.25,1.69-.48,29-8.2,4.69,6.46,7.85,10.81-16.75,25-1,1.46.8,1.57,9.74,19.1,1.05,2.06.79,1.57,1.76.06,30.07,1.15,3.3,10.15,3.3,10.15-23.65,18.6-1.39,1.09.28,1.74,1.85,11.73,1.86,11.73.28,1.74,1.65.6,28.25,10.38V267.5l-28.25,10.38-1.65.61-.28,1.74-.21,1.35-3.5,22.1-.28,1.74,1.39,1.09,23.65,18.6-3.3,10.15-3.3,10.15-30.07,1.15-1.76.07-.8,1.57L452.24,368l-.72,1.41-.8,1.57,1,1.46,16.75,25-6.81,9.37-5.73,7.9-29-8.2-1.69-.48L424,407.22l-9.13,9.14L407.22,424,406,425.26l.48,1.69,8.2,28.95-8.87,6.45-8.4,6.1-25-16.75-1.46-1-1.57.8L348.2,462.3l-1.57.8-.07,1.76-1.14,30.07-10.16,3.3-10.15,3.3-18.6-23.65-1.09-1.39-1.73.28-14.53,2.3-8.93,1.41-1.74.28-.61,1.65L267.5,510.65H246.16l-10.39-28.24-.6-1.65-1.74-.28-16-2.52L210,476.77l-1.74-.28-1.09,1.39-18.6,23.65-6-1.94-14.34-4.66-1.14-30.07L167,463.1l-1.57-.8L144.3,451.52l-1.57-.8-1.46,1-25,16.75-9.56-6.94L99,455.91l8.2-29,.48-1.69L106.43,424l-5.92-5.92L89.64,407.22,88.4,406l-1.7.48-28.95,8.2L51.48,406l-6.28-8.63,16.75-25,1-1.46-.8-1.57-5.62-11L51.35,348.2l-.8-1.57-1.76-.07-30.07-1.15-3.3-10.15-3.29-10.15,23.65-18.6,1.38-1.09-.27-1.73-3.5-22.11-.22-1.35-.27-1.74-1.66-.61L3,267.5V246.16l28.24-10.39,1.66-.6.27-1.74,3.69-23.26,0-.2.27-1.74-1.38-1.09-23.65-18.6,3.29-10.15,3.3-10.15,30.07-1.15,1.76-.06.8-1.57,6.64-13,4.14-8.13.8-1.57-1-1.46-16.75-25,10-13.78L57.75,99l29,8.2,1.7.48,1.24-1.25,9.14-9.13,7.65-7.66,1.25-1.24-.48-1.7L99,57.75l9.69-7,7.58-5.51,25,16.75,1.46,1,1.57-.8,21.16-10.78,1.57-.8.06-1.76,1.15-30.07,14.34-4.66,6-1.93,18.6,23.65,1.09,1.38,1.74-.27L221.7,35l11.73-1.86,1.74-.27.6-1.66L246.15,3H267.5m2.09-3H244.06L233,30.21,209.5,33.92,189.6,8.63l-24.28,7.88L164.1,48.68,142.94,59.46,116.2,41.55l-20.66,15,8.77,31c-7.52,7.53-9.26,9.27-16.79,16.79l-31-8.77-15,20.66,17.91,26.74L48.68,164.1l-32.16,1.22c-3.92,12-4,12.25-7.89,24.28l25.29,19.9C32.26,220,31.87,222.45,30.21,233L0,244.06v25.53L30.21,280.7c1.66,10.51,2,12.94,3.71,23.45L8.63,324.05c3.91,12,4,12.25,7.89,24.28l32.16,1.23,10.78,21.16L41.55,397.46c7.43,10.24,7.57,10.42,15,20.65l31-8.77,16.79,16.8-8.77,31,20.66,15,26.74-17.91L164.1,465l1.22,32.16L189.6,505l19.9-25.3L233,483.45l11.1,30.2h25.53l11.11-30.2,23.45-3.72,19.9,25.3,24.28-7.89L349.56,465l21.16-10.78,26.74,17.91,20.65-15-8.77-31,16.8-16.79,31,8.77,15-20.65L454.2,370.72,465,349.56l32.16-1.23L505,324.05l-25.3-19.9c1.67-10.51,2-12.94,3.72-23.45l30.21-11.11V244.06L483.45,233c-1.67-10.52-2.05-13-3.72-23.46L505,189.6l-7.89-24.28L465,164.1,454.2,142.94l17.91-26.74-15-20.66-31,8.77L409.34,87.52l8.77-31-20.65-15L370.72,59.46,349.56,48.68l-1.23-32.17L324.05,8.63l-19.9,25.29L280.7,30.21,269.59,0Z"/><polygon class="cls-1" points="231.88 380.62 228.8 365.09 215.9 360.9 204.29 371.66 194.84 366.85 196.72 351.13 185.74 343.16 171.37 349.81 163.88 342.31 170.52 327.94 162.54 316.96 146.82 318.85 142.01 309.4 152.77 297.79 148.58 284.89 133.04 281.82 131.38 271.35 145.21 263.63 145.2 250.06 131.38 242.34 133.03 231.88 148.57 228.8 152.76 215.9 141.99 204.29 146.8 194.84 162.53 196.72 170.5 185.74 163.85 171.37 171.34 163.88 185.72 170.52 196.69 162.54 194.81 146.82 204.25 142.01 215.87 152.77 228.77 148.58 231.84 133.04 242.3 131.38 250.03 145.21 263.59 145.2 271.31 131.38 281.78 133.03 284.85 148.57 297.76 152.76 309.37 141.99 318.81 146.8 316.94 162.53 327.91 170.5 342.28 163.85 349.78 171.34 343.13 185.72 351.11 196.69 366.83 194.81 371.64 204.25 360.88 215.87 365.08 228.77 380.61 231.84 382.27 242.3 368.45 250.03 368.45 263.59 382.28 271.31 380.62 281.78 365.09 284.85 360.9 297.75 371.66 309.37 366.85 318.81 351.13 316.94 343.16 327.91 349.81 342.28 342.31 349.78 327.94 343.13 316.96 351.11 318.85 366.83 309.4 371.64 297.79 360.88 284.89 365.08 281.82 380.61 271.35 382.27 263.63 368.45 250.06 368.45 242.34 382.28 231.88 380.62"/><path d="M272.11,133l2.14.34,6.26,1,2.7,13.64.34,1.73,1.68.55,2.8.91,8.43,2.73,1.67.55,1.29-1.2,10.2-9.45,1.43.73,6.15,3.13-1.65,13.8-.21,1.75,1.43,1,4.89,3.55,4.66,3.38,1.42,1,1.6-.74L342,165.65l1.58,1.57,4.44,4.44-5.84,12.63-.74,1.59,1,1.43,2.56,3.52,4.38,6,1,1.42,1.75-.21L366,196.42l2.66,5.22,1.2,2.36-9.45,10.2-1.19,1.29.54,1.68,1.94,6,1.71,5.26.55,1.68,1.72.34,13.64,2.69.67,4.2.67,4.21-12.14,6.78-1.54.86v15.32l1.54.86,12.14,6.78-1,6.26-.34,2.14-13.64,2.7-1.73.34-.54,1.68-1.82,5.61-1.83,5.62-.54,1.67,1.2,1.29,9.45,10.2-1.93,3.79L366,317.2l-13.81-1.65-1.75-.21-1,1.43-3.58,4.92-3.36,4.63-1,1.42.74,1.6L348,342l-6,6-12.62-5.84-1.6-.74-1.42,1-.63.46-8.92,6.48-1.43,1,.21,1.75L317.23,366l-7.57,3.86-10.21-9.45-1.29-1.19-1.67.54-5.62,1.83-5.61,1.82-1.67.54-.35,1.73-2.69,13.64-8.33,1.33h-.07l-6.78-12.14-.86-1.54H249.18l-.86,1.54-6.78,12.14-8.4-1.33-2.7-13.64-.34-1.73-1.67-.54L220,360.65l-2.79-.91-1.67-.54-1.3,1.2L204,369.85,196.46,366l1.64-13.81.21-1.75-1.42-1-4.23-3.07-5.32-3.87-1.43-1-1.6.74L171.69,348l-3.13-3.13L165.68,342l5.83-12.62.74-1.6-1-1.42-6.94-9.55-1-1.43-1.75.21-13.8,1.65-1.85-3.62-2-3.95,9.45-10.21,1.2-1.29-.55-1.67-1.82-5.62-1.83-5.61-.54-1.67-1.73-.35-13.64-2.69-1.09-6.85-.24-1.55,12.14-6.78,1.54-.86V249.18l-1.53-.86L133,241.54l.11-.64,1.22-7.76,13.64-2.7,1.73-.34.55-1.67,1.92-5.93,1.72-5.3.55-1.67-1.2-1.3L143.81,204l3.08-6.06.78-1.51,13.8,1.64,1.75.21,1-1.42,2.09-2.88,4.84-6.67,1-1.43-.74-1.6-5.84-12.62,1.54-1.53,4.47-4.48,12.63,5.83,1.6.74,1.42-1,5.69-4.14,3.86-2.8,1.42-1-.21-1.75-1.65-13.81,4.24-2.15,3.34-1.71,10.2,9.45,1.29,1.2,1.68-.55,1.59-.51,9.63-3.14,1.68-.54.34-1.73,2.7-13.64,2.73-.43,5.67-.9,6.78,12.14.86,1.54h15.32l.86-1.53L272.11,133m-1.6-3.29-7.8,14h-11.8l-7.81-14-12.53,2-3.1,15.7-11.23,3.65L204.5,140.2,193.19,146l1.91,15.89-9.55,6.94L171,162.08l-9,9,6.72,14.52-6.94,9.56-15.89-1.9-5.76,11.31,10.88,11.73c-1.64,5-2,6.2-3.65,11.23l-15.69,3.11c-1,6.21-1,6.32-2,12.53l14,7.8c0,5.29,0,6.52,0,11.81l-14,7.8c1,6.22,1,6.32,2,12.54l15.69,3.1c1.64,5,2,6.19,3.65,11.23L140.2,309.15,146,320.46l15.89-1.9,6.94,9.55-6.71,14.52,9,9,14.52-6.72,9.56,6.94-1.9,15.88,11.31,5.76,11.73-10.87,11.23,3.64,3.11,15.7,12.53,2,7.8-14h11.81l7.8,14,12.54-2,3.1-15.7,11.23-3.65,11.73,10.88,11.31-5.77-1.9-15.88,9.55-6.94,14.52,6.71,9-9-6.72-14.52,6.94-9.55,15.88,1.9,5.76-11.31L362.6,297.38c1.63-5,2-6.19,3.64-11.23l15.7-3.1c1-6.22,1-6.32,2-12.54l-14-7.8v-11.8l14-7.81c-1-6.21-1-6.32-2-12.53l-15.7-3.1c-1.63-5-2-6.2-3.65-11.23l10.88-11.74-5.77-11.31-15.88,1.91-6.94-9.55L351.58,171l-9-9-14.52,6.72-9.55-6.94,1.9-15.89-11.31-5.76-11.74,10.88-11.23-3.65-3.1-15.69-12.54-2Z"/><polygon points="241.48 68.82 272.56 68.82 257.02 229.41 241.48 68.82"/><path d="M272.21,69.14,257,226.1l-15.19-157h30.38m.7-.64H241.13L257,232.72,272.91,68.5Z"/><polygon points="355.19 95.69 380.33 113.97 273.3 234.71 355.19 95.69"/><path d="M355.29,96.16,379.86,114,275.25,232l80-135.87m-.19-.93L271.35,237.38,380.8,113.92,355.1,95.23Z"/><polygon points="431.35 184.31 440.92 213.88 283.35 248.56 431.35 184.31"/><path d="M431.15,184.74l9.36,28.9-154,33.9,144.65-62.8m.39-.86L280.2,249.58l161.13-35.46-9.79-30.24Z"/><polygon points="283.33 265.68 440.81 300.77 431.16 330.32 283.33 265.68"/><path d="M286.47,266.71,440.4,301,431,329.88l-144.5-63.17m-6.29-2.06,151.17,66.1,9.87-30.21-161-35.89Z"/><polygon points="273.24 279.51 379.96 400.52 354.78 418.74 273.24 279.51"/><path d="M275.18,282.19,379.49,400.47l-24.62,17.8L275.18,282.19m-3.88-5.36L354.68,419.2l25.75-18.63L271.3,276.83Z"/><polygon points="241 445.32 256.95 284.77 272.08 445.4 241 445.32"/><path d="M256.94,288.07l14.79,157L241.35,445l15.59-156.93m0-6.61L240.64,445.64l31.79.08L257,281.46Z"/><polygon points="133.34 399.89 240.68 279.43 158.43 418.23 133.34 399.89"/><path d="M238.73,282.1,158.34,417.77l-24.52-17.93L238.73,282.1m3.91-5.34L132.87,399.94l25.66,18.76,84.11-141.94Z"/><polygon points="73.01 299.83 230.67 265.55 82.51 329.42 73.01 299.83"/><path d="M227.52,266.56,82.7,329l-9.28-28.93,154.1-33.5m6.3-2-161.22,35,9.71,30.26,151.51-65.31Z"/><polygon points="73.34 212.94 83.07 183.41 230.73 248.43 73.34 212.94"/><path d="M83.26,183.85l144.33,63.54L73.75,212.7l9.51-28.85m-.38-.87-9.95,30.19,161,36.29L82.88,183Z"/><polygon points="134.45 113.34 159.68 95.19 240.85 234.62 134.45 113.34"/><path d="M159.58,95.65l79.34,136.29-104-118.54,24.66-17.75m.2-.92L134,113.29l108.81,124-83-142.58Z"/><circle class="cls-1" cx="257.02" cy="257.09" r="2.84"/><path d="M257,254.59a2.5,2.5,0,1,1-2.5,2.5,2.5,2.5,0,0,1,2.5-2.5m0-.68a3.18,3.18,0,1,0,3.18,3.18,3.18,3.18,0,0,0-3.18-3.18Z"/><path class="cls-1" d="M257,311.12a54,54,0,1,1,54-54A54.09,54.09,0,0,1,257,311.12Zm0-94.29a40.26,40.26,0,1,0,40.26,40.26A40.3,40.3,0,0,0,257,216.83Z"/><path d="M257,206.23a50.86,50.86,0,1,1-50.86,50.86A50.92,50.92,0,0,1,257,206.23m0,94.3a43.44,43.44,0,1,0-43.44-43.44A43.49,43.49,0,0,0,257,300.53m0-100.65a57.21,57.21,0,1,0,57.21,57.21A57.21,57.21,0,0,0,257,199.88Zm0,94.29a37.08,37.08,0,1,1,37.08-37.08A37.08,37.08,0,0,1,257,294.17Z"/><path d="M257,73.38a183.14,183.14,0,1,1-71.51,14.44A182.49,182.49,0,0,1,257,73.38m0-7c-105.33,0-190.71,85.38-190.71,190.71S151.69,447.8,257,447.8s190.71-85.39,190.71-190.71S362.34,66.38,257,66.38Z"/><circle cx="256.59" cy="256.65" r="27.82"/><path d="M256.59,232A24.65,24.65,0,1,1,232,256.65,24.67,24.67,0,0,1,256.59,232m0-6.36a31,31,0,1,0,31,31,31,31,0,0,0-31-31Z"/><circle cx="304.59" cy="111.65" r="11.82"/><path d="M304.59,103a8.65,8.65,0,1,1-8.64,8.64,8.65,8.65,0,0,1,8.64-8.64m0-6.36a15,15,0,1,0,15,15,15,15,0,0,0-15-15Z"/><path d="M210.17,92.73h0a18.47,18.47,0,0,1,14.9,7.59,18.41,18.41,0,0,1-14.87,29.23,18.41,18.41,0,0,1,0-36.82m0-2a20.41,20.41,0,1,0,16.52,8.41,20.33,20.33,0,0,0-16.52-8.41Z"/><path d="M133.31,148.18h0a18.41,18.41,0,1,1-17.5,12.73,18.4,18.4,0,0,1,17.5-12.73m0-2a20.44,20.44,0,1,0,6.31,1,20.42,20.42,0,0,0-6.31-1Z"/><path d="M103.73,238.23h0a18.45,18.45,0,1,1-5.7.91,18.36,18.36,0,0,1,5.7-.91m0-2a20.41,20.41,0,1,0,19.4,14.11,20.4,20.4,0,0,0-19.4-14.11Z"/><path d="M132.73,328.48h0a18.42,18.42,0,0,1,14.88,29.23,18.5,18.5,0,0,1-14.91,7.59,18.41,18.41,0,0,1-14.88-29.23,18.49,18.49,0,0,1,14.91-7.59m0-2a20.41,20.41,0,1,0,12,3.9,20.41,20.41,0,0,0-12-3.9Z"/><path d="M209.21,382.45v2h0a18.41,18.41,0,1,1-18.41,18.41,18.43,18.43,0,0,1,18.41-18.41v-2m0,0a20.41,20.41,0,1,0,20.41,20.41,20.41,20.41,0,0,0-20.41-20.41Z"/><path d="M304,384.76h0a18.41,18.41,0,0,1,10.84,33.3A18.41,18.41,0,1,1,304,384.76m0-2a20.41,20.41,0,1,0,16.52,8.42A20.33,20.33,0,0,0,304,382.76Z"/><path d="M380.86,329.3h0A18.41,18.41,0,1,1,363.36,342a18.4,18.4,0,0,1,17.5-12.73m0-2a20.44,20.44,0,1,0,6.31,1,20.42,20.42,0,0,0-6.31-1Z"/><path d="M410.46,239.25h0a18.44,18.44,0,1,1-5.69.91,18.37,18.37,0,0,1,5.69-.91m0-2a20.41,20.41,0,1,0,19.4,14.11,20.4,20.4,0,0,0-19.4-14.11Z"/><path d="M381.48,149h0a18.41,18.41,0,0,1,14.88,29.23,18.49,18.49,0,0,1-14.91,7.59,18.42,18.42,0,0,1-14.88-29.23A18.5,18.5,0,0,1,381.48,149m0-2a20.42,20.42,0,1,0,12,3.9,20.36,20.36,0,0,0-12-3.9Z"/><path d="M305,91.05v2h0a18.4,18.4,0,1,1-13,5.39,18.43,18.43,0,0,1,13-5.39v-2m0,0a20.41,20.41,0,1,0,20.41,20.4A20.4,20.4,0,0,0,305,91.05Z"/><path d="M210.2,123a11.88,11.88,0,0,1-9.58-4.87,11.82,11.82,0,0,1,9.55-18.78A11.83,11.83,0,0,1,221.86,113a11.83,11.83,0,0,1-11.66,10Z"/><path d="M210.17,102.49h0a8.63,8.63,0,1,1-5.07,1.65,8.54,8.54,0,0,1,5.07-1.65m0-6.35a15,15,0,1,0,12.15,6.18,15,15,0,0,0-12.15-6.18Z"/><path d="M133.51,178a12,12,0,0,1-3.66-.58,11.82,11.82,0,1,1,3.66.58Z"/><path d="M133.5,157.57h0a8.82,8.82,0,0,1,2.68.42,8.65,8.65,0,1,1-2.68-.42m0-6.36a15,15,0,1,0,4.64.74,15,15,0,0,0-4.64-.74Z"/><path d="M103.85,267.67a11.82,11.82,0,0,1-3.65-23.07,12,12,0,0,1,3.66-.58,11.82,11.82,0,0,1,3.65,23.07A12,12,0,0,1,103.85,267.67Z"/><path d="M103.86,247.2h0a8.69,8.69,0,1,1-2.68.43,8.45,8.45,0,0,1,2.68-.43m0-6.36a15,15,0,1,0,14.26,10.37,15.1,15.1,0,0,0-14.26-10.37Z"/><path d="M132.54,357.61a11.7,11.7,0,0,1-6.93-2.26,11.82,11.82,0,0,1,7-21.39,11.82,11.82,0,0,1,9.55,18.77A11.89,11.89,0,0,1,132.54,357.61Z"/><path d="M132.57,337.14h0a8.55,8.55,0,0,1,5.06,1.65,8.64,8.64,0,0,1-5.09,15.64,8.65,8.65,0,0,1,0-17.29m0-6.36a15,15,0,1,0,8.8,2.87,15,15,0,0,0-8.8-2.87Z"/><path d="M208.64,413.49a11.82,11.82,0,0,1-8.36-20.17,11.82,11.82,0,1,1,8.37,20.17Z"/><path d="M208.64,393a8.64,8.64,0,1,1-6.11,2.53,8.66,8.66,0,0,1,6.11-2.53h0m0-6.36h0a15,15,0,1,0,0,30h0a15,15,0,0,0,0-30Z"/><path d="M303.06,414a11.82,11.82,0,0,1-7-21.39,11.7,11.7,0,0,1,6.94-2.26,11.82,11.82,0,0,1,7,21.39A11.7,11.7,0,0,1,303.06,414Z"/><path d="M303,393.51h0a8.67,8.67,0,1,1-5.07,1.66,8.58,8.58,0,0,1,5.07-1.66m0-6.36a15,15,0,1,0,12.14,6.18A15,15,0,0,0,303,387.15Z"/><path d="M379.71,358.88a11.84,11.84,0,0,1-11.25-15.48,11.8,11.8,0,0,1,11.24-8.18A11.83,11.83,0,0,1,391,350.7,11.79,11.79,0,0,1,379.71,358.88Z"/><path d="M379.7,332.05a15,15,0,1,0,4.63.73,15,15,0,0,0-4.63-.73Z"/><path d="M409.32,269.23a11.81,11.81,0,0,1-10.53-17.18,11.82,11.82,0,1,1,14.2,16.6A11.83,11.83,0,0,1,409.32,269.23Z"/><path d="M409.33,248.76h0A8.65,8.65,0,0,1,412,265.63a8.74,8.74,0,0,1-2.68.43,8.65,8.65,0,0,1-2.67-16.87,8.79,8.79,0,0,1,2.68-.43m0-6.36a15,15,0,1,0,14.26,10.36,15.06,15.06,0,0,0-14.26-10.36Z"/><path d="M380.58,179.3a11.82,11.82,0,1,1,9.58-4.88A11.76,11.76,0,0,1,380.58,179.3Z"/><path d="M380.61,158.83h0a8.65,8.65,0,1,1-7,3.57,8.57,8.57,0,0,1,7-3.57m0-6.35a15,15,0,1,0,8.8,2.86,15,15,0,0,0-8.8-2.86Z"/><text class="cls-2" transform="translate(259.82 194.15) rotate(10.32) scale(0.74 1)">X</text><text class="cls-2" transform="matrix(0.67, -0.32, 0.43, 0.9, 222.29, 204.52)">X</text><text class="cls-2" transform="matrix(-0.74, 0.04, 0.05, 1, 253.28, 196.05)">X</text><text class="cls-2" transform="matrix(-0.57, 0.46, 0.63, 0.78, 218.09, 209.96)">X</text><text class="cls-2" transform="matrix(-0.19, 0.71, 0.97, 0.26, 197.8, 241.89)">X</text><text class="cls-2" transform="matrix(0.26, 0.69, 0.93, -0.36, 200.15, 279.66)">X</text><text class="cls-2" transform="matrix(0.62, 0.4, 0.55, -0.84, 224.25, 308.83)">X</text><text class="cls-2" transform="matrix(0.74, -0.04, -0.05, -1, 260.9, 318.26)">X</text><text class="cls-2" transform="matrix(0.57, -0.46, -0.63, -0.78, 296.08, 304.35)">X</text><text class="cls-2" transform="matrix(0.19, -0.71, -0.97, -0.26, 316.38, 272.42)">X</text><text class="cls-2" transform="matrix(-0.26, -0.69, -0.93, 0.36, 314.02, 234.65)">X</text><text class="cls-2" transform="matrix(-0.62, -0.4, -0.55, 0.84, 289.92, 205.48)">X</text><text class="cls-2" transform="translate(198.03 234.97) rotate(-61.68) scale(0.74 1)">X</text><text class="cls-2" transform="translate(196.29 273.87) rotate(-97.68) scale(0.74 1)">X</text><text class="cls-2" transform="translate(217.75 306.36) rotate(-133.68) scale(0.74 1)">X</text><text class="cls-2" transform="translate(254.22 320.03) rotate(-169.68) scale(0.74 1)">X</text><text class="cls-2" transform="translate(291.75 309.66) rotate(154.32) scale(0.74 1)">X</text><text class="cls-2" transform="translate(316.01 279.21) rotate(118.32) scale(0.74 1)">X</text><text class="cls-2" transform="translate(317.75 240.31) rotate(82.32) scale(0.74 1)">X</text><text class="cls-2" transform="translate(296.29 207.82) rotate(46.32) scale(0.74 1)">X</text><circle class="cls-3" cx="257.09" cy="257.15" r="210"/><circle class="cls-4" cx="257.09" cy="257.15" r="217.5"/><text class="cls-5" transform="matrix(-0.74, 0, 0, 1, 263.36, 135.74)">y</text><text class="cls-5" transform="translate(253.23 135.74) scale(0.74 1)">y</text><text class="cls-5" transform="translate(140.43 223.3) rotate(-72) scale(0.74 1)">y</text><text class="cls-5" transform="matrix(-0.6, -0.43, 0.59, -0.81, 188.85, 357.64)">y</text><text class="cls-5" transform="matrix(-0.6, 0.43, -0.59, -0.81, 331.57, 353.11)">y</text><text class="cls-5" transform="translate(371.37 215.97) rotate(72) scale(0.74 1)">y</text><text class="cls-5" transform="matrix(-0.23, 0.7, 0.95, 0.31, 143.56, 213.67)">y</text><text class="cls-5" transform="matrix(0.6, 0.43, 0.59, -0.81, 180.65, 351.69)">y</text><text class="cls-5" transform="matrix(0.6, -0.43, -0.59, -0.81, 323.38, 359.06)">y</text><text class="cls-5" transform="matrix(-0.23, -0.7, -0.95, 0.31, 374.5, 225.6)">y</text><text class="cls-6" transform="translate(268.83 115.24) scale(0.74 1)">E</text><text class="cls-6" transform="matrix(-0.6, -0.43, -0.59, 0.81, 331.38, 135.61)">E</text><text class="cls-6" transform="matrix(0.6, -0.43, 0.59, 0.81, 183.17, 135.44)">E</text><text class="cls-6" transform="matrix(-0.74, 0, 0, 1, 245.75, 115.16)">E</text><text class="cls-6" transform="translate(125.74 202.14) rotate(-72) scale(0.74 1)">E</text><text class="cls-6" transform="matrix(-0.6, 0.43, 0.59, 0.81, 164.45, 148.95)">E</text><text class="cls-6" transform="translate(118.49 289.85) rotate(-108) scale(0.74 1)">E</text><text class="cls-6" transform="matrix(-0.23, 0.7, 0.95, 0.31, 118.54, 224.06)">E</text><text class="cls-6" transform="matrix(-0.6, -0.43, 0.59, -0.81, 164.17, 365.07)">E</text><text class="cls-6" transform="matrix(0.23, 0.7, 0.95, -0.31, 125.55, 311.82)">E</text><text class="cls-6" transform="translate(245.35 399.07) rotate(180) scale(0.74 1)">E</text><text class="cls-6" transform="matrix(0.6, 0.43, 0.59, -0.81, 182.8, 378.7)">E</text><text class="cls-6" transform="matrix(-0.6, 0.43, -0.59, -0.81, 331.01, 378.87)">E</text><text class="cls-6" transform="matrix(0.74, 0, 0, -1, 268.43, 399.15)">E</text><text class="cls-6" transform="translate(388.44 312.17) rotate(108) scale(0.74 1)">E</text><text class="cls-6" transform="matrix(0.6, -0.43, -0.59, -0.81, 349.73, 365.36)">E</text><text class="cls-6" transform="translate(395.69 224.46) rotate(72) scale(0.74 1)">E</text><text class="cls-6" transform="matrix(0.23, -0.7, -0.95, -0.31, 395.64, 290.25)">E</text><text class="cls-6" transform="matrix(0.6, 0.43, -0.59, 0.81, 350, 149.24)">E</text><text class="cls-6" transform="matrix(-0.23, -0.7, -0.95, 0.31, 388.63, 202.49)">E</text><text class="cls-7" transform="translate(220.22 156.1) rotate(-18) scale(0.74 1)">I</text><text class="cls-7" transform="matrix(0.43, -0.6, 0.81, 0.59, 167.86, 197.07)">I</text><text class="cls-7" transform="matrix(0, -0.74, 1, 0, 149.58, 261)">I</text><text class="cls-7" transform="matrix(-0.43, -0.6, 0.81, -0.59, 172.37, 323.45)">I</text><text class="cls-7" transform="matrix(-0.7, -0.23, 0.31, -0.95, 227.52, 360.58)">I</text><text class="cls-7" transform="matrix(-0.7, 0.23, -0.31, -0.95, 293.96, 358.21)">I</text><text class="cls-7" transform="translate(346.32 317.24) rotate(126) scale(0.74 1)">I</text><text class="cls-7" transform="translate(364.59 253.31) rotate(90) scale(0.74 1)">I</text><text class="cls-7" transform="matrix(0.43, 0.6, -0.81, 0.59, 341.8, 190.86)">I</text><text class="cls-7" transform="translate(286.66 153.72) rotate(18) scale(0.74 1)">I</text><polygon points="256.59 51.66 249.66 63.66 263.52 63.66 256.59 51.66"/><polygon points="226.32 66.11 217.6 55.35 231.29 53.18 226.32 66.11"/><polygon points="168.8 84.97 157.18 77.42 169.52 71.14 168.8 84.97"/><polygon points="119.91 120.68 106.53 117.1 116.32 107.3 119.91 120.68"/><polygon points="84.45 169.75 70.61 170.48 76.91 158.13 84.45 169.75"/><polygon points="65.89 227.38 52.96 232.34 55.13 218.66 65.89 227.38"/><polygon points="66.05 287.92 55.28 296.64 53.11 282.95 66.05 287.92"/><polygon points="84.91 345.45 77.36 357.07 71.07 344.72 84.91 345.45"/><polygon points="120.62 394.33 117.03 407.72 107.23 397.92 120.62 394.33"/><polygon points="394.27 393.63 407.65 397.21 397.85 407.01 394.27 393.63"/><polygon points="429.73 344.56 443.56 343.83 437.27 356.18 429.73 344.56"/><polygon points="448.29 286.93 461.22 281.96 459.05 295.65 448.29 286.93"/><polygon points="448.13 226.39 458.9 217.67 461.06 231.36 448.13 226.39"/><polygon points="429.27 168.86 436.82 157.24 443.11 169.59 429.27 168.86"/><polygon points="393.56 119.98 397.15 106.59 406.94 116.39 393.56 119.98"/><polygon points="344.49 84.52 343.77 70.68 356.11 76.97 344.49 84.52"/><polygon points="286.87 65.96 281.9 53.02 295.59 55.19 286.87 65.96"/><polygon class="cls-1" points="256.59 93.66 249.66 81.66 263.52 81.66 256.59 93.66"/><polygon class="cls-1" points="160.58 125.17 147.92 119.54 159.13 111.39 160.58 125.17"/><polygon class="cls-1" points="101.44 207.11 87.88 209.99 92.17 196.81 101.44 207.11"/><polygon class="cls-1" points="101.75 308.15 92.47 318.45 88.19 305.27 101.75 308.15"/><polygon class="cls-1" points="161.39 389.72 159.94 403.5 148.73 395.36 161.39 389.72"/><polygon class="cls-1" points="353.6 389.13 366.25 394.77 355.05 402.92 353.6 389.13"/><polygon class="cls-1" points="412.74 307.2 426.3 304.32 422.01 317.5 412.74 307.2"/><polygon class="cls-1" points="412.43 206.16 421.7 195.86 425.99 209.04 412.43 206.16"/><polygon class="cls-1" points="352.79 124.59 354.24 110.81 365.45 118.95 352.79 124.59"/><polygon points="193.11 61.87 190.23 75.42 203.41 71.14 193.11 61.87"/><polygon points="135.9 91.2 137.34 104.98 148.55 96.83 135.9 91.2"/><polygon points="90.54 136.77 96.18 149.43 104.32 138.22 90.54 136.77"/><polygon points="61.49 194.13 70.76 204.43 75.05 191.25 61.49 194.13"/><polygon points="51.59 257.65 63.59 264.58 63.59 250.73 51.59 257.65"/><polygon points="61.8 321.13 75.36 324.01 71.07 310.84 61.8 321.13"/><polygon points="91.13 378.35 104.91 376.9 96.77 365.69 91.13 378.35"/><polygon points="423.64 377.54 418 364.88 409.86 376.09 423.64 377.54"/><polygon points="452.69 320.18 443.41 309.88 439.13 323.06 452.69 320.18"/><polygon points="462.59 256.65 450.59 249.73 450.59 263.58 462.59 256.65"/><polygon points="452.38 193.18 438.82 190.29 443.11 203.47 452.38 193.18"/><polygon points="423.05 135.96 409.27 137.41 417.41 148.62 423.05 135.96"/><polygon points="377.48 90.61 364.82 96.24 376.03 104.39 377.48 90.61"/><polygon points="320.12 61.56 309.82 70.83 323 75.11 320.12 61.56"/></g></g></svg>