<svg xmlns="http://www.w3.org/2000/svg" viewBox="0 0 300 300"><defs><style>.cls-1{fill:#fff;}</style></defs><g id="レイヤー_2" data-name="レイヤー 2"><g id="レイヤー_1-2" data-name="レイヤー 1"><path class="cls-1" d="M230.54,278.08l-20-10.89-15,6.7-5.32,22.21L172.05,300,158.2,281.88H141.82L128,300l-18.23-3.9-5.33-22.21-15-6.7-20,10.88-15.08-11,4.12-22.46-11-12.25L24.9,234.12l-9.33-16.24L28.43,199l-5.07-15.66L2,175.73,0,157.09l19.36-12,1.72-16.38L4.6,113l5.76-17.83,22.53-3,8.19-14.27L32.4,56.81,44.87,42.88l21.79,6.47,13.26-9.68.61-22.84,17-7.62L114.85,24l16-3.43L140.67,0h18.64l9.8,20.62,16,3.42L202.42,9.22l17,7.62.61,22.84,13.25,9.69,21.79-6.48,12.48,13.94-8.68,21.11,8.19,14.27,22.53,3L295.39,113l-16.47,15.73,1.72,16.39,19.36,12-1.95,18.64-21.41,7.64-5.06,15.67,12.86,18.84-9.33,16.23-22.65-1.78-11,12.25,4.13,22.46Z"/><path class="cls-1" d="M150.91,168.23a18.5,18.5,0,1,1,17.84-19.13A18.52,18.52,0,0,1,150.91,168.23Zm-1-30a11.5,11.5,0,1,0,11.89,11.09A11.51,11.51,0,0,0,149.86,138.25Z"/><path d="M149.67,132.76a17,17,0,1,1-16.4,17.58,17,17,0,0,1,16.4-17.58m1,30a13,13,0,1,0-13.44-12.54,13,13,0,0,0,13.44,12.54m-1.15-33a20,20,0,1,0,20.69,19.29,20,20,0,0,0-20.69-19.29Zm1.05,30a10,10,0,1,1,9.64-10.34,10,10,0,0,1-9.64,10.34Z"/><path d="M146.49,41.81A108,108,0,1,1,42.33,153.51,108.11,108.11,0,0,1,146.49,41.81m4.22,120.93a13,13,0,1,0-13.44-12.54,13,13,0,0,0,13.44,12.54M146.39,38.81a111,111,0,1,0,114.8,107.06A111,111,0,0,0,146.39,38.81Zm4.22,120.93a10,10,0,1,1,9.64-10.34,10,10,0,0,1-9.64,10.34Z"/><path d="M146.11,30.82A119,119,0,0,1,237.29,230.9,119,119,0,1,1,63.23,68.59a118.21,118.21,0,0,1,82.88-37.77m4.56,130.73a11.81,11.81,0,1,0-12.21-11.39,11.82,11.82,0,0,0,12.21,11.39m-4.6-131.73A120,120,0,1,0,270.19,145.56,120,120,0,0,0,146.07,29.82Zm4.57,130.73a10.81,10.81,0,1,1,10.42-11.18,10.8,10.8,0,0,1-10.42,11.18Z"/><path d="M147.34,66.12a83.68,83.68,0,1,1-80.7,86.54,83.76,83.76,0,0,1,80.7-86.54m-.08-2.32a86,86,0,1,0,89,82.94,86,86,0,0,0-89-82.94Z"/><path d="M147.92,82.79a67,67,0,0,1,69.3,64.62c0,1.12.05,2.25,0,3.37a66.43,66.43,0,0,1-12.07,37.33,67,67,0,0,1-108.1,2.38,66.51,66.51,0,0,1-13.7-36.73c0-.56-.06-1.12-.08-1.68a66.91,66.91,0,0,1,64.62-69.29m2.76,79a12,12,0,1,0-12.41-11.58,12,12,0,0,0,12.41,11.58m-2.83-80.95A69,69,0,0,0,81.3,152.15c0,.57,0,1.14.08,1.71a69,69,0,0,0,137.87-3.05c0-1.15,0-2.31,0-3.47a68.94,68.94,0,0,0-71.37-66.55Zm2.76,79a10,10,0,1,1,9.64-10.34,10,10,0,0,1-9.64,10.34Z"/><path d="M176.48,54.17a7.84,7.84,0,0,1-3.43,6.44,4.68,4.68,0,0,1-2,1.12c-.09,0-.14-.06-.14-.19s.17-.21.51-.38a8.63,8.63,0,0,0,3.25-3,7.31,7.31,0,0,0,1.26-4,4.77,4.77,0,0,0-1-3.13,3.13,3.13,0,0,0-2.55-1.2q-5.07,0-9.09,7.91-.69,1.36-4.2,10.55-3.82,9.87-9,12.13a14.79,14.79,0,0,0,2.43.26A6.77,6.77,0,0,0,158,77.79a30.72,30.72,0,0,0,3.53-5.72c.13-.23.23-.34.29-.34a.1.1,0,0,1,.07.1A22.89,22.89,0,0,1,160.22,75a16.59,16.59,0,0,1-3.61,4.73,6.34,6.34,0,0,1-4,1.28,16.21,16.21,0,0,1-3.19-.34,7.09,7.09,0,0,1-2.4.48c-.61,0-.92-.17-.92-.52s.48-.6,1.45-.6a9.18,9.18,0,0,1,2,.28,9.91,9.91,0,0,0,3.57-3.43,68.72,68.72,0,0,0,3.92-9.25l.29-.8h-6.91A43.7,43.7,0,0,1,147.55,73a18.42,18.42,0,0,1-3.28,3.91q-4.53,4.19-8.73,4.18a5.67,5.67,0,0,1-4-1.4A4.75,4.75,0,0,1,130,76.06a4,4,0,0,1,.51-2,1.5,1.5,0,0,1,1.26-.86c.77,0,1.16.53,1.16,1.58a2.38,2.38,0,0,1-.36,1.33,1.05,1.05,0,0,1-.89.55c-.55,0-.83-.38-.83-1.13,0-.4,0-.6-.11-.6s-.32.42-.32,1.27a4.21,4.21,0,0,0,1.37,3.23,5,5,0,0,0,3.5,1.26,8.71,8.71,0,0,0,6.56-3q2.82-3,6.38-10.83H142.8l.14-.48h5.54c.15-.32.39-.83.73-1.53q3.73-8.18,7-11.42a13.94,13.94,0,0,1,1.84-1.5,4.41,4.41,0,0,1,1.42-.8.18.18,0,0,1,.11.19c0,.09-.12.21-.35.33a10.77,10.77,0,0,0-3.91,4.14,84.11,84.11,0,0,0-4.72,10.59h6.92a45.17,45.17,0,0,1,7.22-12.48q3.88-4.46,7.6-4.46a3.72,3.72,0,0,1,3,1.34A5.08,5.08,0,0,1,176.48,54.17Zm-23,.57a5.1,5.1,0,0,1-1.05,2c-1,1.52-2,2.28-3,2.28a2,2,0,0,1-1.68-1,4.11,4.11,0,0,1-.68-2.39,9.77,9.77,0,0,1,.73-3.29,12.19,12.19,0,0,0,.9-3.39,2.48,2.48,0,0,0-.85-2,3.25,3.25,0,0,0-2.23-.74c-2.64,0-5.12,1.43-7.44,4.31a14.4,14.4,0,0,0-3.48,9.21,6.92,6.92,0,0,0,1.14,4.12,3.46,3.46,0,0,0,2.94,1.6c2.34,0,4.3-1.46,5.9-4.37a.23.23,0,0,1,.1-.17c.1,0,.14.07.14.22a4.12,4.12,0,0,1-1.13,1.85c-1.56,1.9-3.25,2.86-5.08,2.86a3.67,3.67,0,0,1-3.12-1.69,7.36,7.36,0,0,1-1.21-4.37,14.87,14.87,0,0,1,3.56-9.57q3.56-4.4,7.78-4.39c2.48,0,3.71,1.47,3.71,4.42a11,11,0,0,1-.76,3.63,10.77,10.77,0,0,0-.76,2.81c0,1.22.48,1.83,1.45,1.83a3.13,3.13,0,0,0,2-1.13,7.82,7.82,0,0,0,1.76-2.67q.09-.24.18-.24C153.41,54.55,153.46,54.61,153.46,54.74Z"/><path d="M125,50.72a3.74,3.74,0,0,1,3-1.33q3.72,0,7.61,4.45a45.4,45.4,0,0,1,7.21,12.49h6.92A84.44,84.44,0,0,0,145,55.73a10.72,10.72,0,0,0-3.9-4.13c-.24-.13-.36-.24-.36-.34a.18.18,0,0,1,.11-.19,4.53,4.53,0,0,1,1.42.8,14.11,14.11,0,0,1,1.85,1.5q3.28,3.26,7,11.42c.34.7.59,1.22.73,1.54h5.54l.14.48h-5.45q3.57,7.8,6.38,10.82a8.74,8.74,0,0,0,6.56,3,5,5,0,0,0,3.5-1.26,4.23,4.23,0,0,0,1.37-3.24c0-.85-.11-1.27-.32-1.27s-.14.2-.11.6c0,.75-.27,1.13-.83,1.13a1,1,0,0,1-.89-.55,2.45,2.45,0,0,1-.35-1.32c0-1.06.38-1.59,1.15-1.59a1.48,1.48,0,0,1,1.26.86,4,4,0,0,1,.52,2,4.76,4.76,0,0,1-1.54,3.66,5.65,5.65,0,0,1-4,1.41q-4.22,0-8.73-4.18A18.47,18.47,0,0,1,152.77,73a45.18,45.18,0,0,1-2.89-6.22H143l.28.79a69.48,69.48,0,0,0,3.92,9.25,10.1,10.1,0,0,0,3.57,3.44,8.84,8.84,0,0,1,2-.29c1,0,1.46.2,1.46.6s-.31.53-.93.53a7,7,0,0,1-2.39-.48,17.13,17.13,0,0,1-3.2.33,6.38,6.38,0,0,1-4-1.28A16.85,16.85,0,0,1,140.1,75a23.29,23.29,0,0,1-1.67-3.15.11.11,0,0,1,.08-.1c.05,0,.15.11.28.34a30.39,30.39,0,0,0,3.53,5.72,6.78,6.78,0,0,0,5.48,2.86,15,15,0,0,0,2.44-.27q-5.18-2.25-9-12.13-3.52-9.18-4.21-10.55-4-7.91-9.09-7.91A3.14,3.14,0,0,0,125.41,51a4.79,4.79,0,0,0-1,3.12,7.31,7.31,0,0,0,1.26,4,8.71,8.71,0,0,0,3.25,3c.34.18.51.3.51.38s0,.2-.14.2a4.86,4.86,0,0,1-2-1.13,7.82,7.82,0,0,1-3.42-6.44A5.13,5.13,0,0,1,125,50.72Zm22,3.83c.06,0,.11.08.17.24a7.86,7.86,0,0,0,1.76,2.67,3.15,3.15,0,0,0,2,1.13c1,0,1.46-.61,1.46-1.83a10.94,10.94,0,0,0-.77-2.81,11.22,11.22,0,0,1-.76-3.63c0-2.94,1.24-4.42,3.71-4.42q4.23,0,7.78,4.39a14.87,14.87,0,0,1,3.56,9.57,7.32,7.32,0,0,1-1.21,4.38,3.67,3.67,0,0,1-3.12,1.68c-1.82,0-3.51-1-5.08-2.86a4.22,4.22,0,0,1-1.13-1.85c0-.15,0-.22.14-.22s.08.07.11.17c1.59,2.92,3.56,4.37,5.89,4.37a3.48,3.48,0,0,0,3-1.59,7,7,0,0,0,1.13-4.13,14.44,14.44,0,0,0-3.48-9.21c-2.32-2.88-4.79-4.31-7.43-4.31a3.31,3.31,0,0,0-2.24.74,2.48,2.48,0,0,0-.85,2,12,12,0,0,0,.9,3.39,9.77,9.77,0,0,1,.73,3.29,4.08,4.08,0,0,1-.67,2.39,2,2,0,0,1-1.69,1c-.94,0-1.94-.76-3-2.29a5.1,5.1,0,0,1-1-2C146.86,54.62,146.91,54.55,147,54.55Z"/><path d="M60.9,117.34A5.23,5.23,0,0,1,62.49,119c1.13,1.46,1.54,2.64,1.25,3.54a2,2,0,0,1-1.44,1.31,4.19,4.19,0,0,1-2.49-.1,9.88,9.88,0,0,1-2.9-1.71A12.39,12.39,0,0,0,54,120.09a2.53,2.53,0,0,0-2.14.2,3.26,3.26,0,0,0-1.4,1.9c-.82,2.51-.21,5.31,1.8,8.4a14.41,14.41,0,0,0,7.69,6.16,7,7,0,0,0,4.27.19,3.46,3.46,0,0,0,2.43-2.3q1.08-3.33-2.34-7-.12-.08-.12-.15c0-.09.11-.12.25-.07.32.1.79.65,1.4,1.65q2,3.12,1.16,5.71a3.69,3.69,0,0,1-2.57,2.45,7.34,7.34,0,0,1-4.53-.2,14.89,14.89,0,0,1-8-6.34Q48.8,126,50.1,122q1.14-3.52,5.35-2.16a10.9,10.9,0,0,1,3.21,1.85,10.56,10.56,0,0,0,2.44,1.59c1.16.38,1.89.1,2.19-.82a3.15,3.15,0,0,0-.45-2.27,7.89,7.89,0,0,0-2-2.5c-.13-.1-.19-.18-.17-.24S60.77,117.3,60.9,117.34Zm6.56-22.06a7.81,7.81,0,0,1,5.07,5.24,4.89,4.89,0,0,1,.44,2.29c0,.09-.11.12-.23.08s-.14-.23-.2-.61a8.74,8.74,0,0,0-1.87-4,7.32,7.32,0,0,0-3.44-2.44,4.78,4.78,0,0,0-3.27,0A3.13,3.13,0,0,0,62,97.84q-1.58,4.83,4.71,11.08,1.1,1.1,8.73,7.26,8.22,6.69,8.77,12.29a15,15,0,0,0,1-2.23,6.76,6.76,0,0,0-1-6.1A30.37,30.37,0,0,0,79.87,115c-.17-.19-.25-.32-.24-.38a.1.1,0,0,1,.12,0,22.69,22.69,0,0,1,2.48,2.56,16.53,16.53,0,0,1,3.37,4.89,6.3,6.3,0,0,1,0,4.22,17,17,0,0,1-1.3,2.93,7.2,7.2,0,0,1-.29,2.43c-.19.59-.45.82-.79.71s-.42-.64-.12-1.56a9.16,9.16,0,0,1,.91-1.86,10,10,0,0,0-2.17-4.45,67.55,67.55,0,0,0-7.59-6.59l-.66-.51-2.13,6.56a44.36,44.36,0,0,1,5,4.68A18.08,18.08,0,0,1,79.17,133q2.58,5.6,1.28,9.59a5.69,5.69,0,0,1-2.57,3.36,4.77,4.77,0,0,1-4,.33,4,4,0,0,1-1.78-1.13,1.46,1.46,0,0,1-.43-1.46c.23-.73.85-.94,1.86-.61a2.41,2.41,0,0,1,1.15.75,1,1,0,0,1,.25,1c-.17.53-.62.68-1.33.45-.37-.16-.57-.19-.61-.09s.31.44,1.11.7a4.18,4.18,0,0,0,3.5-.3,5,5,0,0,0,2.28-2.94,8.73,8.73,0,0,0-.84-7.17q-2-3.62-8.32-9.42l-1.69,5.19-.41-.29,1.71-5.26-1.23-1.17q-6.63-6.08-8.69-10.2a13.08,13.08,0,0,1-.86-2.22,4.71,4.71,0,0,1-.33-1.6.19.19,0,0,1,.22,0c.09,0,.16.18.21.44a10.76,10.76,0,0,0,2.72,5A86.54,86.54,0,0,0,71,123.62L73.17,117a45.37,45.37,0,0,1-9.64-10.72q-3-5.07-1.89-8.61a3.76,3.76,0,0,1,2.19-2.41A5.08,5.08,0,0,1,67.46,95.28Z"/><path d="M48.27,143.18a3.76,3.76,0,0,1-.35-3.24q1.15-3.54,6.59-5.86a45.4,45.4,0,0,1,14.1-3l2.14-6.58a84.44,84.44,0,0,0-11.54,1.21,10.7,10.7,0,0,0-5.13,2.44c-.2.18-.34.26-.43.23a.19.19,0,0,1-.15-.16,4.36,4.36,0,0,1,1.2-1.1,13.1,13.1,0,0,1,2-1.29q4.11-2.13,13-3.15c.78-.11,1.34-.18,1.69-.21l1.71-5.27h.51l-1.69,5.18q8.53-1,12.27-2.72a8.72,8.72,0,0,0,4.89-5.31,5,5,0,0,0-.11-3.72,4.25,4.25,0,0,0-2.66-2.3c-.8-.26-1.24-.29-1.31-.09s.15.2.54.29c.72.23,1,.62.82,1.14a1.06,1.06,0,0,1-.8.68,2.49,2.49,0,0,1-1.37-.07c-1-.33-1.39-.86-1.15-1.59a1.48,1.48,0,0,1,1.21-.93,3.91,3.91,0,0,1,2.1.14,4.69,4.69,0,0,1,3,2.59,5.66,5.66,0,0,1,.11,4.22q-1.3,4-6.67,7a18.47,18.47,0,0,1-4.74,1.91,44.21,44.21,0,0,1-6.82.83L69.13,131l.84,0a70.69,70.69,0,0,0,10-.87,10.09,10.09,0,0,0,4.37-2.33,9,9,0,0,1,.36-2q.45-1.4,1-1.2c.34.11.41.45.22,1a7.48,7.48,0,0,1-1.2,2.13,16,16,0,0,1-.67,3.14,6.35,6.35,0,0,1-2.46,3.43,16.67,16.67,0,0,1-5.61,2,21.89,21.89,0,0,1-3.51.61.09.09,0,0,1-.07-.09c0-.06.16-.12.41-.17a30.46,30.46,0,0,0,6.53-1.59,6.78,6.78,0,0,0,4.42-4.33,17,17,0,0,0,.5-2.4q-3.75,4.21-14.32,4.79-9.81.51-11.33.75-8.76,1.37-10.33,6.19a3.17,3.17,0,0,0,.36,2.81,4.85,4.85,0,0,0,2.66,1.89,7.37,7.37,0,0,0,4.22,0,8.6,8.6,0,0,0,3.87-2.15c.28-.28.45-.4.53-.37s.17.1.14.19q-.18.53-1.71,1.59a7.8,7.8,0,0,1-7.18,1.27A5.14,5.14,0,0,1,48.27,143.18Zm10.45-19.76s.11-.08.28-.09a7.85,7.85,0,0,0,3.08-.85,3.14,3.14,0,0,0,1.7-1.57c.3-.92-.13-1.57-1.28-2a11,11,0,0,0-2.91-.14,11.27,11.27,0,0,1-3.69-.4q-4.2-1.36-3.06-4.89,1.3-4,6.58-6a14.87,14.87,0,0,1,10.2-.42,7.26,7.26,0,0,1,3.79,2.5,3.66,3.66,0,0,1,.63,3.49q-.84,2.6-4.28,3.94a4.23,4.23,0,0,1-2.11.51c-.14,0-.2-.11-.17-.2a.22.22,0,0,1,.2,0c3.26-.62,5.26-2,6-4.26a3.47,3.47,0,0,0-.61-3.29,7,7,0,0,0-3.57-2.35,14.41,14.41,0,0,0-9.84.46c-3.45,1.31-5.58,3.23-6.4,5.73a3.29,3.29,0,0,0,0,2.36,2.44,2.44,0,0,0,1.61,1.42,12,12,0,0,0,3.5.19,9.89,9.89,0,0,1,3.36.32,4.1,4.1,0,0,1,2.06,1.38,2,2,0,0,1,.41,1.91c-.3.9-1.33,1.61-3.1,2.13a5.18,5.18,0,0,1-2.24.37C58.74,123.58,58.69,123.51,58.72,123.42Z"/><path d="M72.87,211.66a7.83,7.83,0,0,1,6.56-3.2,4.73,4.73,0,0,1,2.31.29c.08.06.08.13,0,.24s-.26.07-.64,0a8.65,8.65,0,0,0-4.4.53A7.32,7.32,0,0,0,73.32,212a4.74,4.74,0,0,0-1,3.1,3.16,3.16,0,0,0,1.36,2.48q4.11,3,12-1.06c.91-.46,4.11-2.49,9.6-6.06q8.89-5.75,14.4-4.54a16,16,0,0,0-1.81-1.64,6.76,6.76,0,0,0-6.12-.91A30.72,30.72,0,0,0,95.48,206c-.24.11-.38.14-.43.11a.09.09,0,0,1,0-.12,22.21,22.21,0,0,1,3.2-1.57,16.66,16.66,0,0,1,5.7-1.7,6.3,6.3,0,0,1,4,1.33,15.94,15.94,0,0,1,2.38,2.15,6.93,6.93,0,0,1,2.22,1c.5.37.65.69.44,1s-.75.2-1.53-.37a8.83,8.83,0,0,1-1.48-1.44,10,10,0,0,0-4.91.69,68.43,68.43,0,0,0-8.61,5.17l-.69.48,5.58,4.06a44.17,44.17,0,0,1,6-3.34,18.29,18.29,0,0,1,5-1.24q6.12-.72,9.52,1.75a5.63,5.63,0,0,1,2.39,3.48,4.72,4.72,0,0,1-.91,3.87,4,4,0,0,1-1.61,1.35,1.5,1.5,0,0,1-1.53,0c-.62-.45-.62-1.11,0-2a2.34,2.34,0,0,1,1.06-.86,1,1,0,0,1,1,.07c.45.33.46.8,0,1.4-.26.31-.35.49-.26.55s.51-.15,1-.84a4.19,4.19,0,0,0,.8-3.42,4.93,4.93,0,0,0-2.09-3.07,8.68,8.68,0,0,0-7.08-1.42q-4.05.78-11.53,5l4.41,3.21-.39.3-4.49-3.25-1.49.81q-7.82,4.42-12.38,5.11a12.93,12.93,0,0,1-2.38.13,4.37,4.37,0,0,1-1.62-.18.19.19,0,0,1,0-.22q.08-.12.48-.06a10.68,10.68,0,0,0,5.59-1.05,85.89,85.89,0,0,0,10-5.8L95.34,213a45.43,45.43,0,0,1-13.18,5.86q-5.76,1.32-8.77-.86a3.77,3.77,0,0,1-1.62-2.83A5.11,5.11,0,0,1,72.87,211.66Zm19,13.06a5.26,5.26,0,0,1,2-1c1.74-.61,3-.65,3.76-.09a2,2,0,0,1,.79,1.78,4.09,4.09,0,0,1-.86,2.33A9.89,9.89,0,0,1,95,230a12.38,12.38,0,0,0-2.73,2.21,2.52,2.52,0,0,0-.47,2.1,3.31,3.31,0,0,0,1.37,1.91q3.21,2.34,8.56.89a14.53,14.53,0,0,0,8.23-5.41,7,7,0,0,0,1.5-4,3.47,3.47,0,0,0-1.45-3c-1.88-1.37-4.33-1.34-7.33.08a.25.25,0,0,1-.19.07c-.07-.06-.07-.14,0-.26a4.18,4.18,0,0,1,2-.83c2.39-.62,4.31-.4,5.79.67a3.72,3.72,0,0,1,1.54,3.2,7.29,7.29,0,0,1-1.6,4.24,14.87,14.87,0,0,1-8.5,5.66q-5.46,1.45-8.88-1-3-2.17-.4-5.75a10.86,10.86,0,0,1,2.75-2.49,10.54,10.54,0,0,0,2.27-1.83c.72-1,.68-1.76-.1-2.33a3.1,3.1,0,0,0-2.3-.27,7.89,7.89,0,0,0-3,1.12c-.14.1-.24.13-.29.09S91.75,224.83,91.83,224.72Z"/><path d="M96.94,228.67s0-.13,0-.3a7.82,7.82,0,0,0,.14-3.19,3.13,3.13,0,0,0-1-2.1c-.78-.57-1.53-.36-2.25.62a11,11,0,0,0-1,2.72,11,11,0,0,1-1.51,3.39c-1.73,2.38-3.6,2.85-5.6,1.39q-3.42-2.47-3.72-8.12a14.91,14.91,0,0,1,2.75-9.84,7.32,7.32,0,0,1,3.55-2.82,3.69,3.69,0,0,1,3.52.47q2.2,1.61,2.42,5.3a4,4,0,0,1-.17,2.16q-.12.18-.24.09s0-.1,0-.2c.42-3.29-.31-5.63-2.19-7a3.5,3.5,0,0,0-3.33-.44A7,7,0,0,0,85,213.47a14.42,14.42,0,0,0-2.6,9.5q.28,5.53,3.48,7.86a3.29,3.29,0,0,0,2.25.71,2.48,2.48,0,0,0,1.84-1.09,12,12,0,0,0,1.26-3.27,10,10,0,0,1,1.35-3.1,4.14,4.14,0,0,1,2-1.53,2,2,0,0,1,1.94.2c.76.56,1.12,1.76,1.07,3.6a5.1,5.1,0,0,1-.34,2.25C97.09,228.7,97,228.73,96.94,228.67Zm15.56,16a3.72,3.72,0,0,1-3.19-.67q-3-2.17-3.53-8.07a45,45,0,0,1,1.5-14.34l-5.6-4.07a84.11,84.11,0,0,0-2.41,11.35,10.67,10.67,0,0,0,.73,5.63c.11.25.14.41.09.49a.22.22,0,0,1-.2.09,4.43,4.43,0,0,1-.68-1.49,13,13,0,0,1-.61-2.3c-.5-3-.16-7.49,1-13.35.13-.78.24-1.33.31-1.68l-4.48-3.25.17-.47,4.41,3.2q1.7-8.42,1.19-12.51a8.7,8.7,0,0,0-3.53-6.3,5,5,0,0,0-3.57-1,4.18,4.18,0,0,0-3,1.81c-.5.69-.66,1.09-.49,1.22s.23-.08.44-.43c.44-.61.89-.75,1.34-.42a1,1,0,0,1,.39,1,2.38,2.38,0,0,1-.49,1.28q-.93,1.27-1.86.6a1.46,1.46,0,0,1-.51-1.44,3.87,3.87,0,0,1,.78-1.95,4.77,4.77,0,0,1,3.4-2.07,5.69,5.69,0,0,1,4,1.21q3.4,2.47,4.61,8.51a18.19,18.19,0,0,1,.36,5.1,45.52,45.52,0,0,1-1.32,6.74l5.58,4.05.24-.8a69.13,69.13,0,0,0,2.26-9.79,10.1,10.1,0,0,0-.86-4.88,8.79,8.79,0,0,1-1.82-1c-.79-.57-1.06-1-.83-1.34s.56-.24,1.06.12a7.25,7.25,0,0,1,1.66,1.79,17.25,17.25,0,0,1,2.78,1.61,6.32,6.32,0,0,1,2.49,3.4,16.71,16.71,0,0,1,.15,5.94,23.4,23.4,0,0,1-.5,3.53.11.11,0,0,1-.12,0s0-.18,0-.44a30.41,30.41,0,0,0,.51-6.7,6.8,6.8,0,0,0-2.76-5.54,15.61,15.61,0,0,0-2.12-1.22q2.85,4.88.13,15.1-2.55,9.5-2.8,11-1.4,8.75,2.71,11.73a3.11,3.11,0,0,0,2.77.53,4.82,4.82,0,0,0,2.63-2,7.31,7.31,0,0,0,1.34-4,8.6,8.6,0,0,0-.85-4.35c-.17-.34-.24-.55-.19-.61s.15-.13.23-.07a4.79,4.79,0,0,1,1,2.11,7.79,7.79,0,0,1-1,7.22A5.11,5.11,0,0,1,112.5,244.71Z"/><path d="M185.23,242.48a7.79,7.79,0,0,1-1-7.22,4.85,4.85,0,0,1,1-2.12c.08,0,.16,0,.23.07s0,.27-.19.62a8.6,8.6,0,0,0-.85,4.35,7.25,7.25,0,0,0,1.34,4,4.84,4.84,0,0,0,2.63,2,3.14,3.14,0,0,0,2.77-.53q4.11-3,2.71-11.74-.26-1.52-2.8-11-2.72-10.25.13-15.1a14.61,14.61,0,0,0-2.12,1.22,6.78,6.78,0,0,0-2.76,5.53,30.37,30.37,0,0,0,.51,6.7c0,.26,0,.41,0,.44a.09.09,0,0,1-.12,0,23.68,23.68,0,0,1-.5-3.53,16.68,16.68,0,0,1,.15-5.94,6.35,6.35,0,0,1,2.49-3.41,17.24,17.24,0,0,1,2.78-1.6,7.5,7.5,0,0,1,1.66-1.8c.5-.36.85-.4,1.06-.11s0,.77-.83,1.34a9.3,9.3,0,0,1-1.82,1,10,10,0,0,0-.86,4.87A68.82,68.82,0,0,0,193,220.2l.24.81,5.58-4.06a45.2,45.2,0,0,1-1.32-6.73,18.19,18.19,0,0,1,.36-5.1q1.2-6,4.61-8.51a5.64,5.64,0,0,1,4-1.21,4.75,4.75,0,0,1,3.4,2.06,3.94,3.94,0,0,1,.78,2,1.46,1.46,0,0,1-.51,1.44c-.62.45-1.24.25-1.86-.61a2.35,2.35,0,0,1-.49-1.28,1,1,0,0,1,.39-1c.45-.33.9-.19,1.34.42.21.34.35.49.44.42s0-.53-.49-1.22a4.21,4.21,0,0,0-3-1.81,5,5,0,0,0-3.57,1,8.7,8.7,0,0,0-3.53,6.3q-.51,4.08,1.19,12.5l4.41-3.2.17.47-4.48,3.26c.07.34.18.9.31,1.67q1.8,8.8,1,13.36a13.26,13.26,0,0,1-.61,2.3,4.32,4.32,0,0,1-.68,1.48.18.18,0,0,1-.2-.09q-.08-.12.09-.48a10.69,10.69,0,0,0,.73-5.64A84.06,84.06,0,0,0,199,217.45l-5.6,4.06a45,45,0,0,1,1.5,14.34q-.53,5.9-3.53,8.08a3.76,3.76,0,0,1-3.19.67A5.11,5.11,0,0,1,185.23,242.48Zm18.28-14a5.07,5.07,0,0,1-.34-2.24c0-1.85.31-3.05,1.07-3.6a2,2,0,0,1,1.94-.21,4.17,4.17,0,0,1,1.95,1.54,9.79,9.79,0,0,1,1.35,3.09,11.71,11.71,0,0,0,1.26,3.27,2.47,2.47,0,0,0,1.84,1.1,3.29,3.29,0,0,0,2.25-.71c2.13-1.56,3.29-4.17,3.48-7.86a14.4,14.4,0,0,0-2.6-9.5,7,7,0,0,0-3.34-2.67,3.47,3.47,0,0,0-3.33.44q-2.82,2.06-2.19,7a.2.2,0,0,1,0,.2c-.08,0-.16,0-.24-.09a4.09,4.09,0,0,1-.17-2.17q.21-3.69,2.42-5.29a3.71,3.71,0,0,1,3.52-.48,7.41,7.41,0,0,1,3.55,2.83,14.91,14.91,0,0,1,2.75,9.84c-.2,3.76-1.44,6.46-3.72,8.12-2,1.45-3.87,1-5.6-1.4a10.81,10.81,0,0,1-1.51-3.38,10.87,10.87,0,0,0-1-2.72q-1.08-1.49-2.25-.63a3.14,3.14,0,0,0-1,2.11,7.84,7.84,0,0,0,.14,3.19q.07.24,0,.3C203.66,228.61,203.59,228.59,203.51,228.48Z"/><path d="M228.91,215a3.76,3.76,0,0,1-1.62,2.82c-2,1.46-4.93,1.74-8.77.87a45.43,45.43,0,0,1-13.18-5.86l-5.6,4.06a85,85,0,0,0,10,5.8,10.68,10.68,0,0,0,5.59,1.05c.26,0,.43,0,.48.06a.19.19,0,0,1,0,.22,4.27,4.27,0,0,1-1.62.19,15,15,0,0,1-2.38-.13q-4.56-.71-12.38-5.11c-.69-.37-1.19-.64-1.49-.82l-4.49,3.26-.39-.31,4.41-3.2c-5-2.82-8.83-4.48-11.53-5a8.72,8.72,0,0,0-7.08,1.42,4.93,4.93,0,0,0-2.09,3.07,4.22,4.22,0,0,0,.79,3.42c.5.69.84,1,1,.85s0-.25-.27-.55c-.44-.61-.44-1.08,0-1.41a1,1,0,0,1,1.05-.07,2.39,2.39,0,0,1,1.06.86c.62.85.62,1.51,0,2a1.47,1.47,0,0,1-1.53,0,3.86,3.86,0,0,1-1.61-1.35,4.74,4.74,0,0,1-.92-3.86,5.66,5.66,0,0,1,2.4-3.48q3.41-2.48,9.52-1.75a18,18,0,0,1,5,1.24,43.87,43.87,0,0,1,6,3.33l5.58-4.06-.69-.47a68.93,68.93,0,0,0-8.61-5.18,10,10,0,0,0-4.91-.68,9.55,9.55,0,0,1-1.48,1.43c-.79.57-1.3.69-1.53.37s-.06-.61.44-1a6.72,6.72,0,0,1,2.22-1,16.51,16.51,0,0,1,2.38-2.15,6.33,6.33,0,0,1,4-1.32,16.59,16.59,0,0,1,5.7,1.69,23.56,23.56,0,0,1,3.2,1.57.11.11,0,0,1,0,.12s-.19,0-.42-.11a31,31,0,0,0-6.22-2.55,6.79,6.79,0,0,0-6.12.91,16.13,16.13,0,0,0-1.81,1.64q5.5-1.2,14.4,4.54,8.24,5.37,9.6,6.07,7.89,4,12,1.05a3.15,3.15,0,0,0,1.36-2.47,4.78,4.78,0,0,0-1-3.1,7.33,7.33,0,0,0-3.38-2.52,8.67,8.67,0,0,0-4.4-.53c-.38.06-.6.06-.65,0s-.07-.18,0-.24a4.75,4.75,0,0,1,2.31-.28,7.8,7.8,0,0,1,6.56,3.19A5.14,5.14,0,0,1,228.91,215Zm-20.06,9.83s-.15,0-.29-.09a7.89,7.89,0,0,0-3-1.12,3.15,3.15,0,0,0-2.3.27c-.78.57-.82,1.35-.1,2.34a10.94,10.94,0,0,0,2.27,1.82,11,11,0,0,1,2.75,2.49q2.59,3.57-.4,5.76-3.42,2.48-8.88,1a14.85,14.85,0,0,1-8.5-5.65,7.32,7.32,0,0,1-1.6-4.25,3.7,3.7,0,0,1,1.54-3.2q2.21-1.6,5.79-.67a4.07,4.07,0,0,1,2,.83c.09.12.09.21,0,.26s-.11,0-.19-.07c-3-1.42-5.45-1.45-7.34-.08a3.5,3.5,0,0,0-1.44,3,6.92,6.92,0,0,0,1.5,4,14.45,14.45,0,0,0,8.23,5.41q5.36,1.44,8.55-.88a3.21,3.21,0,0,0,1.37-1.92,2.47,2.47,0,0,0-.46-2.09,11.82,11.82,0,0,0-2.73-2.21,10.1,10.1,0,0,1-2.52-2.24,4.07,4.07,0,0,1-.86-2.33,2,2,0,0,1,.79-1.78c.77-.55,2-.52,3.75.1a5,5,0,0,1,2,1C208.92,224.71,208.92,224.79,208.85,224.84Z"/><path d="M249.26,145.14a7.8,7.8,0,0,1-7.18-1.27c-1-.71-1.59-1.24-1.7-1.59,0-.09,0-.15.13-.19s.25.1.53.37a8.72,8.72,0,0,0,3.87,2.16,7.37,7.37,0,0,0,4.22-.05,4.84,4.84,0,0,0,2.67-1.89,3.17,3.17,0,0,0,.35-2.81q-1.58-4.81-10.33-6.19-1.51-.24-11.33-.74-10.58-.58-14.31-4.79a14.42,14.42,0,0,0,.5,2.39,6.74,6.74,0,0,0,4.41,4.33,30,30,0,0,0,6.53,1.59c.25.06.39.11.41.17a.11.11,0,0,1-.07.1,23.18,23.18,0,0,1-3.51-.62,16.76,16.76,0,0,1-5.61-2,6.35,6.35,0,0,1-2.46-3.43,16,16,0,0,1-.67-3.14,7.23,7.23,0,0,1-1.2-2.13c-.19-.58-.11-.93.22-1s.72.27,1,1.2a9.1,9.1,0,0,1,.36,2,10,10,0,0,0,4.37,2.33,69.15,69.15,0,0,0,10,.87l.84,0-2.13-6.56a44.38,44.38,0,0,1-6.82-.83,18.27,18.27,0,0,1-4.73-1.91q-5.39-3-6.68-7a5.68,5.68,0,0,1,.11-4.23,4.75,4.75,0,0,1,3-2.59,3.91,3.91,0,0,1,2.1-.14,1.48,1.48,0,0,1,1.21.93c.24.73-.15,1.26-1.15,1.59a2.4,2.4,0,0,1-1.37.07,1.05,1.05,0,0,1-.8-.67c-.17-.53.1-.91.82-1.15.39-.09.57-.18.54-.28s-.5-.18-1.31.09a4.18,4.18,0,0,0-2.65,2.3,4.92,4.92,0,0,0-.12,3.71,8.69,8.69,0,0,0,4.89,5.31c2.5,1.16,6.58,2.07,12.27,2.73L226.84,117h.5l1.71,5.27c.35,0,.91.11,1.69.21,5.95.69,10.29,1.73,13,3.15a13.92,13.92,0,0,1,2,1.29c.75.57,1.15.93,1.2,1.1a.19.19,0,0,1-.15.16c-.09,0-.23,0-.43-.23a10.7,10.7,0,0,0-5.13-2.44,86.12,86.12,0,0,0-11.54-1.21l2.14,6.58a45.4,45.4,0,0,1,14.1,3q5.45,2.34,6.59,5.86a3.76,3.76,0,0,1-.35,3.24A5.09,5.09,0,0,1,249.26,145.14Zm-7.66-21.71a5,5,0,0,1-2.24-.37q-2.66-.78-3.09-2.13a2,2,0,0,1,.4-1.91,4.22,4.22,0,0,1,2.07-1.38,9.8,9.8,0,0,1,3.35-.32,11.68,11.68,0,0,0,3.5-.19,2.44,2.44,0,0,0,1.61-1.42,3.21,3.21,0,0,0,0-2.35q-1.22-3.77-6.4-5.74a14.41,14.41,0,0,0-9.84-.46,6.88,6.88,0,0,0-3.56,2.35,3.45,3.45,0,0,0-.61,3.3q1.08,3.31,6,4.25a.21.21,0,0,1,.19,0c0,.09,0,.16-.16.2a4.21,4.21,0,0,1-2.11-.51c-2.3-.89-3.73-2.21-4.29-3.94a3.66,3.66,0,0,1,.63-3.49,7.32,7.32,0,0,1,3.79-2.5,14.9,14.9,0,0,1,10.21.42q5.26,2,6.57,6,1.14,3.52-3.06,4.89a10.72,10.72,0,0,1-3.68.4,11,11,0,0,0-2.91.14q-1.74.57-1.29,2a3.1,3.1,0,0,0,1.7,1.57,7.85,7.85,0,0,0,3.08.85c.17,0,.26,0,.28.1S241.72,123.39,241.6,123.43Z"/><path d="M236.63,95.11a3.75,3.75,0,0,1,2.19,2.42q1.14,3.52-1.89,8.61a45.38,45.38,0,0,1-9.64,10.71l2.13,6.59a82.81,82.81,0,0,0,8.62-7.77,10.74,10.74,0,0,0,2.73-5c0-.26.12-.41.21-.44a.19.19,0,0,1,.21,0,4.3,4.3,0,0,1-.32,1.6,14,14,0,0,1-.86,2.22q-2.07,4.13-8.69,10.2c-.56.54-1,.93-1.24,1.17l1.72,5.27-.42.28-1.68-5.18q-6.33,5.81-8.32,9.41a8.66,8.66,0,0,0-.84,7.17,5,5,0,0,0,2.28,2.94,4.16,4.16,0,0,0,3.49.3c.81-.26,1.18-.49,1.12-.69s-.24-.08-.61.08c-.72.23-1.16.08-1.33-.44a1,1,0,0,1,.25-1,2.33,2.33,0,0,1,1.15-.74c1-.33,1.63-.13,1.86.6a1.48,1.48,0,0,1-.43,1.47,3.93,3.93,0,0,1-1.79,1.12,4.75,4.75,0,0,1-3.95-.33,5.63,5.63,0,0,1-2.57-3.35q-1.31-4,1.28-9.6a18.08,18.08,0,0,1,2.71-4.33,44.4,44.4,0,0,1,5-4.68l-2.13-6.56-.67.51a69.21,69.21,0,0,0-7.58,6.59,9.93,9.93,0,0,0-2.17,4.46,8.88,8.88,0,0,1,.91,1.85c.3.92.25,1.44-.13,1.57s-.59-.13-.78-.72a6.9,6.9,0,0,1-.29-2.42,16.37,16.37,0,0,1-1.3-2.94,6.3,6.3,0,0,1,0-4.22,16.59,16.59,0,0,1,3.37-4.89,22.69,22.69,0,0,1,2.48-2.56.1.1,0,0,1,.11,0c0,.05-.06.18-.23.37a30,30,0,0,0-4.35,5.13,6.75,6.75,0,0,0-1,6.1,16,16,0,0,0,1,2.23q.56-5.61,8.77-12.29,7.63-6.18,8.73-7.26,6.27-6.26,4.71-11.09a3.17,3.17,0,0,0-1.93-2.06,4.86,4.86,0,0,0-3.28,0,7.36,7.36,0,0,0-3.43,2.44,8.64,8.64,0,0,0-1.87,4c-.06.38-.13.59-.21.61s-.19,0-.22-.07a4.74,4.74,0,0,1,.44-2.29A7.8,7.8,0,0,1,233,95.09,5.08,5.08,0,0,1,236.63,95.11Zm3.16,22.12c0,.06,0,.14-.18.25a7.94,7.94,0,0,0-2,2.49,3.15,3.15,0,0,0-.45,2.27c.3.93,1,1.2,2.19.82a10.78,10.78,0,0,0,2.44-1.59,10.9,10.9,0,0,1,3.21-1.85c2.8-.91,4.59-.19,5.35,2.16q1.3,4-1.76,8.76a14.89,14.89,0,0,1-8,6.34,7.35,7.35,0,0,1-4.53.21,3.71,3.71,0,0,1-2.57-2.45c-.56-1.74-.18-3.64,1.15-5.72q.93-1.48,1.41-1.65c.14,0,.22,0,.25.07s0,.1-.13.15q-3.4,3.63-2.33,7a3.45,3.45,0,0,0,2.43,2.31,7,7,0,0,0,4.27-.2,14.47,14.47,0,0,0,7.69-6.15q3-4.65,1.8-8.41a3.27,3.27,0,0,0-1.4-1.89,2.46,2.46,0,0,0-2.14-.2,11.92,11.92,0,0,0-2.94,1.9,9.79,9.79,0,0,1-2.91,1.71,4,4,0,0,1-2.48.1,2,2,0,0,1-1.44-1.3c-.3-.9.12-2.08,1.25-3.54q1.11-1.47,1.59-1.62C239.68,117.12,239.76,117.14,239.79,117.23Z"/><path d="M176.22,98.08c-.4,0-.93-2.65-3.66-2.65-7,0-14.39,15.07-21.67,24.83-3.45,4.68-9.43,10.4-13.12,10.35-2.06,0-3-1.75-3-3.73,0-7.25,8.94-13.14,12.26-19.08a17.57,17.57,0,0,0,2.39-8c0-3.28-1.89-5.39-5-5.39-2.4,0-5.39,1.17-8.48,3.6-4.45,3.46-8.71,10.53-8.71,15.29,0,3.24,1.83,4.46,3.76,4.46,2.63,0,5.88-2,7.34-3.51a16.63,16.63,0,0,0,4.62-8.69c.14-.67.4-.85.6-.85s.33.18.33.5c0,1.48-.93,5.48-5.08,9.8-1.69,1.76-4.92,3.69-7.78,3.69-3.19,0-5.35-2.92-5.35-7.78a18.2,18.2,0,0,1,6-13,16.54,16.54,0,0,1,11.13-4.86c5.29,0,7.45,2.79,7.45,7.06,0,8.42-5.65,13.32-9.54,19.44-1.66,2.65-3.13,5.76-3.13,7.74,0,.9.37,1.8,1.23,1.8,2.6,0,9.51-7.07,11.54-9.9,7.47-10.35,14.32-26.1,22.13-26.1a4.15,4.15,0,0,1,3.95,4.19C176.48,97.81,176.35,98,176.22,98.08Z"/><path d="M125,97.32a4.17,4.17,0,0,1,4-4.19c7.81,0,14.65,15.75,22.13,26.1,2,2.84,8.94,9.9,11.53,9.9.87,0,1.23-.9,1.23-1.8,0-2-1.46-5.08-3.12-7.74-3.89-6.12-9.54-11-9.54-19.44,0-4.27,2.16-7.06,7.45-7.06A16.56,16.56,0,0,1,169.77,98a18.18,18.18,0,0,1,6,13c0,4.86-2.16,7.79-5.35,7.79-2.85,0-6.08-1.94-7.77-3.69-4.16-4.32-5.09-8.33-5.09-9.81,0-.32.14-.5.33-.5s.47.18.6.86a16.79,16.79,0,0,0,4.62,8.68c1.47,1.53,4.72,3.51,7.35,3.51,1.92,0,3.75-1.21,3.75-4.45,0-4.77-4.25-11.84-8.7-15.3-3.1-2.43-6.09-3.6-8.48-3.6-3.12,0-5,2.11-5,5.4a17.46,17.46,0,0,0,2.4,8c3.32,5.94,12.26,11.84,12.26,19.08,0,2-.9,3.74-3,3.74-3.69,0-9.67-5.67-13.13-10.35-7.27-9.77-14.69-24.84-21.66-24.84-2.73,0-3.26,2.65-3.66,2.65C125.14,98,125,97.81,125,97.32Z"/><path d="M109.15,109.09c-.13.38-2.82.07-3.66,2.66-2.15,6.64,9.89,18.34,16.93,28.28,3.38,4.74,7,12.19,5.79,15.68-.64,2-2.59,2.28-4.47,1.66-6.89-2.23-9.73-12.56-14.36-17.56a17.48,17.48,0,0,0-6.83-4.73c-3.13-1-5.72.13-6.69,3.1-.74,2.28-.55,5.48.81,9.17,1.92,5.31,7.32,11.54,11.86,13,3.08,1,4.8-.36,5.39-2.19.82-2.5-.06-6.21-1.06-8.07A16.77,16.77,0,0,0,106,143c-.6-.33-.69-.64-.62-.83s.27-.26.57-.16c1.41.45,4.93,2.58,7.76,7.86,1.14,2.16,2,5.82,1.1,8.54-1,3-4.43,4.18-9,2.68a18.15,18.15,0,0,1-10.51-9.74,16.54,16.54,0,0,1-1.18-12.09c1.63-5,5-6.22,9-4.89,8,2.6,10.93,9.48,15.55,15.07,2,2.41,4.51,4.75,6.39,5.37.86.27,1.82.21,2.09-.62.8-2.46-3.78-11.22-5.85-14-7.53-10.31-20.39-21.69-18-29.12a4.16,4.16,0,0,1,5.2-2.47C109,108.76,109.14,109,109.15,109.09Z"/><path d="M92.59,157.56a4.15,4.15,0,0,1-2.75-5.05c2.41-7.43,19.5-9.07,31.66-13,3.32-1.05,12.17-5.44,13-7.9.26-.83-.48-1.45-1.34-1.73-1.88-.61-5.28-.18-8.32.58-7,1.81-13.43,5.66-21.44,3.06-4.06-1.32-6-4.23-4.42-9.26a16.6,16.6,0,0,1,8.07-9.09,18.22,18.22,0,0,1,14.22-1.7c4.63,1.5,6.74,4.46,5.75,7.5-.88,2.71-3.72,5.18-5.91,6.25-5.39,2.62-9.49,2.27-10.9,1.81-.3-.1-.43-.28-.37-.47s.32-.39,1-.31a16.75,16.75,0,0,0,9.69-1.71c1.9-.92,4.79-3.4,5.61-5.9.59-1.83,0-3.94-3.08-5-4.54-1.47-12.57.39-17.24,3.56-3.27,2.19-5.31,4.67-6,6.94-1,3,.46,5.43,3.58,6.45a17.59,17.59,0,0,0,8.31.18c6.68-1.32,15-8,21.94-5.77,1.88.62,3.27,2,2.64,4-1.1,3.52-8.38,7.45-13.9,9.29-11.54,3.9-28.16,6.29-30.32,12.93-.84,2.59,1.52,3.92,1.39,4.3C93.32,157.66,93.07,157.72,92.59,157.56Z"/><path d="M98.89,176.28c.32.24-.81,2.7,1.4,4.3,5.65,4.1,20.5-3.74,32.13-7.36,5.55-1.75,13.74-2.86,16.7-.66,1.67,1.22,1.36,3.16.2,4.77-4.26,5.86-14.95,5.37-21.14,8.22a17.55,17.55,0,0,0-6.61,5c-1.93,2.66-1.64,5.48.88,7.32,1.94,1.4,5,2.21,9,2.07,5.64-.19,13.24-3.4,16-7.26,1.91-2.62,1.14-4.68-.42-5.81-2.12-1.55-5.92-1.86-8-1.48a16.69,16.69,0,0,0-8.84,4.31c-.51.47-.83.46-1,.34s-.16-.34,0-.6c.87-1.2,4-3.89,9.88-4.94,2.4-.43,6.15-.1,8.46,1.58,2.58,1.88,2.61,5.51-.25,9.44a18.16,18.16,0,0,1-12.51,7A16.61,16.61,0,0,1,123,199.94c-4.27-3.11-4.38-6.64-1.87-10.09,5-6.81,12.4-7.46,19.14-10.12,2.91-1.18,5.92-2.83,7.08-4.43.53-.73.76-1.67.06-2.18-2.09-1.52-11.84.13-15.15,1.23-12.13,4-26.92,12.7-33.24,8.11a4.15,4.15,0,0,1-.74-5.71C98.52,176.35,98.76,176.24,98.89,176.28Z"/><path d="M139.88,207a4.16,4.16,0,0,1-5.66,1.07c-6.32-4.59-2.6-21.36-2.57-34.13,0-3.48-1.41-13.26-3.51-14.79-.7-.5-1.52,0-2,.74-1.17,1.6-1.81,5-2,8.1-.46,7.23,1.23,14.52-3.71,21.33-2.52,3.46-5.9,4.44-10.18,1.34A16.64,16.64,0,0,1,104,180.18a18.23,18.23,0,0,1,2.78-14.06c2.86-3.93,6.32-5,8.9-3.15,2.31,1.68,3.79,5.14,4.13,7.56.82,5.94-.78,9.72-1.66,10.92-.18.26-.4.33-.56.21s-.27-.42,0-1a16.74,16.74,0,0,0,1.37-9.75c-.28-2.09-1.75-5.61-3.88-7.15-1.56-1.14-3.75-1.23-5.66,1.39-2.8,3.86-3.51,12.08-2,17.5,1.08,3.78,2.81,6.49,4.75,7.89,2.52,1.84,5.3,1.24,7.23-1.42a17.58,17.58,0,0,0,2.75-7.84c.8-6.76-3-16.79,1.29-22.65,1.16-1.6,2.92-2.49,4.59-1.28,3,2.13,4.49,10.27,4.53,16.09.15,12.17-2.71,28.73,2.93,32.83,2.21,1.6,4.2-.24,4.52,0C140.19,206.34,140.17,206.6,139.88,207Z"/><path d="M159.63,206.8c.32-.24,2.31,1.6,4.52,0,5.64-4.1,2.78-20.66,2.92-32.83.05-5.82,1.53-14,4.54-16.09,1.67-1.21,3.43-.32,4.59,1.28,4.26,5.86.49,15.88,1.29,22.64a17.58,17.58,0,0,0,2.75,7.85c1.93,2.66,4.71,3.26,7.23,1.42,1.94-1.4,3.67-4.11,4.74-7.89,1.57-5.42.86-13.64-2-17.5-1.9-2.62-4.09-2.53-5.65-1.39-2.13,1.54-3.6,5.06-3.88,7.15a16.74,16.74,0,0,0,1.37,9.75c.29.62.18.92,0,1s-.37.05-.56-.21c-.87-1.2-2.47-5-1.65-10.92.34-2.42,1.81-5.88,4.13-7.56,2.58-1.87,6-.78,8.9,3.16a18.2,18.2,0,0,1,2.78,14.05,16.64,16.64,0,0,1-6.15,10.48c-4.28,3.1-7.67,2.12-10.18-1.34-4.94-6.81-3.26-14.1-3.71-21.34-.21-3.12-.86-6.49-2-8.09-.53-.73-1.35-1.24-2.05-.74-2.1,1.53-3.54,11.31-3.51,14.79,0,12.77,3.75,29.53-2.57,34.12a4.15,4.15,0,0,1-5.66-1.06C159.57,207.17,159.55,206.91,159.63,206.8Z"/><path d="M201.51,177.31a4.17,4.17,0,0,1-.74,5.72c-6.32,4.59-21.11-4.13-33.25-8.11-3.3-1.1-13.05-2.75-15.15-1.23-.7.51-.46,1.45.07,2.18,1.16,1.6,4.17,3.25,7.07,4.42,6.75,2.67,14.2,3.32,19.15,10.12,2.51,3.46,2.4,7-1.87,10.09a16.59,16.59,0,0,1-11.87,2.62,18.2,18.2,0,0,1-12.51-7c-2.85-3.93-2.83-7.56-.24-9.44,2.31-1.68,6.05-2,8.46-1.59,5.9,1.06,9,3.75,9.88,5,.18.26.18.48,0,.6s-.48.13-1-.34A16.73,16.73,0,0,0,160.7,186c-2.08-.38-5.88-.07-8,1.47-1.56,1.14-2.32,3.19-.42,5.82,2.81,3.85,10.4,7.07,16,7.25,3.93.15,7-.66,9-2.06,2.53-1.84,2.82-4.67.89-7.32a17.51,17.51,0,0,0-6.62-5c-6.18-2.85-16.88-2.37-21.13-8.23-1.17-1.6-1.47-3.55.19-4.76,3-2.2,11.16-1.09,16.71.66,11.62,3.62,26.48,11.46,32.13,7.36,2.2-1.6,1.07-4.06,1.39-4.3C201,176.81,201.22,176.91,201.51,177.31Z"/><path d="M207.42,158.47c-.13-.38,2.23-1.71,1.39-4.3-2.16-6.64-18.78-9-30.32-12.93-5.52-1.84-12.8-5.77-13.9-9.29-.63-2,.76-3.35,2.64-4,6.89-2.23,15.26,4.45,21.94,5.77a17.59,17.59,0,0,0,8.31-.18c3.12-1,4.55-3.47,3.58-6.45-.74-2.27-2.77-4.75-6-6.94-4.67-3.17-12.7-5-17.24-3.56-3.08,1-3.67,3.12-3.08,4.95.81,2.5,3.7,5,5.61,5.9a16.75,16.75,0,0,0,9.69,1.71c.68-.08.94.12,1,.31s-.07.37-.37.47c-1.41.46-5.51.81-10.9-1.81-2.19-1.07-5-3.54-5.91-6.25-1-3,1.12-6,5.75-7.5a18.22,18.22,0,0,1,14.22,1.7,16.54,16.54,0,0,1,8.06,9.09c1.64,5-.35,7.94-4.41,9.26-8,2.6-14.42-1.25-21.44-3.06-3-.76-6.44-1.19-8.33-.58-.85.28-1.59.9-1.33,1.73.81,2.46,9.66,6.85,13,7.9,12.16,3.92,29.25,5.56,31.66,13a4.15,4.15,0,0,1-2.75,5C207.75,158.64,207.5,158.58,207.42,158.47Z"/><path d="M192.32,109.52a4.16,4.16,0,0,1,5.2,2.47c2.41,7.43-10.45,18.81-18,29.12-2.07,2.8-6.65,11.56-5.85,14,.26.83,1.23.9,2.09.62,1.88-.62,4.38-3,6.39-5.37,4.62-5.59,7.54-12.47,15.54-15.07,4.07-1.32,7.39-.13,9,4.89a16.53,16.53,0,0,1-1.18,12.09A18.18,18.18,0,0,1,195,162c-4.62,1.5-8.07.35-9-2.68-.89-2.72,0-6.38,1.1-8.54,2.83-5.28,6.35-7.41,7.76-7.86.3-.1.51,0,.57.16s0,.5-.63.83A16.81,16.81,0,0,0,188,151c-1,1.86-1.88,5.57-1.07,8.07.6,1.83,2.32,3.2,5.4,2.19,4.54-1.47,9.94-7.7,11.86-13,1.36-3.7,1.55-6.9.81-9.18-1-3-3.57-4.12-6.69-3.1a17.51,17.51,0,0,0-6.83,4.74c-4.63,5-7.47,15.32-14.36,17.55-1.89.62-3.83.31-4.47-1.65-1.18-3.5,2.41-10.95,5.79-15.69,7-9.94,19.08-21.64,16.93-28.28-.85-2.59-3.54-2.28-3.66-2.66C191.67,109.87,191.85,109.68,192.32,109.52Z"/><circle class="cls-1" cx="150.45" cy="217.63" r="16"/><circle cx="150.54" cy="217.75" r="10"/><circle class="cls-1" cx="214.82" cy="170.45" r="16"/><circle cx="214.96" cy="170.41" r="10"/><circle class="cls-1" cx="189.84" cy="94.65" r="16"/><circle cx="189.85" cy="94.51" r="10"/><circle class="cls-1" cx="110.04" cy="94.99" r="16"/><circle cx="109.9" cy="94.94" r="10"/><circle class="cls-1" cx="85.69" cy="170.99" r="16"/><circle cx="85.6" cy="171.11" r="10"/><path d="M179.47,243.58a6.58,6.58,0,0,1-1.46.84,12.31,12.31,0,0,1-7.39,2.47,32.21,32.21,0,0,1-10.65-2c-.65.54-1.3,1.06-1.93,1.55l-.31-.15,1.92-1.5-.62-.18q-1.72-.48-4.72-1.38a19.82,19.82,0,0,0-2.6-.66c-3.19-.55-5.49-.28-6.91.83a4.67,4.67,0,0,0-1.8,2.87,3.66,3.66,0,0,0,.71,3,3.3,3.3,0,0,0,.64.6c.24.18.39.24.46.19s.05-.12,0-.21l-.13-.13-.23-.25c-.32-.41-.32-.73,0-1a.82.82,0,0,1,.76-.09,1.66,1.66,0,0,1,.82.59c.44.56.44,1,0,1.35a1.21,1.21,0,0,1-1.21.11,2.87,2.87,0,0,1-1.32-1,4,4,0,0,1-.8-3.28,4.89,4.89,0,0,1,1.89-3.07c1.83-1.44,4.68-1.82,8.53-1.17a70.68,70.68,0,0,1,7.62,2l3.82-3a69,69,0,0,0-7.88-3.81,5.52,5.52,0,0,0-3.61.18,7.91,7.91,0,0,1-1.15,1.12c-.52.41-.86.5-1,.29s0-.44.36-.74a4.64,4.64,0,0,1,1.68-.86,9.1,9.1,0,0,1,1.54-1.66,4.34,4.34,0,0,1,2.66-1,11.3,11.3,0,0,1,3.84.91,15.46,15.46,0,0,1,2.77,1.2.08.08,0,0,1,0,.11s-.13,0-.28-.08a20.88,20.88,0,0,0-4.55-1.7,4.79,4.79,0,0,0-4.31.81,9.32,9.32,0,0,0-1.23,1.22q4.68-1.74,12.17,2.9a43.06,43.06,0,0,0,7.6,4,8.1,8.1,0,0,0,4.82.35,8.68,8.68,0,0,0,1.53-1.68,6,6,0,0,1,.54-.68c.14-.11.28-.08.4.08C180.7,242.3,180.39,242.86,179.47,243.58Zm-11.62,4.35s-.13,0-.28,0c-1.75-.78-2.95-.91-3.61-.39s-.62,1-.1,1.68a7.06,7.06,0,0,0,1.63,1.21,8,8,0,0,1,2.17,1.79,3.66,3.66,0,0,1,.91,2.39,2.57,2.57,0,0,1-1.08,2q-2.37,1.84-6.28,1a10.21,10.21,0,0,1-6.13-3.68,5.33,5.33,0,0,1-1.27-3,2.72,2.72,0,0,1,1.09-2.36,4.78,4.78,0,0,1,4.41-.56,9,9,0,0,1,1.65.64,3.63,3.63,0,0,1,1.13.73c.07.09.08.16,0,.21s-.1,0-.19-.08a7.71,7.71,0,0,0-3.69-1.41,4.13,4.13,0,0,0-3.12.66,2.55,2.55,0,0,0-1,2.2,4.77,4.77,0,0,0,1.14,2.79,10,10,0,0,0,5.94,3.61c2.53.56,4.55.26,6.07-.93a2.5,2.5,0,0,0,1-1.53,1.87,1.87,0,0,0-.35-1.58,4.59,4.59,0,0,0-1.31-1.05,9.82,9.82,0,0,1-2.56-1.92,3.3,3.3,0,0,1-.76-1.71,1.37,1.37,0,0,1,.52-1.28c.6-.47,1.65-.45,3.15.08a2.68,2.68,0,0,1,.93.42C167.9,247.83,167.9,247.89,167.85,247.93Zm4.23-3.83a31.77,31.77,0,0,1-7.27-3L161,244.06a37.7,37.7,0,0,0,9.94,2.2,10.56,10.56,0,0,0,6.38-1.74Q175.7,245.09,172.08,244.1Z"/><path d="M120.43,241.9c.12-.16.25-.19.39-.08a6,6,0,0,1,.54.68,9,9,0,0,0,1.54,1.68,8.1,8.1,0,0,0,4.82-.35,43.41,43.41,0,0,0,7.6-4q7.49-4.65,12.17-2.9a8.77,8.77,0,0,0-1.24-1.22,4.78,4.78,0,0,0-4.31-.81,20.79,20.79,0,0,0-4.54,1.7c-.16.08-.25.1-.29.08a.08.08,0,0,1,0-.11,15.06,15.06,0,0,1,2.77-1.2,11.31,11.31,0,0,1,3.83-.91,4.32,4.32,0,0,1,2.66,1,8.77,8.77,0,0,1,1.55,1.66,4.64,4.64,0,0,1,1.68.86c.38.3.5.55.36.74s-.51.12-1-.29a8.47,8.47,0,0,1-1.16-1.12,5.51,5.51,0,0,0-3.61-.18,69.15,69.15,0,0,0-7.87,3.81l3.82,3a70.68,70.68,0,0,1,7.62-2c3.85-.65,6.69-.27,8.53,1.17a4.83,4.83,0,0,1,1.88,3.07,4,4,0,0,1-.79,3.28,2.87,2.87,0,0,1-1.32,1,1.23,1.23,0,0,1-1.22-.11c-.43-.34-.42-.79,0-1.35a1.64,1.64,0,0,1,.81-.59.84.84,0,0,1,.77.09c.31.24.3.56,0,1l-.23.25a.53.53,0,0,0-.13.13c-.08.09-.08.16,0,.21s.22,0,.46-.19a3,3,0,0,0,.63-.6,3.63,3.63,0,0,0,.72-3,4.67,4.67,0,0,0-1.8-2.87c-1.42-1.11-3.73-1.38-6.91-.83a19.44,19.44,0,0,0-2.6.66q-3,.9-4.72,1.38l-.63.18,1.93,1.5-.31.15c-.63-.49-1.28-1-1.93-1.55a32.3,32.3,0,0,1-10.65,2,12.31,12.31,0,0,1-7.39-2.47,6.44,6.44,0,0,1-1.47-.84Q120,242.5,120.43,241.9Zm3,2.62a10.54,10.54,0,0,0,6.38,1.74,37.64,37.64,0,0,0,9.93-2.2L136,241.12a31.77,31.77,0,0,1-7.27,3Q125.12,245.09,123.45,244.52Zm9.51,3.24a2.68,2.68,0,0,1,.93-.42c1.5-.53,2.55-.55,3.15-.08a1.37,1.37,0,0,1,.51,1.28,3.2,3.2,0,0,1-.75,1.71,10,10,0,0,1-2.56,1.92,4.8,4.8,0,0,0-1.32,1.05,1.86,1.86,0,0,0-.34,1.58,2.5,2.5,0,0,0,1,1.53c1.52,1.19,3.54,1.49,6.06.93a10.08,10.08,0,0,0,5.95-3.61,4.76,4.76,0,0,0,1.13-2.79,2.52,2.52,0,0,0-1-2.2,4.15,4.15,0,0,0-3.13-.66,7.79,7.79,0,0,0-3.69,1.41c-.09.08-.15.1-.18.08s0-.12,0-.21a3.51,3.51,0,0,1,1.13-.73,8.52,8.52,0,0,1,1.65-.64,4.78,4.78,0,0,1,4.41.56,2.71,2.71,0,0,1,1.08,2.36,5.2,5.2,0,0,1-1.27,3,10.19,10.19,0,0,1-6.12,3.68q-3.91.84-6.28-1a2.58,2.58,0,0,1-1.09-2,3.67,3.67,0,0,1,.92-2.39,8,8,0,0,1,2.16-1.79,7.2,7.2,0,0,0,1.64-1.21c.52-.67.48-1.23-.1-1.68s-1.87-.39-3.62.39c-.14.06-.23.07-.27,0S132.9,247.83,133,247.76Z"/><path d="M248.47,150.87a6.25,6.25,0,0,1,.35,1.66,12.36,12.36,0,0,1,.07,7.78,32.31,32.31,0,0,1-5.19,9.51c.31.79.6,1.57.88,2.33l-.24.24-.84-2.29-.36.53q-1,1.5-2.77,4.06a19.92,19.92,0,0,0-1.43,2.28q-2.26,4.28-1.34,6.83a4.6,4.6,0,0,0,2.17,2.59,3.61,3.61,0,0,0,3.1.26,3,3,0,0,0,.77-.42c.24-.17.34-.3.31-.38s-.09-.09-.19,0a.65.65,0,0,0-.17.09l-.31.14c-.48.18-.79.08-.93-.29a.8.8,0,0,1,.16-.75,1.58,1.58,0,0,1,.81-.6c.67-.24,1.1-.11,1.29.4a1.25,1.25,0,0,1-.28,1.2,2.92,2.92,0,0,1-1.36.94,4,4,0,0,1-3.36-.26,4.88,4.88,0,0,1-2.35-2.74q-1.19-3.28,1.53-8.47a71.11,71.11,0,0,1,4.25-6.63l-1.66-4.56a69.13,69.13,0,0,0-6,6.31,5.51,5.51,0,0,0-1,3.49,8.32,8.32,0,0,1,.71,1.45c.23.61.21,1-.05,1.06s-.42-.11-.58-.56a4.55,4.55,0,0,1-.3-1.87,8.71,8.71,0,0,1-1.11-2,4.43,4.43,0,0,1-.13-2.84A11.25,11.25,0,0,1,235,166a14.81,14.81,0,0,1,2-2.26.08.08,0,0,1,.1.06s0,.12-.17.24a21.21,21.21,0,0,0-3,3.8,4.78,4.78,0,0,0-.56,4.35,8.42,8.42,0,0,0,.79,1.55q-.23-5,6.51-10.68a42.87,42.87,0,0,0,6.11-6,8,8,0,0,0,1.82-4.48,8.3,8.3,0,0,0-1.12-2,7.77,7.77,0,0,1-.48-.72c-.06-.17,0-.28.2-.35Q247.87,149.22,248.47,150.87Zm-1.79,7.2a32.39,32.39,0,0,1-5.08,6l1.63,4.49a37.38,37.38,0,0,0,5.16-8.77,10.54,10.54,0,0,0,.32-6.61C248.73,154.34,248.05,156,246.68,158.07Zm2.34,5.2s0,.13-.13.25c-1.28,1.42-1.78,2.53-1.49,3.32s.78.9,1.57.61a7.37,7.37,0,0,0,1.66-1.18,8,8,0,0,1,2.37-1.51,3.67,3.67,0,0,1,2.55-.13,2.57,2.57,0,0,1,1.54,1.65q1,2.82-1,6.27a10.2,10.2,0,0,1-5.39,4.69,5.17,5.17,0,0,1-3.28.27,2.69,2.69,0,0,1-1.91-1.76,4.78,4.78,0,0,1,.82-4.36,9.18,9.18,0,0,1,1.13-1.38,3.75,3.75,0,0,1,1-.85c.11,0,.17,0,.2.05s0,.09-.13.15a7.8,7.8,0,0,0-2.48,3.08,4.11,4.11,0,0,0-.34,3.17,2.54,2.54,0,0,0,1.79,1.63,4.8,4.8,0,0,0,3-.22,10,10,0,0,0,5.27-4.54c1.32-2.23,1.65-4.24,1-6a2.52,2.52,0,0,0-1.15-1.4,1.88,1.88,0,0,0-1.61-.16,4.7,4.7,0,0,0-1.41.93,9.94,9.94,0,0,1-2.61,1.84,3.31,3.31,0,0,1-1.87.19,1.39,1.39,0,0,1-1.06-.89q-.39-1.08,1-3a2.65,2.65,0,0,1,.7-.75C248.94,163.19,249,163.2,249,163.27Z"/><path d="M228.62,206.51c-.11-.17-.1-.31,0-.41a6.2,6.2,0,0,1,.82-.3,8.55,8.55,0,0,0,2.06-.94,8,8,0,0,0,1.16-4.69,42,42,0,0,0-1.42-8.45q-2.1-8.57,1-12.48a9.06,9.06,0,0,0-1.54.8,4.8,4.8,0,0,0-2.11,3.85,21.75,21.75,0,0,0,.21,4.85c0,.17,0,.27,0,.29a.08.08,0,0,1-.11,0,15.84,15.84,0,0,1-.28-3,11.11,11.11,0,0,1,.32-3.93,4.34,4.34,0,0,1,1.77-2.22,9.3,9.3,0,0,1,2.06-1,4.47,4.47,0,0,1,1.34-1.33c.4-.27.67-.31.8-.11s0,.52-.58.89a8.43,8.43,0,0,1-1.42.75,5.46,5.46,0,0,0-1.29,3.38,67.42,67.42,0,0,0,1.19,8.67l4-2.72a68.52,68.52,0,0,1,.46-7.86c.56-3.86,1.81-6.45,3.74-7.75a4.85,4.85,0,0,1,3.51-.84,4,4,0,0,1,2.87,1.76,3,3,0,0,1,.55,1.57,1.25,1.25,0,0,1-.48,1.13c-.46.3-.88.16-1.28-.44a1.68,1.68,0,0,1-.31-1,.81.81,0,0,1,.32-.69c.33-.22.63-.12.92.3l.17.3a.63.63,0,0,0,.08.17c.07.09.13.12.19.08s.06-.21,0-.5a3.38,3.38,0,0,0-.38-.79,3.63,3.63,0,0,0-2.66-1.61,4.6,4.6,0,0,0-3.28.82q-2.25,1.51-2.92,6.32a17.71,17.71,0,0,0-.19,2.67q-.06,3.13-.15,4.92v.65l2-1.37.05.34c-.67.45-1.36.91-2.08,1.36a32.12,32.12,0,0,1-1.39,10.75,12.31,12.31,0,0,1-4.63,6.26,6.53,6.53,0,0,1-1.26,1.13C229.54,206.82,228.91,206.93,228.62,206.51Zm3.43-2.07a10.51,10.51,0,0,0,3.62-5.53,37,37,0,0,0,1-10.13l-4,2.67a32.08,32.08,0,0,1,.58,7.84Q233.1,203,232.05,204.44Zm6-8a2.79,2.79,0,0,1-.12-1c0-1.58.27-2.59.9-3a1.4,1.4,0,0,1,1.38-.09,3.19,3.19,0,0,1,1.4,1.25,9.82,9.82,0,0,1,1,3,4.7,4.7,0,0,0,.6,1.58,1.87,1.87,0,0,0,1.39.82,2.54,2.54,0,0,0,1.76-.46q2.39-1.6,2.75-5.48a10.06,10.06,0,0,0-1.59-6.76,4.82,4.82,0,0,0-2.31-2,2.54,2.54,0,0,0-2.4.27,4.15,4.15,0,0,0-1.59,2.77,7.77,7.77,0,0,0,.2,3.94c.05.11.05.18,0,.2s-.13,0-.19-.08a3.5,3.5,0,0,1-.35-1.3,8.65,8.65,0,0,1-.1-1.77,4.79,4.79,0,0,1,1.9-4,2.69,2.69,0,0,1,2.58-.3,5.28,5.28,0,0,1,2.5,2.15,10.2,10.2,0,0,1,1.6,7c-.27,2.65-1.24,4.54-2.89,5.66a2.59,2.59,0,0,1-2.22.42,3.66,3.66,0,0,1-2-1.6,7.85,7.85,0,0,1-1-2.62,7.12,7.12,0,0,0-.65-1.93q-.71-1-1.62-.42c-.7.47-.95,1.65-.75,3.56,0,.15,0,.24-.05.27S238.12,196.47,238.07,196.4Z"/><path d="M181.62,56.6a6.34,6.34,0,0,1,1.68.18,12.33,12.33,0,0,1,7.43,2.34A32.29,32.29,0,0,1,198.17,67c.85-.06,1.67-.1,2.48-.12l.16.3-2.44.08.39.52q1.13,1.39,3,3.89a21.32,21.32,0,0,0,1.72,2.06q3.38,3.48,6.08,3.39a4.62,4.62,0,0,0,3.14-1.27,3.6,3.6,0,0,0,1.2-2.86,3.17,3.17,0,0,0-.15-.87c-.1-.28-.18-.42-.27-.42s-.11.06-.1.18a.42.42,0,0,0,0,.18l0,.34c0,.51-.17.78-.56.79a.78.78,0,0,1-.67-.38,1.63,1.63,0,0,1-.31-1c0-.71.23-1.08.78-1.1a1.2,1.2,0,0,1,1.05.63,3,3,0,0,1,.47,1.59,3.94,3.94,0,0,1-1.28,3.11,4.8,4.8,0,0,1-3.34,1.38c-2.32.08-4.85-1.27-7.58-4.07a69.83,69.83,0,0,1-5-6.09l-4.85.17a67.54,67.54,0,0,0,4.14,7.71,5.56,5.56,0,0,0,3,2,7.9,7.9,0,0,1,1.59-.23c.66,0,1,.1,1,.37s-.23.37-.72.39a4.76,4.76,0,0,1-1.86-.29,9.17,9.17,0,0,1-2.23.43,4.31,4.31,0,0,1-2.74-.75,11.45,11.45,0,0,1-2.57-3,15.75,15.75,0,0,1-1.54-2.59.08.08,0,0,1,.09-.07s.1.07.18.23a21.3,21.3,0,0,0,2.68,4,4.76,4.76,0,0,0,4,1.88,8.27,8.27,0,0,0,1.72-.26q-4.82-1.33-8.15-9.5a42.53,42.53,0,0,0-3.82-7.67,8,8,0,0,0-3.7-3.11,8.68,8.68,0,0,0-2.22.45,6.4,6.4,0,0,1-.84.23c-.18,0-.27-.09-.28-.29C179.88,56.91,180.45,56.64,181.62,56.6Zm6.29,3.93A32.17,32.17,0,0,1,192,67.21l4.77-.17a37.34,37.34,0,0,0-6.75-7.61,10.47,10.47,0,0,0-6.18-2.35Q185.56,57.61,187.91,60.53Zm5.67-.62s.11.07.2.2c.95,1.66,1.85,2.47,2.69,2.44s1.1-.46,1.07-1.3a6.85,6.85,0,0,0-.61-1.94,8,8,0,0,1-.7-2.73,3.69,3.69,0,0,1,.66-2.46,2.56,2.56,0,0,1,2-1q3-.1,5.67,2.87a10.25,10.25,0,0,1,2.8,6.58,5.31,5.31,0,0,1-.76,3.2,2.74,2.74,0,0,1-2.27,1.28A4.77,4.77,0,0,1,200.48,65a8,8,0,0,1-1-1.49A3.64,3.64,0,0,1,199,62.2c0-.11,0-.17.11-.17s.07,0,.1.17a7.79,7.79,0,0,0,2.16,3.31,4.2,4.2,0,0,0,2.91,1.31,2.53,2.53,0,0,0,2.1-1.2,4.76,4.76,0,0,0,.73-2.93,10.09,10.09,0,0,0-2.69-6.41q-2.56-2.91-5.45-2.82a2.54,2.54,0,0,0-1.69.67,1.87,1.87,0,0,0-.65,1.48,5,5,0,0,0,.45,1.63,10,10,0,0,1,.94,3,3.19,3.19,0,0,1-.4,1.83,1.4,1.4,0,0,1-1.17.74c-.76,0-1.59-.62-2.5-1.92a2.77,2.77,0,0,1-.5-.89C193.48,60,193.51,59.91,193.58,59.91Z"/><path d="M228.4,92.67c-.2.06-.32,0-.37-.17a7.18,7.18,0,0,1,0-.87,8.66,8.66,0,0,0-.25-2.26,8.05,8.05,0,0,0-4.11-2.55,41.79,41.79,0,0,0-8.47-1.26q-8.79-.65-11.55-4.82a8.22,8.22,0,0,0,.28,1.72,4.78,4.78,0,0,0,3,3.19,21.25,21.25,0,0,0,4.67,1.3c.18,0,.27.06.28.1s0,.08,0,.11a16.3,16.3,0,0,1-2.95-.67A11.34,11.34,0,0,1,205.22,85a4.44,4.44,0,0,1-1.56-2.37,8.73,8.73,0,0,1-.27-2.26,4.6,4.6,0,0,1-.86-1.68c-.13-.47-.08-.74.15-.8s.48.2.66.83a8.68,8.68,0,0,1,.28,1.58,5.51,5.51,0,0,0,2.81,2.27A69.45,69.45,0,0,0,215,84.1l-1.34-4.66a70.13,70.13,0,0,1-7.33-2.87q-5.25-2.59-6.22-5.95a4.85,4.85,0,0,1,.29-3.6A4,4,0,0,1,203,64.83a2.94,2.94,0,0,1,1.66,0,1.21,1.21,0,0,1,.93.8c.15.52-.12.89-.81,1.08a1.58,1.58,0,0,1-1,0,.8.8,0,0,1-.56-.52q-.17-.57.57-.78l.34-.07.18,0c.11,0,.16-.08.14-.15S204.25,65,204,65a3.15,3.15,0,0,0-.87.12,3.66,3.66,0,0,0-2.36,2,4.61,4.61,0,0,0-.23,3.38q.75,2.59,5.1,4.73a19.07,19.07,0,0,0,2.49,1c2,.69,3.52,1.24,4.63,1.66l.61.22-.67-2.35.34.06c.22.77.44,1.57.65,2.4a32.29,32.29,0,0,1,9.79,4.64A12.33,12.33,0,0,1,228,89.23a6.26,6.26,0,0,1,.69,1.54C229,91.9,228.89,92.53,228.4,92.67Zm-6.7-12.11a2.77,2.77,0,0,1-1-.2c-1.52-.46-2.38-1.06-2.59-1.79a1.39,1.39,0,0,1,.33-1.34,3.2,3.2,0,0,1,1.62-.94,9.83,9.83,0,0,1,3.2-.05,4.81,4.81,0,0,0,1.68-.08,1.86,1.86,0,0,0,1.21-1.07,2.5,2.5,0,0,0,.11-1.81q-.8-2.77-4.36-4.32a10,10,0,0,0-6.92-.57A4.74,4.74,0,0,0,212.41,70a2.55,2.55,0,0,0-.49,2.37,4.2,4.2,0,0,0,2.15,2.37,7.81,7.81,0,0,0,3.81,1c.12,0,.18,0,.19.05s0,.12-.13.16a3.7,3.7,0,0,1-1.34-.08,8.38,8.38,0,0,1-1.72-.45,4.76,4.76,0,0,1-3.23-3,2.67,2.67,0,0,1,.51-2.54A5.27,5.27,0,0,1,215,68.11a10.21,10.21,0,0,1,7.12.63q3.66,1.62,4.48,4.5a2.56,2.56,0,0,1-.28,2.24,3.64,3.64,0,0,1-2.14,1.39,8.09,8.09,0,0,1-2.8.18,7,7,0,0,0-2,0c-.81.23-1.11.7-.91,1.41s1.29,1.42,3.16,1.82c.15,0,.23.07.25.12S221.79,80.53,221.7,80.56Zm5.79,8.21a10.44,10.44,0,0,0-4.14-5.15A37.05,37.05,0,0,0,214,79.55l1.32,4.59A32,32,0,0,1,223,86Q226.48,87.33,227.49,88.77Z"/><path d="M71.3,91.05A6.72,6.72,0,0,1,72,89.5a12.39,12.39,0,0,1,4.53-6.33,31.82,31.82,0,0,1,9.79-4.65c.21-.82.43-1.62.65-2.4l.34-.06-.68,2.35.61-.21q1.68-.65,4.63-1.66a20.59,20.59,0,0,0,2.49-1q4.37-2.13,5.1-4.74a4.66,4.66,0,0,0-.22-3.38,3.65,3.65,0,0,0-2.36-2,3.26,3.26,0,0,0-.87-.12q-.45,0-.48.12c0,.07,0,.13.13.16l.19,0,.33.07c.49.14.69.4.58.77a.79.79,0,0,1-.57.52,1.62,1.62,0,0,1-1,0q-1-.3-.81-1.08a1.22,1.22,0,0,1,.92-.81,3,3,0,0,1,1.66,0,4,4,0,0,1,2.57,2.18,4.86,4.86,0,0,1,.28,3.6q-1,3.36-6.21,6a71,71,0,0,1-7.34,2.86l-1.34,4.66a64.89,64.89,0,0,0,8.61-1.55,5.51,5.51,0,0,0,2.82-2.26A10.06,10.06,0,0,1,96.61,79c.18-.63.41-.9.67-.83s.28.33.14.8a4.59,4.59,0,0,1-.85,1.68,9.07,9.07,0,0,1-.28,2.26,4.26,4.26,0,0,1-1.56,2.37,11.22,11.22,0,0,1-3.64,1.52,14.79,14.79,0,0,1-2.94.66.07.07,0,0,1-.05-.1s.11-.08.28-.11a20.62,20.62,0,0,0,4.68-1.29,4.8,4.8,0,0,0,3-3.19A8.94,8.94,0,0,0,96.35,81q-2.76,4.17-11.55,4.81a43.28,43.28,0,0,0-8.48,1.26,8.07,8.07,0,0,0-4.1,2.56A8.93,8.93,0,0,0,72,91.91a6.38,6.38,0,0,1,0,.87c-.05.17-.18.22-.37.16C71.07,92.8,71,92.17,71.3,91.05ZM77,86.28a31.65,31.65,0,0,1,7.64-1.86l1.31-4.59a37.81,37.81,0,0,0-9.33,4.06,10.53,10.53,0,0,0-4.14,5.16Q73.48,87.61,77,86.28Zm1.17-5.58s.1-.09.25-.13c1.87-.4,2.92-1,3.15-1.81s-.1-1.18-.9-1.42a7.37,7.37,0,0,0-2,0,7.94,7.94,0,0,1-2.81-.17,3.71,3.71,0,0,1-2.14-1.4,2.56,2.56,0,0,1-.28-2.23q.83-2.89,4.49-4.5A10.21,10.21,0,0,1,85,68.39,5.24,5.24,0,0,1,87.8,70.1a2.75,2.75,0,0,1,.51,2.55,4.82,4.82,0,0,1-3.23,3,10.14,10.14,0,0,1-1.72.45,3.62,3.62,0,0,1-1.34.07c-.12,0-.16-.08-.14-.15s.08-.06.19,0a7.78,7.78,0,0,0,3.82-1A4.18,4.18,0,0,0,88,72.62a2.5,2.5,0,0,0-.49-2.36A4.78,4.78,0,0,0,85,68.66a10.06,10.06,0,0,0-6.93.58c-2.37,1-3.83,2.46-4.36,4.31a2.55,2.55,0,0,0,.11,1.81A1.9,1.9,0,0,0,75,76.44a4.93,4.93,0,0,0,1.69.07,10.06,10.06,0,0,1,3.19,0,3.21,3.21,0,0,1,1.62,1,1.38,1.38,0,0,1,.34,1.33c-.21.74-1.08,1.34-2.6,1.79a2.52,2.52,0,0,1-1,.2C78.16,80.81,78.13,80.76,78.15,80.7Z"/><path d="M120.06,57.7c0,.21-.1.31-.27.3a5.62,5.62,0,0,1-.84-.23,8.74,8.74,0,0,0-2.23-.46A8,8,0,0,0,113,60.43a41.87,41.87,0,0,0-3.82,7.67q-3.33,8.16-8.15,9.5a9.74,9.74,0,0,0,1.72.26,4.79,4.79,0,0,0,4-1.88,20.78,20.78,0,0,0,2.67-4c.08-.16.15-.24.19-.24s.08,0,.08.08a14.92,14.92,0,0,1-1.54,2.59,11.26,11.26,0,0,1-2.56,3,4.31,4.31,0,0,1-2.74.75,8.78,8.78,0,0,1-2.23-.44,4.63,4.63,0,0,1-1.87.3c-.48,0-.72-.15-.71-.39s.34-.4,1-.37a8.68,8.68,0,0,1,1.6.22,5.49,5.49,0,0,0,3-2,68.37,68.37,0,0,0,4.13-7.71l-4.84-.17a71.75,71.75,0,0,1-5,6.09q-4.1,4.18-7.59,4.07A4.87,4.87,0,0,1,87,76.37a4,4,0,0,1-1.29-3.12,2.93,2.93,0,0,1,.48-1.59,1.21,1.21,0,0,1,1-.62c.55,0,.81.38.78,1.1a1.66,1.66,0,0,1-.31,1,.81.81,0,0,1-.67.38c-.4,0-.58-.28-.57-.79l0-.34a.42.42,0,0,0,0-.18c0-.12,0-.18-.1-.18s-.18.14-.27.42a3.17,3.17,0,0,0-.15.86,3.61,3.61,0,0,0,1.19,2.87,4.61,4.61,0,0,0,3.15,1.26c1.8.07,3.83-1.06,6.07-3.39a18.66,18.66,0,0,0,1.73-2c1.25-1.67,2.26-3,3-3.89l.4-.52-2.44-.08.16-.31c.8,0,1.63.07,2.48.13a32.29,32.29,0,0,1,7.44-7.88,12.31,12.31,0,0,1,7.43-2.34,6.34,6.34,0,0,1,1.68-.18C119.51,56.92,120.08,57.19,120.06,57.7Zm-13.58,2.63a3.14,3.14,0,0,1-.5.89c-.91,1.3-1.74,1.94-2.51,1.91a1.37,1.37,0,0,1-1.16-.73,3.11,3.11,0,0,1-.4-1.83,9.65,9.65,0,0,1,.94-3.06,4.88,4.88,0,0,0,.45-1.62,1.87,1.87,0,0,0-.65-1.48,2.52,2.52,0,0,0-1.69-.67q-2.88-.1-5.45,2.82A10,10,0,0,0,92.82,63a4.78,4.78,0,0,0,.73,2.93,2.54,2.54,0,0,0,2.09,1.19,4.16,4.16,0,0,0,2.92-1.3,7.81,7.81,0,0,0,2.15-3.32c0-.11.07-.16.11-.16s.11.06.11.17a3.64,3.64,0,0,1-.49,1.26,8.36,8.36,0,0,1-1,1.49,4.81,4.81,0,0,1-3.9,2.14,2.73,2.73,0,0,1-2.26-1.28,5.24,5.24,0,0,1-.76-3.2,10.2,10.2,0,0,1,2.8-6.58q2.67-3,5.66-2.87a2.56,2.56,0,0,1,2,1,3.67,3.67,0,0,1,.67,2.46,8,8,0,0,1-.7,2.72,7,7,0,0,0-.61,2c0,.84.32,1.27,1.06,1.3s1.74-.79,2.7-2.44c.08-.14.15-.2.2-.2S106.48,60.24,106.48,60.33Zm9.6-3a10.51,10.51,0,0,0-6.19,2.34,38.05,38.05,0,0,0-6.74,7.62l4.77.17a31.83,31.83,0,0,1,4.13-6.69C113.61,58.86,115,57.71,116.08,57.36Z"/><path d="M62.25,196.9s-.06-.12,0-.28c.19-1.9-.06-3.09-.75-3.56s-1.16-.27-1.63.43a7.12,7.12,0,0,0-.65,1.93,8.17,8.17,0,0,1-1,2.62,3.68,3.68,0,0,1-2,1.6,2.55,2.55,0,0,1-2.21-.43c-1.66-1.11-2.63-3-2.9-5.65a10.18,10.18,0,0,1,1.61-7,5.23,5.23,0,0,1,2.49-2.14,2.69,2.69,0,0,1,2.58.3,4.79,4.79,0,0,1,1.9,4,8.65,8.65,0,0,1-.1,1.77,3.85,3.85,0,0,1-.34,1.3c-.07.1-.13.12-.19.08s0-.09,0-.2a7.69,7.69,0,0,0,.2-3.95A4.2,4.2,0,0,0,57.62,185a2.54,2.54,0,0,0-2.4-.26,4.79,4.79,0,0,0-2.31,1.94,10.1,10.1,0,0,0-1.59,6.77q.36,3.87,2.76,5.48a2.45,2.45,0,0,0,1.75.45,1.87,1.87,0,0,0,1.4-.81,4.94,4.94,0,0,0,.59-1.58,10,10,0,0,1,1-3,3.32,3.32,0,0,1,1.4-1.25,1.43,1.43,0,0,1,1.38.1c.63.43.93,1.43.9,3a2.68,2.68,0,0,1-.12,1C62.36,196.92,62.3,196.94,62.25,196.9ZM70,206.61a6.84,6.84,0,0,1-1.26-1.13,12.35,12.35,0,0,1-4.63-6.27,32.27,32.27,0,0,1-1.39-10.74c-.72-.46-1.41-.91-2.08-1.36l.05-.34,2,1.37v-.65q-.09-1.78-.15-4.92a19.32,19.32,0,0,0-.18-2.67c-.46-3.2-1.43-5.31-2.93-6.32a4.65,4.65,0,0,0-3.28-.83,3.69,3.69,0,0,0-2.66,1.62,3.38,3.38,0,0,0-.38.79c-.09.28-.1.45,0,.5s.12,0,.19-.08a.8.8,0,0,0,.08-.17l.17-.3c.29-.42.59-.53.92-.31a.81.81,0,0,1,.32.7,1.61,1.61,0,0,1-.31,1c-.4.59-.82.74-1.28.43a1.22,1.22,0,0,1-.48-1.12,3,3,0,0,1,.55-1.57,4,4,0,0,1,2.87-1.77,4.91,4.91,0,0,1,3.51.85q2.89,2,3.74,7.75a68.52,68.52,0,0,1,.46,7.86l4,2.71A67.13,67.13,0,0,0,69,182.94a5.51,5.51,0,0,0-1.28-3.38,10.35,10.35,0,0,1-1.43-.75c-.54-.37-.73-.67-.58-.89s.4-.16.8.11a4.47,4.47,0,0,1,1.34,1.33,9.08,9.08,0,0,1,2.06,1,4.36,4.36,0,0,1,1.78,2.22,11.4,11.4,0,0,1,.31,3.93,14.63,14.63,0,0,1-.28,3,.07.07,0,0,1-.11,0s0-.12,0-.29a21.78,21.78,0,0,0,.21-4.85,4.76,4.76,0,0,0-2.11-3.85,9.06,9.06,0,0,0-1.54-.8q3.1,3.92,1,12.48a41.87,41.87,0,0,0-1.42,8.45,8,8,0,0,0,1.16,4.69,8.86,8.86,0,0,0,2.07.94,6.4,6.4,0,0,1,.81.3c.15.1.16.24,0,.4C71.57,207.38,70.94,207.26,70,206.61Zm-2.78-6.87a31.62,31.62,0,0,1,.59-7.84l-4-2.67a37.46,37.46,0,0,0,1,10.13,10.51,10.51,0,0,0,3.62,5.53Q67.38,203.48,67.2,199.74Z"/><path d="M51.63,163.67a2.53,2.53,0,0,1,.69.75q1.44,1.89,1,3a1.38,1.38,0,0,1-1.06.88,3.19,3.19,0,0,1-1.86-.19,9.84,9.84,0,0,1-2.62-1.83,4.8,4.8,0,0,0-1.4-.93,1.84,1.84,0,0,0-1.61.16,2.51,2.51,0,0,0-1.16,1.39c-.66,1.81-.32,3.83,1,6.06a10.07,10.07,0,0,0,5.27,4.54,4.82,4.82,0,0,0,3,.21,2.55,2.55,0,0,0,1.79-1.62,4.23,4.23,0,0,0-.34-3.18,7.8,7.8,0,0,0-2.49-3.07c-.1-.06-.14-.11-.13-.15s.1-.09.2,0a3.44,3.44,0,0,1,1,.85,9,9,0,0,1,1.12,1.37A4.83,4.83,0,0,1,55,176.2,2.73,2.73,0,0,1,53.05,178a5.3,5.3,0,0,1-3.28-.27,10.18,10.18,0,0,1-5.4-4.69c-1.34-2.31-1.66-4.4-1-6.28a2.57,2.57,0,0,1,1.54-1.64,3.62,3.62,0,0,1,2.55.13,7.88,7.88,0,0,1,2.38,1.51,7.15,7.15,0,0,0,1.66,1.18c.79.28,1.31.08,1.56-.62s-.21-1.89-1.49-3.32c-.1-.11-.14-.2-.12-.25S51.54,163.64,51.63,163.67Zm1.7-13.74c.2.07.26.19.2.36a6,6,0,0,1-.48.72,8.66,8.66,0,0,0-1.12,2,8.07,8.07,0,0,0,1.82,4.48,42.87,42.87,0,0,0,6.11,6q6.74,5.68,6.52,10.68a8.63,8.63,0,0,0,.78-1.55,4.78,4.78,0,0,0-.56-4.35,20.77,20.77,0,0,0-3-3.8c-.12-.12-.18-.21-.16-.25a.09.09,0,0,1,.09-.06,15.21,15.21,0,0,1,2,2.27,11,11,0,0,1,2.06,3.37,4.27,4.27,0,0,1-.13,2.83,9.06,9.06,0,0,1-1.1,2,4.64,4.64,0,0,1-.3,1.86c-.17.46-.36.65-.59.57s-.27-.45,0-1.07a9.48,9.48,0,0,1,.71-1.44,5.51,5.51,0,0,0-.95-3.49,65,65,0,0,0-6.05-6.31l-1.66,4.56a68.53,68.53,0,0,1,4.25,6.63c1.82,3.45,2.33,6.28,1.53,8.46a4.81,4.81,0,0,1-2.34,2.75,4,4,0,0,1-3.36.26,3,3,0,0,1-1.37-.95,1.2,1.2,0,0,1-.27-1.19c.19-.51.62-.65,1.29-.4a1.65,1.65,0,0,1,.81.59.82.82,0,0,1,.15.76c-.13.37-.44.46-.92.29l-.31-.14-.17-.09c-.11,0-.18,0-.2.05s.08.2.31.38a2.91,2.91,0,0,0,.78.41,3.61,3.61,0,0,0,3.1-.25,4.63,4.63,0,0,0,2.17-2.6c.61-1.69.17-4-1.35-6.83a20.54,20.54,0,0,0-1.42-2.27c-1.19-1.71-2.12-3.06-2.77-4.06l-.37-.54-.84,2.3-.23-.25c.27-.76.57-1.53.88-2.32a32.31,32.31,0,0,1-5.19-9.51,12.33,12.33,0,0,1,.06-7.79,6.58,6.58,0,0,1,.35-1.65C52.41,150.22,52.85,149.76,53.33,149.93Zm-1.56,3.69a10.51,10.51,0,0,0,.32,6.6A37.7,37.7,0,0,0,57.25,169l1.64-4.49a31.38,31.38,0,0,1-5.08-6Q51.76,155.38,51.77,153.62Z"/><path d="M158,263.07c0,.24-.11.36-.32.36s-.37-.24-.45-.72c0-.33-.08-.67-.11-1a5.15,5.15,0,0,0-.61-1.7,2.63,2.63,0,0,0-1.84-1.17,5.49,5.49,0,0,0-1.33-.14l-1.51.05v16.83c0,.67.17,1.08.5,1.25a4.84,4.84,0,0,0,1.49.17c.21,0,.32.1.32.24s-.14.23-.42.23a2.09,2.09,0,0,1-.38,0l-2.26-.05c-.58,0-1.13,0-1.64,0s-1.17,0-2,0c-.41,0-.61-.07-.61-.22s.38-.26,1.14-.28c.55,0,.9-.12,1.06-.36a2.83,2.83,0,0,0,.14-1.15V258.75a12.91,12.91,0,0,0-3.27.28c-1.12.43-1.78,1.57-2,3.43-.06.56-.18.83-.37.83s-.32-.19-.32-.58c0-.2,0-.41,0-.61l.06-.64c.05-.86.13-2,.24-3.37h1.19l5.43.08c.63,0,1.63,0,3,0l4.42-.08c0,1,.15,2.58.34,4.62a1,1,0,0,0,0,.21A.9.9,0,0,1,158,263.07Z"/><path d="M203.39,250.14c.1.22.05.37-.14.46s-.43-.07-.71-.48l-.5-.87a5,5,0,0,0-1.25-1.3,2.61,2.61,0,0,0-2.15-.33,5.5,5.5,0,0,0-1.27.42l-1.37.66,6.85,15.37c.27.61.59.93,1,.94a4.63,4.63,0,0,0,1.43-.45c.2-.07.33,0,.38.09s0,.27-.29.39a2.44,2.44,0,0,1-.35.12c-1,.4-1.68.69-2.09.87s-1,.47-1.49.71-1,.51-1.78.84c-.37.16-.59.18-.65,0s.25-.39.93-.72c.51-.22.78-.48.83-.76a3,3,0,0,0-.35-1.1l-6.79-15.26a12.66,12.66,0,0,0-2.88,1.58c-.84.84-1,2.15-.4,3.93.18.53.18.83,0,.91s-.37,0-.53-.4c-.08-.19-.16-.38-.22-.57l-.22-.61c-.29-.8-.68-1.86-1.15-3.17l1.1-.49,5-2.13c.59-.24,1.5-.65,2.72-1.21l4-1.87q.69,1.4,2.2,4.08a1,1,0,0,0,.11.18C203.36,250.08,203.39,250.12,203.39,250.14Z"/><path d="M239.64,219.85a.31.31,0,0,1,.05.48q-.21.24-.84-.15l-.82-.59a4.64,4.64,0,0,0-1.67-.68,2.53,2.53,0,0,0-2.09.58,5.5,5.5,0,0,0-1,.89l-1,1.16,12.5,11.26c.5.45.92.6,1.27.46a4.68,4.68,0,0,0,1.12-1c.16-.15.29-.17.39-.08s.08.26-.11.47a1.3,1.3,0,0,1-.27.26c-.74.77-1.25,1.32-1.55,1.65s-.75.85-1.07,1.25-.76.9-1.29,1.49q-.4.45-.57.3c-.13-.11.06-.45.55-1,.37-.41.52-.76.45-1a3.2,3.2,0,0,0-.76-.86L230.54,223.5a12.58,12.58,0,0,0-2,2.62q-.65,1.66,1.23,3.75c.37.41.5.69.37.84s-.36.1-.65-.16a5.93,5.93,0,0,1-.44-.43l-.44-.47q-.9-.92-2.34-2.43l.8-.89,3.69-4c.44-.46,1.1-1.2,2-2.22l2.89-3.33c.8.67,2,1.61,3.67,2.84l.17.12Z"/><path d="M260.42,177.44c.23.07.31.21.25.41s-.34.27-.83.21l-1-.21a5.08,5.08,0,0,0-1.8.05,2.62,2.62,0,0,0-1.68,1.39,5.49,5.49,0,0,0-.55,1.22c-.23.8-.37,1.29-.41,1.46l16,5.2c.63.2,1.08.17,1.35-.1a4.72,4.72,0,0,0,.62-1.36c.08-.2.19-.27.32-.23s.18.21.09.48a1.84,1.84,0,0,1-.14.34q-.54,1.5-.75,2.13c-.18.56-.34,1.09-.47,1.58s-.32,1.13-.57,1.89c-.12.39-.26.56-.4.51s-.13-.44.09-1.17c.17-.53.17-.9,0-1.13a2.83,2.83,0,0,0-1-.48l-15.89-5.16a12.34,12.34,0,0,0-.75,3.2c.06,1.19,1,2.17,2.65,2.93.51.22.74.42.68.61s-.28.24-.65.12a5.71,5.71,0,0,1-.58-.21l-.59-.25-3.13-1.27.37-1.14,1.75-5.13c.22-.6.52-1.55.92-2.83l1.29-4.23c1,.29,2.5.66,4.5,1.1a.87.87,0,0,0,.21,0Z"/><path d="M262.16,130.23c.24,0,.37.07.39.28s-.2.39-.67.53l-1,.21a4.68,4.68,0,0,0-1.63.79,2.6,2.6,0,0,0-1,1.94,4.93,4.93,0,0,0,0,1.34q.17,1.25.21,1.5l16.73-1.76q1-.1,1.2-.63a5.09,5.09,0,0,0,0-1.5c0-.21.06-.33.2-.34s.25.11.28.4a2.38,2.38,0,0,1,0,.37c.07,1.06.14,1.81.18,2.25s.13,1.13.21,1.64.17,1.16.25,1.95c.05.41,0,.62-.16.63s-.29-.35-.39-1.11c-.06-.54-.22-.88-.47-1a3.1,3.1,0,0,0-1.16,0l-16.61,1.75a12,12,0,0,0,.62,3.22c.54,1.07,1.74,1.6,3.61,1.6.56,0,.85.09.87.28s-.16.34-.55.38l-.61,0h-.64l-3.38.12-.13-1.19-.48-5.41c-.05-.63-.15-1.62-.31-3l-.55-4.38c1-.14,2.56-.42,4.57-.82l.2-.05Z"/><path d="M244.55,86.41c.21-.12.37-.09.47.09s0,.44-.4.76l-.81.59a4.89,4.89,0,0,0-1.17,1.38,2.62,2.62,0,0,0-.09,2.17,5.56,5.56,0,0,0,.54,1.22l.81,1.29,14.56-8.41c.58-.34.86-.69.84-1.07a4.85,4.85,0,0,0-.6-1.37c-.09-.19-.08-.32,0-.4s.28,0,.42.25a2,2,0,0,1,.16.34c.5.94.86,1.6,1.09,2s.58,1,.86,1.4.62,1,1,1.69c.2.35.24.56.11.64s-.42-.2-.81-.85c-.28-.48-.56-.73-.85-.74a2.82,2.82,0,0,0-1.06.45l-14.47,8.36a12.52,12.52,0,0,0,1.88,2.69c.93.75,2.24.75,3.95,0,.51-.23.81-.26.91-.09s0,.37-.35.57c-.17.1-.36.19-.54.28l-.58.27c-.77.38-1.78.88-3,1.48l-.6-1-2.64-4.73c-.3-.57-.8-1.43-1.49-2.58l-2.28-3.78c.89-.55,2.16-1.42,3.83-2.61a.86.86,0,0,0,.17-.13Z"/><path d="M210.64,53.53c.14-.19.3-.23.47-.1s.15.41-.06.85-.34.58-.5.87a5,5,0,0,0-.51,1.74,2.59,2.59,0,0,0,.8,2,6.17,6.17,0,0,0,1,.9q1,.7,1.26.84L223,47c.39-.54.5-1,.33-1.31a4.63,4.63,0,0,0-1.11-1c-.16-.14-.2-.27-.12-.38s.26-.11.49.06a2.32,2.32,0,0,1,.28.24c.84.66,1.44,1.11,1.8,1.37s.92.66,1.35.94,1,.65,1.62,1.12q.49.36.36.54c-.09.14-.46,0-1.09-.44-.44-.33-.8-.44-1.07-.34a2.86,2.86,0,0,0-.78.85L215.22,62.2A13.21,13.21,0,0,0,218,63.9c1.15.31,2.36-.23,3.6-1.62.38-.42.64-.57.8-.46s.14.35-.09.66-.25.33-.38.48l-.42.49c-.54.66-1.27,1.52-2.17,2.59l-1-.71-4.34-3.25c-.51-.39-1.31-1-2.41-1.75L208,57.8c.58-.86,1.4-2.18,2.44-3.94l.1-.19A.83.83,0,0,1,210.64,53.53Z"/><path d="M166.28,37.29c.06-.23.18-.33.39-.29s.31.32.29.81c0,.33-.07.67-.1,1a5,5,0,0,0,.24,1.79,2.58,2.58,0,0,0,1.56,1.52,5,5,0,0,0,1.27.42l1.49.26,3.5-16.45c.14-.66.06-1.1-.24-1.34a4.58,4.58,0,0,0-1.42-.47c-.2-.06-.29-.16-.26-.3s.19-.2.47-.14a2.47,2.47,0,0,1,.35.1c1,.26,1.77.44,2.2.53s1.12.22,1.62.3,1.16.2,1.94.37c.4.08.58.2.55.34s-.43.18-1.18,0a1.2,1.2,0,0,0-1.11.13,2.88,2.88,0,0,0-.37,1.09L174,43.35a12.48,12.48,0,0,0,3.25.4q1.77-.27,2.64-2.94c.17-.53.35-.78.54-.74s.27.26.19.64c-.05.2-.1.4-.16.59l-.18.62c-.23.82-.54,1.91-.94,3.25l-1.17-.25-5.28-1.21c-.62-.15-1.6-.36-2.92-.62l-4.33-.84c.18-1,.39-2.55.62-4.59a1.15,1.15,0,0,0,0-.21Z"/><path d="M119.16,40.5q-.07-.36.24-.42c.21,0,.4.16.59.61s.21.64.31,1a4.94,4.94,0,0,0,1,1.54,2.61,2.61,0,0,0,2,.76,5.62,5.62,0,0,0,1.33-.14l1.47-.37L122.6,27c-.14-.65-.4-1-.76-1.12a4.92,4.92,0,0,0-1.49.15c-.21,0-.33,0-.36-.17s.09-.26.37-.32a2.8,2.8,0,0,1,.36-.05c1-.18,1.79-.32,2.23-.41s1.1-.25,1.6-.39,1.14-.28,1.92-.45c.4-.08.61,0,.64.09s-.32.34-1.06.52q-.81.17-1,.57a2.9,2.9,0,0,0,.1,1.15l3.48,16.34a12.58,12.58,0,0,0,3.14-1c1-.65,1.41-1.9,1.21-3.76-.06-.56,0-.86.19-.9s.35.13.43.51c.05.2.08.4.11.6l.08.64c.12.85.28,2,.46,3.35l-1.17.25-5.32,1c-.63.12-1.6.32-2.91.62l-4.3,1c-.25-1-.69-2.49-1.3-4.45a1.65,1.65,0,0,0-.07-.2Z"/><path d="M77.42,62.59a.3.3,0,0,1,0-.48c.17-.12.44,0,.79.32l.68.75a4.74,4.74,0,0,0,1.49,1,2.57,2.57,0,0,0,2.17-.13,5.08,5.08,0,0,0,1.16-.67l1.19-.93L75.06,48.85c-.4-.54-.78-.78-1.15-.72a4.8,4.8,0,0,0-1.3.74c-.18.11-.32.11-.4,0s0-.28.2-.44a2.61,2.61,0,0,1,.32-.2c.88-.6,1.51-1,1.86-1.28s.91-.68,1.31-1,.92-.72,1.57-1.19q.5-.36.63-.18c.09.14-.16.44-.77.9-.44.32-.66.63-.64.92a2.72,2.72,0,0,0,.56,1l9.82,13.52a12.42,12.42,0,0,0,2.49-2.15q1-1.5-.43-3.92c-.28-.49-.34-.78-.19-.9s.38,0,.61.29a4.45,4.45,0,0,1,.33.51l.34.55c.46.72,1,1.67,1.78,2.86l-1,.71L86.6,62c-.53.36-1.33.94-2.41,1.75l-3.52,2.66q-1-1.23-3-3.54l-.14-.15A.51.51,0,0,1,77.42,62.59Z"/><path d="M48.27,99.75c-.21-.12-.27-.27-.16-.45s.39-.2.85,0l.93.41a5.19,5.19,0,0,0,1.77.32,2.6,2.6,0,0,0,1.93-1,5.52,5.52,0,0,0,.79-1.08l.71-1.34L40.52,88.16c-.58-.33-1-.4-1.34-.19a4.87,4.87,0,0,0-.89,1.21q-.18.25-.36.15c-.14-.07-.14-.24,0-.48a2.3,2.3,0,0,1,.22-.31c.56-.9,1-1.55,1.17-1.93s.56-1,.79-1.45.55-1,1-1.72c.2-.36.37-.5.5-.42s0,.46-.33,1.13a1.19,1.19,0,0,0-.22,1.1,2.86,2.86,0,0,0,.92.69L56.4,94.29a12.48,12.48,0,0,0,1.4-3q.29-1.77-2-3.42c-.46-.32-.64-.57-.54-.74s.33-.18.66,0a5.69,5.69,0,0,1,.52.33l.53.36,2.8,1.9-.6,1-2.78,4.66c-.34.54-.84,1.4-1.49,2.58l-2.14,3.86q-1.38-.74-4.17-2a.76.76,0,0,0-.2-.08Z"/><path d="M36.75,145.56c-.24,0-.35-.14-.33-.35s.28-.34.77-.38h1A4.94,4.94,0,0,0,40,144.4a2.62,2.62,0,0,0,1.36-1.7,5.63,5.63,0,0,0,.28-1.31c.06-.83.09-1.33.1-1.51L25,138.12c-.67-.07-1.1,0-1.3.37a4.61,4.61,0,0,0-.32,1.46q-.06.31-.27.3c-.16,0-.22-.17-.19-.45a1.91,1.91,0,0,1,.06-.37c.15-1.05.25-1.8.3-2.24s.1-1.13.13-1.64.08-1.17.16-2c0-.4.14-.6.29-.58s.22.41.15,1.17c0,.54,0,.91.25,1.09a2.75,2.75,0,0,0,1.13.25L42,137.26A12.51,12.51,0,0,0,42,134c-.31-1.16-1.38-1.93-3.2-2.32-.55-.11-.81-.26-.8-.45s.23-.3.62-.26c.2,0,.41.05.61.09l.63.12,3.32.59-.12,1.19-.65,5.39c-.08.63-.19,1.62-.31,3l-.38,4.4c-1-.08-2.58-.12-4.63-.14a.74.74,0,0,0-.21,0Z"/><path d="M44.86,192.09c-.23.08-.37,0-.44-.19s.12-.42.55-.65l.92-.41a5.21,5.21,0,0,0,1.43-1.11,2.61,2.61,0,0,0,.54-2.11,5.08,5.08,0,0,0-.28-1.31c-.28-.78-.45-1.25-.52-1.42l-16,5.2c-.64.21-1,.5-1,.87a4.39,4.39,0,0,0,.3,1.47c.05.2,0,.33-.13.37s-.27-.06-.36-.33a2,2,0,0,1-.08-.36c-.3-1-.51-1.75-.65-2.17s-.36-1.07-.55-1.55-.4-1.1-.65-1.86c-.12-.39-.11-.61,0-.65s.36.28.62,1c.17.52.39.82.67.9a2.86,2.86,0,0,0,1.13-.23l15.89-5.16a12.64,12.64,0,0,0-1.28-3c-.75-.93-2-1.2-3.86-.81-.55.12-.85.09-.91-.1s.08-.36.46-.48a5.69,5.69,0,0,1,.59-.16l.62-.15,3.28-.81.37,1.13,1.6,5.19c.18.61.48,1.55.92,2.83l1.44,4.17c-1,.36-2.41.94-4.29,1.76L45,192Z"/><path d="M71.2,231.3q-.27.24-.48,0c-.15-.15-.07-.43.23-.82l.68-.75a5.16,5.16,0,0,0,.85-1.59,2.56,2.56,0,0,0-.36-2.14,5.64,5.64,0,0,0-.78-1.09c-.58-.6-.93-1-1.06-1.08l-12.5,11.25c-.5.45-.7.86-.6,1.22a4.69,4.69,0,0,0,.88,1.22q.19.25,0,.39c-.11.11-.27.05-.46-.16a1.71,1.71,0,0,1-.22-.29c-.69-.82-1.18-1.39-1.48-1.72s-.76-.83-1.13-1.2-.81-.84-1.35-1.43q-.41-.45-.24-.6c.12-.11.45.11,1,.66.37.41.7.59,1,.55a3,3,0,0,0,.94-.67l12.42-11.18a12.41,12.41,0,0,0-2.4-2.24q-1.59-.82-3.86.83c-.45.33-.74.42-.87.28s-.07-.37.22-.63a4.54,4.54,0,0,1,.48-.39l.51-.39,2.66-2.08.8.89,3.57,4.09c.41.49,1.08,1.22,2,2.21l3,3.23q-1.12,1.08-3.21,3.35a.8.8,0,0,0-.13.16Z"/><path d="M111.21,256.41c-.1.22-.25.28-.44.2s-.24-.37-.12-.85c.1-.32.21-.64.31-1a4.94,4.94,0,0,0,.13-1.8,2.6,2.6,0,0,0-1.2-1.81,5.28,5.28,0,0,0-1.16-.67l-1.4-.57-6.85,15.37c-.27.61-.28,1.06,0,1.35a4.49,4.49,0,0,0,1.29.76c.19.1.25.22.19.35s-.22.16-.48,0a2.45,2.45,0,0,1-.33-.18c-1-.46-1.64-.79-2-1s-1-.45-1.53-.63-1.08-.44-1.81-.76c-.37-.17-.53-.32-.47-.45s.46-.09,1.16.21a1.24,1.24,0,0,0,1.12.1,2.9,2.9,0,0,0,.59-1l6.79-15.27a12.71,12.71,0,0,0-3.1-1.07c-1.19-.07-2.26.71-3.19,2.33-.28.48-.5.69-.68.61s-.21-.31,0-.67a5.44,5.44,0,0,1,.27-.54l.31-.57c.4-.76.93-1.75,1.59-3l1.09.49,4.92,2.28c.58.28,1.49.68,2.72,1.21l4.07,1.72c-.39,1-.91,2.42-1.57,4.36a1.67,1.67,0,0,0-.06.2C111.23,256.34,111.21,256.39,111.21,256.41Z"/></g></g></svg>