<svg xmlns="http://www.w3.org/2000/svg" viewBox="0 0 600.91 610.96"><defs><style>.cls-1,.cls-7,.cls-8{fill:#fff;}.cls-2{font-size:58.85px;}.cls-2,.cls-3{font-family:AnnabelleJF;}.cls-3{font-size:53.27px;}.cls-4,.cls-5,.cls-6{fill:none;stroke:#000;stroke-miterlimit:10;}.cls-4{stroke-width:2px;}.cls-5{stroke-width:1.88px;}.cls-6{stroke-width:2.12px;}.cls-7{font-size:55.22px;font-family:Line-Light, Line;font-weight:300;}.cls-8{font-size:39.56px;font-family:TsukuBRdGothic-Regular-83pv-RKSJ-H, Tsukushi B Round Gothic;}</style></defs><g id="レイヤー_2" data-name="レイヤー 2"><g id="レイヤー_1-2" data-name="レイヤー 1"><path class="cls-1" d="M4.69,248.48,0,278.1l33,18.46c0,12.5,0,15.39,0,27.9L0,342.91c2.32,14.68,2.36,14.94,4.69,29.62l37.1,7.35c3.87,11.89,4.77,14.64,8.62,26.53l-25.7,27.75L38.35,460.9l37.55-4.49L92.3,479,76.43,513.31c10.51,10.53,10.7,10.71,21.22,21.22L132,518.66l22.58,16.41-4.49,37.55,26.72,13.62,27.75-25.7,26.54,8.61,7.35,37.12L268.05,611l18.46-33h27.9l18.45,33,29.62-4.69,7.35-37.1c11.89-3.87,14.64-4.77,26.53-8.62l27.75,25.7,26.74-13.63-4.49-37.55,22.57-16.4,34.33,15.87c10.53-10.51,10.71-10.7,21.22-21.22L508.61,479,525,456.4l37.55,4.49,13.62-26.72-25.7-27.75,8.61-26.54,37.12-7.35,4.69-29.62-33-18.46c0-12.5,0-15.39,0-27.9l33-18.45c-2.32-14.68-2.36-14.94-4.69-29.62l-37.1-7.35c-3.87-11.89-4.77-14.64-8.62-26.53l25.7-27.75c-6.75-13.25-6.87-13.49-13.63-26.74L525,164.6,508.61,142l15.87-34.33C514,97.17,513.78,97,503.26,86.48l-34.33,15.87L446.35,85.94l4.49-37.55L424.12,34.77l-27.75,25.7-26.54-8.61-7.35-37.12-29.62-4.69-18.46,33H286.5l-18.45-33-29.62,4.69-7.35,37.1c-11.89,3.87-14.64,4.77-26.53,8.62L176.8,34.77,150.06,48.4,154.55,86,132,102.35,97.65,86.48C87.12,97,86.94,97.18,76.43,107.7L92.3,142,75.89,164.61l-37.55-4.49L24.72,186.84l25.7,27.75-8.61,26.54Zm331.4-163c124.28,19.69,209.07,136.39,189.39,260.66S389.09,555.21,264.82,535.52,55.75,399.14,75.43,274.87,211.82,65.8,336.09,85.48Z"/><circle cx="341.09" cy="56.05" r="9"/><circle cx="260.37" cy="56.05" r="9"/><circle cx="183.6" cy="81" r="9"/><circle cx="118.29" cy="128.44" r="9"/><circle cx="70.85" cy="193.75" r="9"/><circle cx="45.9" cy="270.52" r="9"/><circle cx="45.9" cy="351.24" r="9"/><circle cx="70.85" cy="428.01" r="9"/><circle cx="118.29" cy="493.31" r="9"/><circle cx="183.6" cy="540.76" r="9"/><circle cx="260.37" cy="565.7" r="9"/><circle cx="341.09" cy="565.7" r="9"/><circle cx="417.85" cy="540.76" r="9"/><circle cx="483.16" cy="493.31" r="9"/><circle cx="530.6" cy="428.01" r="9"/><circle cx="555.55" cy="351.24" r="9"/><circle cx="555.55" cy="270.52" r="9"/><circle cx="530.6" cy="193.75" r="9"/><circle cx="483.16" cy="128.44" r="9"/><circle cx="417.85" cy="81" r="9"/><circle cx="341.09" cy="56.05" r="9"/><path class="cls-1" d="M529.51,321.79V299l-27-9.94c-1.48-9.4-1.83-11.58-3.31-21l22.62-17.8c-3.5-10.75-3.56-11-7-21.71L486,227.43c-4.33-8.48-5.33-10.44-9.64-18.92l16-23.92-13.43-18.48L451.22,174l-15-15,7.84-27.7-18.47-13.42-23.92,16-18.93-9.64-1.1-28.77-21.71-7.05L342.12,111l-21-3.32-9.94-27H288.38l-9.94,27-21,3.32-17.8-22.62L218,95.43l-1.1,28.77-18.92,9.64-23.92-16-18.48,13.43,7.85,27.69-15,15-27.7-7.85c-6.66,9.16-6.77,9.32-13.42,18.48l16,23.92-9.65,18.93-28.76,1.09c-3.5,10.76-3.56,11-7,21.71L100.42,268c-1.49,9.4-1.83,11.58-3.32,21l-27,9.94v22.83l27,9.94c1.49,9.4,1.83,11.57,3.32,21L77.8,370.51c3.49,10.75,3.55,10.95,7,21.71l28.76,1.1c4.33,8.48,5.33,10.44,9.65,18.92l-16,23.92c6.65,9.16,6.76,9.32,13.43,18.48l27.69-7.85,15,15-7.85,27.7L174,502.93l23.92-16,18.93,9.64L218,525.32l21.71,7,17.8-22.62,21,3.31,9.94,27h22.83l9.94-27,21-3.31,17.8,22.62,21.71-7,1.11-28.77,18.92-9.64,23.92,16c9.16-6.65,9.32-6.77,18.47-13.43l-7.84-27.69,15-15,27.71,7.85,13.42-18.48-16-23.92c4.31-8.48,5.32-10.44,9.64-18.93l28.77-1.09c3.49-10.76,3.55-11,7-21.72l-22.62-17.79c1.48-9.41,1.83-11.58,3.31-21ZM309,134.57a175.92,175.92,0,0,1,138.46,79.91l-32.95,19A138,138,0,0,0,309,172.61ZM374.71,343a81.86,81.86,0,0,0,0-65.24l28-16.18a114.14,114.14,0,0,1,0,97.61Zm18.8,32.13A113.78,113.78,0,0,1,309,423.92V391.55a81.56,81.56,0,0,0,56.48-32.62ZM309,196.83a113.78,113.78,0,0,1,84.51,48.8l-28,16.19A81.56,81.56,0,0,0,309,229.2Zm-18.41-62.26v38a137.92,137.92,0,0,0-105.51,60.9l-33-19A175.94,175.94,0,0,1,290.59,134.57ZM224.88,343l-28,16.19a114.05,114.05,0,0,1,0-97.61l28,16.18a81.86,81.86,0,0,0,0,65.24Zm-18.8-97.36a113.74,113.74,0,0,1,84.51-48.8V229.2a81.58,81.58,0,0,0-56.49,32.62ZM142.91,390.32a176.37,176.37,0,0,1,0-159.89l33,19a138.32,138.32,0,0,0,0,121.85Zm147.68,95.85a175.93,175.93,0,0,1-138.47-79.9l33-19a137.93,137.93,0,0,0,105.51,60.91Zm0-62.25a113.74,113.74,0,0,1-84.51-48.8l28-16.19a81.58,81.58,0,0,0,56.49,32.62Zm0-57.91a56.38,56.38,0,0,1,9.2-112,57,57,0,0,1,9.21.74A56.39,56.39,0,0,1,309,366a57.62,57.62,0,0,1-18.41,0ZM309,486.17v-38a138,138,0,0,0,105.51-60.91l32.95,19A175.91,175.91,0,0,1,309,486.17Zm147.68-95.85-33-19a138.32,138.32,0,0,0,0-121.85l33-19a176.45,176.45,0,0,1,0,159.89Z"/><text class="cls-2" transform="translate(327.33 138.6) scale(0.65 1)">S</text><text class="cls-3" transform="matrix(-0.59, 0.12, -0.19, -0.98, 382.65, 98.04)">S</text><text class="cls-2" transform="matrix(0.62, -0.2, 0.31, 0.95, 272.95, 138.66)">S</text><text class="cls-3" transform="matrix(-0.53, 0.29, -0.48, -0.87, 313.02, 82.98)">S</text><text class="cls-2" transform="matrix(0.53, -0.38, 0.59, 0.81, 221.24, 155.51)">S</text><text class="cls-3" transform="matrix(-0.41, 0.44, -0.73, -0.68, 242.15, 90.18)">S</text><text class="cls-2" transform="matrix(0.38, -0.53, 0.81, 0.59, 177.28, 187.52)">S</text><text class="cls-3" transform="matrix(-0.26, 0.55, -0.91, -0.42, 176.98, 118.92)">S</text><text class="cls-2" transform="matrix(0.2, -0.62, 0.95, 0.31, 145.36, 231.55)">S</text><text class="cls-3" transform="matrix(-0.07, 0.6, -0.99, -0.12, 123.87, 166.4)">S</text><text class="cls-2" transform="matrix(0, -0.65, 1, 0, 128.61, 283.29)">S</text><text class="cls-3" transform="matrix(0.12, 0.59, -0.98, 0.19, 88.04, 227.97)">S</text><text class="cls-2" transform="matrix(-0.2, -0.62, 0.95, -0.31, 128.66, 337.67)">S</text><text class="cls-3" transform="matrix(0.29, 0.53, -0.87, 0.48, 72.99, 297.59)">S</text><text class="cls-2" transform="matrix(-0.38, -0.53, 0.81, -0.59, 145.52, 389.37)">S</text><text class="cls-3" transform="matrix(0.44, 0.41, -0.68, 0.73, 80.19, 368.46)">S</text><text class="cls-2" transform="matrix(-0.53, -0.38, 0.59, -0.81, 177.53, 433.33)">S</text><text class="cls-3" transform="matrix(0.55, 0.26, -0.42, 0.91, 108.93, 433.64)">S</text><text class="cls-2" transform="matrix(-0.62, -0.2, 0.31, -0.95, 221.55, 465.26)">S</text><text class="cls-3" transform="matrix(0.6, 0.07, -0.12, 0.99, 156.41, 486.74)">S</text><text class="cls-2" transform="translate(273.29 482.01) rotate(180) scale(0.65 1)">S</text><text class="cls-3" transform="matrix(0.59, -0.12, 0.19, 0.98, 217.97, 522.57)">S</text><text class="cls-2" transform="matrix(-0.62, 0.2, -0.31, -0.95, 327.67, 481.95)">S</text><text class="cls-3" transform="matrix(0.53, -0.29, 0.48, 0.87, 287.6, 537.63)">S</text><text class="cls-2" transform="translate(379.38 465.1) rotate(144) scale(0.65 1)">S</text><text class="cls-3" transform="matrix(0.41, -0.44, 0.73, 0.68, 358.46, 530.43)">S</text><text class="cls-2" transform="matrix(-0.38, 0.53, -0.81, -0.59, 423.34, 433.09)">S</text><text class="cls-3" transform="matrix(0.26, -0.55, 0.91, 0.42, 423.64, 501.68)">S</text><text class="cls-2" transform="translate(455.26 389.06) rotate(108) scale(0.65 1)">S</text><text class="cls-3" transform="matrix(0.07, -0.6, 0.99, 0.12, 476.74, 454.21)">S</text><text class="cls-2" transform="translate(472.01 337.32) rotate(90) scale(0.65 1)">S</text><text class="cls-3" transform="matrix(-0.12, -0.59, 0.98, -0.19, 512.58, 392.64)">S</text><text class="cls-2" transform="translate(471.96 282.94) rotate(72) scale(0.65 1)">S</text><text class="cls-3" transform="matrix(-0.29, -0.53, 0.87, -0.48, 527.63, 323.02)">S</text><text class="cls-2" transform="translate(455.1 231.24) rotate(54) scale(0.65 1)">S</text><text class="cls-3" transform="matrix(-0.44, -0.41, 0.68, -0.73, 520.43, 252.15)">S</text><text class="cls-2" transform="matrix(0.53, 0.38, -0.59, 0.81, 423.09, 187.27)">S</text><text class="cls-3" transform="matrix(-0.55, -0.26, 0.42, -0.91, 491.69, 186.97)">S</text><text class="cls-2" transform="translate(379.07 155.35) rotate(18) scale(0.65 1)">S</text><text class="cls-3" transform="matrix(-0.6, -0.07, 0.12, -0.99, 444.21, 133.87)">S</text><circle cx="300.31" cy="310.3" r="12"/><circle class="cls-4" cx="300.31" cy="310.3" r="242"/><circle class="cls-5" cx="300.31" cy="310.3" r="228"/><circle class="cls-6" cx="300.31" cy="310.3" r="257"/><text class="cls-7" transform="translate(217.35 203.72) rotate(-27) scale(0.74 1)">W</text><text class="cls-7" transform="translate(201.7 218.01) rotate(-36) scale(0.74 1)">W</text><text class="cls-7" transform="translate(188.48 234.57) rotate(-45) scale(0.74 1)">W</text><text class="cls-7" transform="matrix(0.43, -0.6, 0.81, 0.59, 178.01, 253)">W</text><text class="cls-7" transform="translate(170.55 272.84) rotate(-63) scale(0.74 1)">W</text><text class="cls-7" transform="translate(166.28 293.6) rotate(-72) scale(0.74 1)">W</text><text class="cls-7" transform="matrix(0.12, -0.73, 0.99, 0.16, 165.32, 314.77)">W</text><text class="cls-7" transform="translate(167.68 335.83) rotate(-90) scale(0.74 1)">W</text><text class="cls-7" transform="translate(173.31 356.27) rotate(-99) scale(0.74 1)">W</text><text class="cls-7" transform="translate(182.06 375.57) rotate(-108) scale(0.74 1)">W</text><text class="cls-7" transform="translate(193.73 393.26) rotate(-117) scale(0.74 1)">W</text><text class="cls-7" transform="matrix(-0.43, -0.6, 0.81, -0.59, 208.02, 408.92)">W</text><text class="cls-7" transform="translate(224.58 422.14) rotate(-135) scale(0.74 1)">W</text><text class="cls-7" transform="matrix(-0.6, -0.43, 0.59, -0.81, 243.01, 432.61)">W</text><text class="cls-7" transform="translate(262.85 440.07) rotate(-153) scale(0.74 1)">W</text><text class="cls-7" transform="matrix(-0.7, -0.23, 0.31, -0.95, 283.61, 444.33)">W</text><text class="cls-7" transform="translate(304.78 445.3) rotate(-171) scale(0.74 1)">W</text><text class="cls-7" transform="translate(325.84 442.93) rotate(180) scale(0.74 1)">W</text><text class="cls-7" transform="translate(346.27 437.31) rotate(171) scale(0.74 1)">W</text><text class="cls-7" transform="translate(365.57 428.55) rotate(162) scale(0.74 1)">W</text><text class="cls-7" transform="translate(383.27 416.89) rotate(153) scale(0.74 1)">W</text><text class="cls-7" transform="matrix(-0.6, 0.43, -0.59, -0.81, 398.92, 402.6)">W</text><text class="cls-7" transform="translate(412.15 386.03) rotate(135) scale(0.74 1)">W</text><text class="cls-7" transform="matrix(-0.43, 0.6, -0.81, -0.59, 422.61, 367.61)">W</text><text class="cls-7" transform="matrix(-0.34, 0.66, -0.89, -0.45, 430.07, 347.77)">W</text><text class="cls-7" transform="translate(434.34 327.01) rotate(108) scale(0.74 1)">W</text><text class="cls-7" transform="matrix(-0.12, 0.73, -0.99, -0.16, 435.3, 305.84)">W</text><text class="cls-7" transform="translate(432.94 284.77) rotate(90) scale(0.74 1)">W</text><text class="cls-7" transform="translate(427.31 264.34) rotate(81) scale(0.74 1)">W</text><text class="cls-7" transform="matrix(0.23, 0.7, -0.95, 0.31, 418.56, 245.04)">W</text><text class="cls-7" transform="translate(406.89 227.34) rotate(63) scale(0.74 1)">W</text><text class="cls-7" transform="translate(392.6 211.69) rotate(54) scale(0.74 1)">W</text><text class="cls-7" transform="translate(376.04 198.47) rotate(45) scale(0.74 1)">W</text><text class="cls-7" transform="translate(357.61 188) rotate(36) scale(0.74 1)">W</text><text class="cls-7" transform="translate(337.77 180.54) rotate(27) scale(0.74 1)">W</text><text class="cls-7" transform="translate(317.01 176.28) rotate(18) scale(0.74 1)">W</text><text class="cls-7" transform="translate(295.84 175.32) rotate(9) scale(0.74 1)">W</text><text class="cls-7" transform="translate(274.78 177.68) scale(0.74 1)">W</text><text class="cls-7" transform="translate(254.34 183.3) rotate(-9) scale(0.74 1)">W</text><text class="cls-7" transform="translate(235.04 192.06) rotate(-18) scale(0.74 1)">W</text><text class="cls-8" transform="matrix(0.74, -0.12, 0.16, 0.99, 252.81, 112.9)">W</text><text class="cls-8" transform="translate(194.13 137.24) rotate(-27) scale(0.75 1)">W</text><text class="cls-8" transform="translate(145.85 178.52) rotate(-45) scale(0.75 1)">W</text><text class="cls-8" transform="translate(112.68 232.7) rotate(-63) scale(0.75 1)">W</text><text class="cls-8" transform="translate(97.89 294.48) rotate(-81) scale(0.75 1)">W</text><text class="cls-8" transform="translate(102.9 357.8) rotate(-99) scale(0.75 1)">W</text><text class="cls-8" transform="matrix(-0.34, -0.67, 0.89, -0.45, 127.24, 416.48)">W</text><text class="cls-8" transform="matrix(-0.53, -0.53, 0.71, -0.71, 168.52, 464.77)">W</text><text class="cls-8" transform="translate(222.7 497.93) rotate(-153) scale(0.75 1)">W</text><text class="cls-8" transform="translate(284.48 512.73) rotate(-171) scale(0.75 1)">W</text><text class="cls-8" transform="matrix(-0.74, 0.12, -0.16, -0.99, 347.81, 507.71)">W</text><text class="cls-8" transform="translate(406.49 483.37) rotate(153) scale(0.75 1)">W</text><text class="cls-8" transform="matrix(-0.53, 0.53, -0.71, -0.71, 454.77, 442.09)">W</text><text class="cls-8" transform="translate(487.94 387.91) rotate(117) scale(0.75 1)">W</text><text class="cls-8" transform="translate(502.73 326.13) rotate(99) scale(0.75 1)">W</text><text class="cls-8" transform="matrix(0.12, 0.74, -0.99, 0.16, 497.72, 262.8)">W</text><text class="cls-8" transform="translate(473.38 204.13) rotate(63) scale(0.75 1)">W</text><text class="cls-8" transform="matrix(0.53, 0.53, -0.71, 0.71, 432.1, 155.84)">W</text><text class="cls-8" transform="translate(377.91 122.68) rotate(27) scale(0.75 1)">W</text><text class="cls-8" transform="translate(316.14 107.88) rotate(9) scale(0.75 1)">W</text><text/></g></g></svg>