<svg xmlns="http://www.w3.org/2000/svg" viewBox="0 0 399.3 399.3"><defs><style>.cls-1{fill:#fff;}.cls-2{fill:none;}</style></defs><g id="レイヤー_2" data-name="レイヤー 2"><g id="レイヤー_1-2" data-name="レイヤー 1"><path class="cls-1" d="M399.3,209.57V189.73l-23.49-8.64-2.88-18.23,19.66-15.47-6.13-18.87-25-1c-3.76-7.37-4.63-9.07-8.38-16.44L367,90.33,355.33,74.27l-24.07,6.82L318.21,68,325,44,309,32.3,288.18,46.22l-16.45-8.38-1-25L251.91,6.71,236.44,26.37l-18.23-2.88L209.57,0H189.73l-8.64,23.49-18.23,2.88L147.39,6.71l-18.87,6.13-1,25-16.44,8.38L90.33,32.3,74.27,44,81.09,68l-13,13L44,74.27,32.3,90.33l13.92,20.79-8.38,16.45-25,1L6.71,147.39l19.66,15.47-2.88,18.23L0,189.73v19.84l23.49,8.64,2.88,18.23L6.71,251.91l6.13,18.87,25,1c3.76,7.37,4.63,9.07,8.38,16.44L32.3,309,44,325,68,318.21l13,13.05-6.82,24.08L90.33,367l20.79-13.92,16.45,8.38,1,25,18.87,6.13,15.47-19.66,18.23,2.88,8.64,23.49h19.84l8.64-23.49,18.23-2.88,15.47,19.66,18.87-6.13,1-25,16.44-8.38L309,367,325,355.33l-6.82-24.07,13.05-13.05L355.34,325,367,309l-13.92-20.79,8.38-16.45,25-1,6.13-18.87-19.66-15.47,2.88-18.23ZM207.65,46.86A152.9,152.9,0,0,1,328,116.31l-28.64,16.54a119.88,119.88,0,0,0-91.7-52.93ZM264.76,228a71.17,71.17,0,0,0,0-56.7l24.36-14.07a99.18,99.18,0,0,1,0,84.84Zm16.34,27.92a98.86,98.86,0,0,1-73.45,42.41V270.2a70.89,70.89,0,0,0,49.09-28.35ZM207.65,101a98.86,98.86,0,0,1,73.45,42.41l-24.36,14.07a70.89,70.89,0,0,0-49.09-28.35Zm-16-54.11V79.92A119.88,119.88,0,0,0,100,132.85L71.31,116.31A152.9,152.9,0,0,1,191.65,46.86ZM134.54,228l-24.36,14.07a99.18,99.18,0,0,1,0-84.84l24.36,14.07a71.17,71.17,0,0,0,0,56.7ZM118.2,143.38A98.86,98.86,0,0,1,191.65,101V129.1a70.89,70.89,0,0,0-49.09,28.35ZM63.3,269.13a153.29,153.29,0,0,1,0-139L91.94,146.7a120.21,120.21,0,0,0,0,105.9Zm128.35,83.31A152.9,152.9,0,0,1,71.31,283L100,266.45a119.88,119.88,0,0,0,91.7,52.93Zm0-54.11a98.86,98.86,0,0,1-73.45-42.41l24.36-14.07a70.89,70.89,0,0,0,49.09,28.35Zm0-50.33a49.56,49.56,0,1,1,8,.65A48.94,48.94,0,0,1,191.65,248Zm16,104.44V319.38a119.88,119.88,0,0,0,91.7-52.93L328,283A152.9,152.9,0,0,1,207.65,352.44ZM336,269.13,307.36,252.6a120.21,120.21,0,0,0,0-105.9L336,130.17a153.29,153.29,0,0,1,0,139Z"/><rect class="cls-1" x="182.42" y="46.06" width="34.46" height="34.46" transform="translate(13.73 159.71) rotate(-45)"/><rect class="cls-1" x="64.33" y="114.24" width="34.46" height="34.46" transform="translate(-24.33 244.27) rotate(-105)"/><rect class="cls-1" x="64.33" y="250.6" width="34.46" height="34.46" transform="translate(91.01 547.65) rotate(-165)"/><rect class="cls-1" x="182.42" y="318.79" width="34.46" height="34.46" transform="translate(578.42 432.44) rotate(135)"/><rect class="cls-1" x="300.52" y="250.6" width="34.46" height="34.46" transform="translate(494.21 -108.41) rotate(75)"/><rect class="cls-1" x="300.52" y="114.24" width="34.46" height="34.46" transform="translate(44.85 -77.76) rotate(15)"/><path class="cls-1" d="M143.84,100.45a18.51,18.51,0,0,1-1-3.86q3.17-4.28.2-14a18.44,18.44,0,0,0-2.29,5.43l-1.22-3.41A15.07,15.07,0,0,1,142,79.9a26.89,26.89,0,0,0-1.55-3.31,20.77,20.77,0,0,0-6-6.94q-3.27-2.24-5.54-.92a5.09,5.09,0,0,0-1.76,1.73,10.14,10.14,0,0,0-1.23,2.88,14.81,14.81,0,0,1-2-6.17,10.94,10.94,0,0,1,1.35-2,6.09,6.09,0,0,1,1.53-1.3,6.94,6.94,0,0,1,5.33-.74,14.53,14.53,0,0,1,6,3.54q-.49-6.64,2.53-10.79c.24.47.43.81.55,1a15.83,15.83,0,0,0,3.36,3.94,12.93,12.93,0,0,0,4.12,2.58l.62,2.27c-.59,1.77-1.4,4.44-2.43,8-.08.31-.28,1-.58,2a16.73,16.73,0,0,1,4.06-3.48l.39-.2a32.87,32.87,0,0,1,4.5,3.55l2.24,2a30.47,30.47,0,0,0,6.23,4.7,16.71,16.71,0,0,0,1.09-3.58l1.29.63a47.6,47.6,0,0,0-1.34,9q-2.53-.9-8.18-6l-1.71-1.55q-3-2.67-4.73-4a9.24,9.24,0,0,0-2.41,1,16.91,16.91,0,0,0-2.42,2A31.62,31.62,0,0,1,145.71,94a14.12,14.12,0,0,1,2.83-2.17,11.28,11.28,0,0,1,4.21-1.5,11.88,11.88,0,0,0,.24,4.82,14.22,14.22,0,0,0-4.91,1.73A16.11,16.11,0,0,0,143.84,100.45Zm.79-23.13a79.54,79.54,0,0,1,2.23-10.16,21.85,21.85,0,0,1-6.15-4.73A16,16,0,0,0,139.54,68a23.47,23.47,0,0,1,2.89,4A24.82,24.82,0,0,1,144.63,77.32Z"/><path class="cls-1" d="M137.37,103.53a14.58,14.58,0,0,0-3.77,3.59,12,12,0,0,0-4.19-2.4,11.19,11.19,0,0,1,3.25-3.07,14.25,14.25,0,0,1,3.22-1.53,31.62,31.62,0,0,1-12.42-6.72,16.39,16.39,0,0,0-2.88,1.25,9.45,9.45,0,0,0-2,1.68q.34,2.15,1.37,6l.6,2.23q2,7.32,1.59,10a46.68,46.68,0,0,0-8.63-2.9l0-1.44a15.88,15.88,0,0,0,3.68.66,30.24,30.24,0,0,0-1.36-7.68l-.81-2.93a32.89,32.89,0,0,1-1.11-5.62l.35-.26a16.73,16.73,0,0,1,5-2l-2.06-.4q-5.44-1-8.22-1.47l-1.74-1.58a12.84,12.84,0,0,0-.42-4.84,16,16,0,0,0-2-4.78c-.14-.22-.36-.53-.67-1q5.07-.81,10.76,2.64a14.72,14.72,0,0,1-.42-7,7,7,0,0,1,3.08-4.42,6.27,6.27,0,0,1,1.86-.77,10.43,10.43,0,0,1,2.43-.27,14.79,14.79,0,0,1,4.6,4.55,10.22,10.22,0,0,0-3.13-.21,5.08,5.08,0,0,0-2.34.78q-2.19,1.42-1.7,5.35a20.84,20.84,0,0,0,3.47,8.5A25.2,25.2,0,0,0,125,90.41a14.93,14.93,0,0,1,5.38-.07L132.84,93a18.62,18.62,0,0,0-5.88-.42q7.28,7,12.52,6.16a18.74,18.74,0,0,1,3,2.66A16.13,16.13,0,0,0,137.37,103.53ZM117.74,87.19a23.67,23.67,0,0,1-2.22-4.38,16,16,0,0,0-5.52-1.5,22.15,22.15,0,0,1,1.43,7.63,82.52,82.52,0,0,1,10.06,2.62A24.84,24.84,0,0,1,117.74,87.19Z"/><path class="cls-1" d="M85.84,198.39a19.62,19.62,0,0,1-3.86-1q-2.12-4.87-12-7.15a18.48,18.48,0,0,0,3.56,4.7L70,194.24a14.68,14.68,0,0,1-2.87-4.55,26.37,26.37,0,0,0-3.65-.31,20.64,20.64,0,0,0-9,1.73c-2.38,1.14-3.57,2.59-3.57,4.33a5.28,5.28,0,0,0,.62,2.39,10.06,10.06,0,0,0,1.89,2.51A14.78,14.78,0,0,1,47.08,199,10.13,10.13,0,0,1,46,196.77a5.8,5.8,0,0,1-.37-2,6.94,6.94,0,0,1,2-5,14.64,14.64,0,0,1,6.07-3.45q-6-2.88-8.07-7.58l1.16,0a16,16,0,0,0,5.1-.94,13,13,0,0,0,4.29-2.27l2.27.59q1.86,2.1,5.71,6.09l1.45,1.51a16.54,16.54,0,0,1-1-5.25l0-.44A33.09,33.09,0,0,1,70,176l2.89-.92a30.06,30.06,0,0,0,7.19-3,16.21,16.21,0,0,0-2.56-2.73l1.19-.81a46.16,46.16,0,0,0,7.14,5.66q-2,1.75-9.25,4.11l-2.2.71c-2.53.83-4.46,1.53-5.79,2.12a9.59,9.59,0,0,0-.31,2.6,15.67,15.67,0,0,0,.52,3.09,31.71,31.71,0,0,1,12.39,6.77,14,14,0,0,1-.46-3.53,11.29,11.29,0,0,1,.8-4.4,12.11,12.11,0,0,0,4.3,2.2,14.37,14.37,0,0,0-1,5.12A16.14,16.14,0,0,0,85.84,198.39ZM66.19,186.14a80.73,80.73,0,0,1-7.67-7,22.06,22.06,0,0,1-7.18,3,15.93,15.93,0,0,0,4.26,3.81,23.56,23.56,0,0,1,4.88-.52A24.82,24.82,0,0,1,66.19,186.14Z"/><path class="cls-1" d="M84.77,205.66A14.58,14.58,0,0,0,86,210.73a11.93,11.93,0,0,0-4.17,2.41,11,11,0,0,1-1-4.34,14,14,0,0,1,.28-3.56,31.64,31.64,0,0,1-12,7.4,15.21,15.21,0,0,0-.35,3.12,9.32,9.32,0,0,0,.44,2.58c1.36.52,3.32,1.12,5.89,1.82l2.23.59q7.32,2,9.45,3.62a47.64,47.64,0,0,0-6.83,6l-1.23-.74a15.73,15.73,0,0,0,2.41-2.86,30.51,30.51,0,0,0-7.33-2.66l-2.94-.77a32.51,32.51,0,0,1-5.42-1.84l0-.43a16.5,16.5,0,0,1,.71-5.3l-1.37,1.58c-2.42,2.79-4.22,4.92-5.38,6.39l-2.24.71a13.07,13.07,0,0,0-4.4-2.05,15.85,15.85,0,0,0-5.14-.67c-.26,0-.65,0-1.16.1q1.83-4.8,7.66-8a14.7,14.7,0,0,1-6.24-3.12,6.94,6.94,0,0,1-2.28-4.88,6,6,0,0,1,.26-2,10.55,10.55,0,0,1,1-2.24A14.91,14.91,0,0,1,53,199.91a10.32,10.32,0,0,0-1.75,2.6,5.28,5.28,0,0,0-.49,2.42c.09,1.74,1.35,3.13,3.78,4.15a20.8,20.8,0,0,0,9.1,1.24,24.47,24.47,0,0,0,3.62-.49,14.79,14.79,0,0,1,2.63-4.69l3.52-.84a18.88,18.88,0,0,0-3.31,4.88q9.74-2.77,11.6-7.76a19.17,19.17,0,0,1,3.79-1.25A16.17,16.17,0,0,0,84.77,205.66Zm-24,8.83a24,24,0,0,1-4.9-.26,15.78,15.78,0,0,0-4.06,4,22.37,22.37,0,0,1,7.33,2.58,81.94,81.94,0,0,1,7.29-7.4A25,25,0,0,1,60.8,214.49Z"/><path class="cls-1" d="M141.65,297.58a18.92,18.92,0,0,1-2.84,2.82q-5.28-.6-12.18,6.8a18.79,18.79,0,0,0,5.85-.73l-2.34,2.76a14.86,14.86,0,0,1-5.38.21,25.92,25.92,0,0,0-2.08,3,20.65,20.65,0,0,0-3,8.67q-.3,3.94,2,5.26A5.29,5.29,0,0,0,124,327a10.05,10.05,0,0,0,3.11-.39,14.76,14.76,0,0,1-4.35,4.8,11,11,0,0,1-2.44-.15,5.85,5.85,0,0,1-1.9-.68,6.92,6.92,0,0,1-3.31-4.24,14.67,14.67,0,0,1,.06-7q-5.5,3.75-10.61,3.19c.28-.43.49-.76.62-1a15.82,15.82,0,0,0,1.73-4.88,13.11,13.11,0,0,0,.18-4.85l1.65-1.67q2.75-.56,8.13-1.9l2-.49a16.77,16.77,0,0,1-5-1.78l-.37-.24a33.51,33.51,0,0,1,.83-5.67l.65-3a30.11,30.11,0,0,0,1-7.74,16.72,16.72,0,0,0-3.65.85l-.1-1.43a47.34,47.34,0,0,0,8.47-3.35q.51,2.64-1.07,10.06l-.48,2.26q-.83,3.91-1.06,6.07a9.46,9.46,0,0,0,2.1,1.57,16.56,16.56,0,0,0,2.94,1.1,31.66,31.66,0,0,1,12.06-7.35,13.89,13.89,0,0,1-3.3-1.37,11.15,11.15,0,0,1-3.4-2.89,12.12,12.12,0,0,0,4.05-2.62,14.42,14.42,0,0,0,3.95,3.39A16,16,0,0,0,141.65,297.58Zm-20.43,10.89a82.29,82.29,0,0,1-9.91,3.14,22.14,22.14,0,0,1-1,7.7,16,16,0,0,0,5.43-1.79,24,24,0,0,1,2-4.49A24.84,24.84,0,0,1,121.22,308.47Z"/><path class="cls-1" d="M148.05,301.78a14.43,14.43,0,0,0,5,1.47,12.09,12.09,0,0,0,0,4.83,11.44,11.44,0,0,1-4.28-1.28,14.4,14.4,0,0,1-2.94-2,31.56,31.56,0,0,1,.4,14.11,16,16,0,0,0,2.53,1.87,8.94,8.94,0,0,0,2.45.9c1.13-.91,2.63-2.31,4.52-4.19l1.63-1.64q5.37-5.35,7.86-6.37a47.4,47.4,0,0,0,1.8,8.93l-1.26.69a16.26,16.26,0,0,0-1.27-3.52,30.49,30.49,0,0,0-6,5l-2.13,2.16a33,33,0,0,1-4.31,3.78l-.4-.18a16.47,16.47,0,0,1-4.24-3.26q.54,1.51.69,2c1.21,3.49,2.15,6.11,2.84,7.85l-.51,2.3a12.88,12.88,0,0,0-4,2.79,15.79,15.79,0,0,0-3.15,4.11c-.12.23-.28.58-.49,1.05q-3.25-4-3.1-10.63a14.62,14.62,0,0,1-5.82,3.84,6.94,6.94,0,0,1-5.36-.46,5.92,5.92,0,0,1-1.6-1.22,10.59,10.59,0,0,1-1.45-2,14.69,14.69,0,0,1,1.64-6.26,10.29,10.29,0,0,0,1.38,2.82,5.25,5.25,0,0,0,1.85,1.63c1.55.8,3.38.39,5.48-1.2a20.79,20.79,0,0,0,5.63-7.26,24.94,24.94,0,0,0,1.38-3.38,15,15,0,0,1-2.75-4.62l1-3.47a18.56,18.56,0,0,0,2.57,5.31q2.46-9.82-.92-13.93a18.87,18.87,0,0,1,.81-3.91A16.12,16.12,0,0,0,148.05,301.78ZM143.71,327a24,24,0,0,1-2.68,4.12,15.88,15.88,0,0,0,1.46,5.52,22,22,0,0,1,5.9-5,80.45,80.45,0,0,1-2.77-10A24.61,24.61,0,0,1,143.71,327Z"/><path class="cls-1" d="M254.46,298.85a18.51,18.51,0,0,1,1,3.86q-3.16,4.28-.2,14a18.44,18.44,0,0,0,2.29-5.43l1.22,3.41a15.07,15.07,0,0,1-2.5,4.76,26.89,26.89,0,0,0,1.55,3.31,20.77,20.77,0,0,0,6,6.94q3.27,2.24,5.54.92a5.09,5.09,0,0,0,1.76-1.73,10.14,10.14,0,0,0,1.23-2.88,14.81,14.81,0,0,1,2,6.17,10.94,10.94,0,0,1-1.35,2,6.09,6.09,0,0,1-1.53,1.3,6.94,6.94,0,0,1-5.33.74,14.53,14.53,0,0,1-6-3.54q.5,6.65-2.53,10.79c-.24-.47-.43-.81-.55-1a15.83,15.83,0,0,0-3.36-3.94,12.93,12.93,0,0,0-4.12-2.58l-.62-2.27c.59-1.77,1.4-4.44,2.42-8l.59-2a16.73,16.73,0,0,1-4.06,3.48l-.39.2a32.87,32.87,0,0,1-4.5-3.55l-2.24-2a30.47,30.47,0,0,0-6.23-4.7,16.71,16.71,0,0,0-1.09,3.58l-1.29-.63a47.6,47.6,0,0,0,1.34-9q2.53.9,8.18,6l1.71,1.55q3,2.67,4.73,3.95a9.24,9.24,0,0,0,2.41-1,16.91,16.91,0,0,0,2.42-2,31.62,31.62,0,0,1-.34-14.12,14.12,14.12,0,0,1-2.83,2.17,11.28,11.28,0,0,1-4.21,1.5,11.88,11.88,0,0,0-.24-4.82,14.29,14.29,0,0,0,4.91-1.73A16.11,16.11,0,0,0,254.46,298.85ZM253.67,322a79.54,79.54,0,0,1-2.23,10.16,21.85,21.85,0,0,1,6.15,4.73,16,16,0,0,0,1.17-5.59,23.47,23.47,0,0,1-2.89-4A24.82,24.82,0,0,1,253.67,322Z"/><path class="cls-1" d="M260.93,295.77a14.58,14.58,0,0,0,3.77-3.59,12,12,0,0,0,4.19,2.4,11.19,11.19,0,0,1-3.25,3.07,14.25,14.25,0,0,1-3.22,1.53,31.62,31.62,0,0,1,12.42,6.72,16.39,16.39,0,0,0,2.88-1.25,9.17,9.17,0,0,0,2-1.68q-.35-2.14-1.37-6l-.6-2.23q-2-7.32-1.59-10a46.68,46.68,0,0,0,8.63,2.9l0,1.44a15.88,15.88,0,0,0-3.68-.66,30.24,30.24,0,0,0,1.36,7.68l.8,2.93a32.11,32.11,0,0,1,1.12,5.62l-.35.26a16.84,16.84,0,0,1-4.95,2l2.06.4q5.44,1.05,8.22,1.47l1.74,1.58a12.84,12.84,0,0,0,.42,4.84,16,16,0,0,0,2,4.78c.14.22.36.53.67,1q-5.07.81-10.76-2.64a14.72,14.72,0,0,1,.42,7,7,7,0,0,1-3.08,4.42,6.27,6.27,0,0,1-1.86.77,10.43,10.43,0,0,1-2.43.27,14.79,14.79,0,0,1-4.6-4.55,10.22,10.22,0,0,0,3.13.21,5.08,5.08,0,0,0,2.34-.78q2.19-1.42,1.7-5.35a20.84,20.84,0,0,0-3.47-8.5,25.2,25.2,0,0,0-2.24-2.89,14.93,14.93,0,0,1-5.38.07l-2.48-2.63a18.62,18.62,0,0,0,5.88.42q-7.27-7-12.52-6.16a18.74,18.74,0,0,1-3-2.66A16.13,16.13,0,0,0,260.93,295.77Zm19.63,16.34a23.67,23.67,0,0,1,2.22,4.38,16,16,0,0,0,5.52,1.5,22.15,22.15,0,0,1-1.43-7.63,82,82,0,0,1-10.06-2.62A24.84,24.84,0,0,1,280.56,312.11Z"/><path class="cls-1" d="M312.46,201.91a19.62,19.62,0,0,1,3.86,1.05q2.12,4.88,12,7.15a18.48,18.48,0,0,0-3.56-4.7l3.56.65a14.68,14.68,0,0,1,2.87,4.55,26.2,26.2,0,0,0,3.65.3,20.65,20.65,0,0,0,9-1.72c2.38-1.14,3.57-2.59,3.57-4.33a5.28,5.28,0,0,0-.62-2.39,10.06,10.06,0,0,0-1.89-2.51,14.78,14.78,0,0,1,6.33,1.38,10.13,10.13,0,0,1,1.09,2.19,5.8,5.8,0,0,1,.37,2,6.94,6.94,0,0,1-2,5,14.64,14.64,0,0,1-6.07,3.45q6,2.88,8.07,7.58l-1.16,0a16,16,0,0,0-5.1.94,13,13,0,0,0-4.29,2.27l-2.27-.59Q338,222,334.12,218l-1.45-1.51a16.54,16.54,0,0,1,1,5.25l0,.44a33.09,33.09,0,0,1-5.32,2.12l-2.89.92a30.06,30.06,0,0,0-7.19,3,16.21,16.21,0,0,0,2.56,2.73l-1.19.81a46.16,46.16,0,0,0-7.14-5.66q2-1.76,9.25-4.11l2.2-.71c2.53-.83,4.46-1.53,5.79-2.12a9.59,9.59,0,0,0,.31-2.6,15.85,15.85,0,0,0-.52-3.1,31.56,31.56,0,0,1-12.39-6.76,14,14,0,0,1,.46,3.53,11.29,11.29,0,0,1-.8,4.4,12.11,12.11,0,0,0-4.3-2.2,14.37,14.37,0,0,0,1-5.12A16.18,16.18,0,0,0,312.46,201.91Zm19.64,12.25a79.47,79.47,0,0,1,7.68,7,22.06,22.06,0,0,1,7.18-3,15.93,15.93,0,0,0-4.26-3.81,23.58,23.58,0,0,1-4.89.52A25,25,0,0,1,332.1,214.16Z"/><path class="cls-1" d="M313.53,194.64a14.58,14.58,0,0,0-1.22-5.07,11.93,11.93,0,0,0,4.17-2.41,11,11,0,0,1,1,4.34,14,14,0,0,1-.28,3.56,31.64,31.64,0,0,1,12-7.4,15.21,15.21,0,0,0,.35-3.12,9.32,9.32,0,0,0-.44-2.58c-1.36-.52-3.32-1.12-5.89-1.82l-2.23-.59q-7.32-2-9.45-3.62a47.64,47.64,0,0,0,6.83-6l1.23.74a15.73,15.73,0,0,0-2.41,2.86,30.51,30.51,0,0,0,7.33,2.66l2.94.77a32.51,32.51,0,0,1,5.42,1.84l.05.43a16.5,16.5,0,0,1-.71,5.3l1.37-1.58c2.42-2.79,4.22-4.92,5.38-6.39l2.24-.71a13,13,0,0,0,4.4,2,15.85,15.85,0,0,0,5.14.67c.26,0,.65,0,1.16-.1q-1.83,4.8-7.66,8a14.7,14.7,0,0,1,6.24,3.12,7,7,0,0,1,2.28,4.88,6,6,0,0,1-.26,2,10.55,10.55,0,0,1-1,2.24,14.91,14.91,0,0,1-6.25,1.71,10.32,10.32,0,0,0,1.75-2.6,5.28,5.28,0,0,0,.49-2.42c-.09-1.74-1.35-3.13-3.78-4.15a20.8,20.8,0,0,0-9.1-1.24,24.47,24.47,0,0,0-3.62.49,14.79,14.79,0,0,1-2.63,4.69l-3.52.84a18.88,18.88,0,0,0,3.31-4.88q-9.74,2.77-11.6,7.76a19.17,19.17,0,0,1-3.79,1.25A16.17,16.17,0,0,0,313.53,194.64Zm24-8.83a24,24,0,0,1,4.9.26,15.78,15.78,0,0,0,4.06-4,22.37,22.37,0,0,1-7.33-2.58,81.94,81.94,0,0,1-7.29,7.4A25,25,0,0,1,337.5,185.81Z"/><path class="cls-1" d="M258.65,102.72a18.92,18.92,0,0,1,2.84-2.82q5.28.6,12.18-6.8a18.49,18.49,0,0,0-5.85.73l2.34-2.76a14.86,14.86,0,0,1,5.38-.21,25.92,25.92,0,0,0,2.08-3,20.65,20.65,0,0,0,3-8.67q.3-3.94-2-5.26a5.16,5.16,0,0,0-2.38-.65,9.73,9.73,0,0,0-3.11.38,14.76,14.76,0,0,1,4.35-4.8A11,11,0,0,1,280,69a5.85,5.85,0,0,1,1.9.68,6.92,6.92,0,0,1,3.31,4.24,14.67,14.67,0,0,1-.06,7q5.5-3.75,10.61-3.19c-.28.43-.49.76-.62,1a15.82,15.82,0,0,0-1.73,4.88,12.9,12.9,0,0,0-.18,4.85l-1.65,1.67q-2.74.56-8.13,1.9l-2,.49a16.77,16.77,0,0,1,5,1.78l.37.24a33.51,33.51,0,0,1-.83,5.67l-.65,3a30.11,30.11,0,0,0-1,7.74,16.85,16.85,0,0,0,3.65-.85l.1,1.43a47.34,47.34,0,0,0-8.47,3.35q-.51-2.64,1.07-10.06l.48-2.26q.82-3.92,1.06-6.07a9.7,9.7,0,0,0-2.1-1.57,16.56,16.56,0,0,0-2.94-1.1,31.66,31.66,0,0,1-12.06,7.35,14.06,14.06,0,0,1,3.3,1.37,11.15,11.15,0,0,1,3.4,2.89A12.12,12.12,0,0,0,267.8,108a14.42,14.42,0,0,0-3.95-3.39A16,16,0,0,0,258.65,102.72Zm20.43-10.89A82.29,82.29,0,0,1,289,88.69a22.14,22.14,0,0,1,1-7.7,16,16,0,0,0-5.43,1.79,24,24,0,0,1-2,4.49A24.84,24.84,0,0,1,279.08,91.83Z"/><path class="cls-1" d="M252.25,98.52a14.43,14.43,0,0,0-5-1.47,12.09,12.09,0,0,0,0-4.83,11.44,11.44,0,0,1,4.28,1.28,14.06,14.06,0,0,1,2.94,2,31.61,31.61,0,0,1-.4-14.12,16,16,0,0,0-2.53-1.87,9.05,9.05,0,0,0-2.45-.9c-1.13.91-2.63,2.31-4.52,4.19l-1.63,1.64q-5.37,5.36-7.86,6.37a47.4,47.4,0,0,0-1.8-8.93l1.26-.69a16.26,16.26,0,0,0,1.27,3.52,30.49,30.49,0,0,0,6-5l2.13-2.16a33,33,0,0,1,4.31-3.78l.4.18a16.47,16.47,0,0,1,4.24,3.26q-.54-1.52-.69-2c-1.21-3.49-2.15-6.11-2.84-7.85l.51-2.3a12.88,12.88,0,0,0,4-2.79A16,16,0,0,0,257,58.19c.12-.23.28-.58.49-1q3.26,4,3.1,10.63a14.62,14.62,0,0,1,5.82-3.84,6.89,6.89,0,0,1,5.36.46,5.92,5.92,0,0,1,1.6,1.22,10.59,10.59,0,0,1,1.45,2,14.69,14.69,0,0,1-1.64,6.26A10.29,10.29,0,0,0,271.76,71a5.25,5.25,0,0,0-1.85-1.63c-1.55-.8-3.38-.39-5.48,1.2a20.84,20.84,0,0,0-5.63,7.25,25.68,25.68,0,0,0-1.38,3.39,15,15,0,0,1,2.75,4.62l-1,3.47A18.56,18.56,0,0,0,256.56,84q-2.46,9.83.92,13.93a18.87,18.87,0,0,1-.81,3.91A16.12,16.12,0,0,0,252.25,98.52Zm4.34-25.17a24,24,0,0,1,2.68-4.12,15.88,15.88,0,0,0-1.46-5.52,22.1,22.1,0,0,1-5.9,5.05,80.45,80.45,0,0,1,2.77,10A24.61,24.61,0,0,1,256.59,73.35Z"/><path d="M199.65,314.69a115,115,0,1,1,115-115A115.17,115.17,0,0,1,199.65,314.69Zm0-228a113,113,0,1,0,113,113A113.08,113.08,0,0,0,199.65,86.69Z"/><path d="M199.65,306.61a107,107,0,1,1,107-107A107.08,107.08,0,0,1,199.65,306.61Zm0-212a105,105,0,1,0,105,105A105.16,105.16,0,0,0,199.65,94.61Z"/><rect x="188.65" y="52.65" width="22" height="22"/><path d="M211.61,75.61H187.69V51.69h23.92Zm-22-1.92h20.08V53.61H189.61Z"/><rect x="70.87" y="120.65" width="22" height="22" transform="translate(-73.08 136.73) rotate(-60)"/><path d="M86.25,148,65.53,136l12-20.72,20.72,12ZM68.16,135.32l17.38,10,10-17.38-17.38-10Z"/><rect x="70.87" y="256.65" width="22" height="22" transform="translate(-122.86 76.79) rotate(-30)"/><path d="M77.49,284l-12-20.72,20.72-12,12,20.72Zm-9.33-20,10,17.38,17.38-10-10-17.38Z"/><rect x="188.65" y="324.65" width="22" height="22"/><path d="M211.61,347.61H187.69V323.69h23.92Zm-22-1.92h20.08V325.61H189.61Z"/><rect x="306.43" y="256.65" width="22" height="22" transform="translate(-73.08 408.73) rotate(-60)"/><path d="M321.81,284l-20.72-12,12-20.72,20.72,12Zm-18.09-12.67,17.38,10,10-17.38-17.38-10Z"/><rect x="306.43" y="120.65" width="22" height="22" transform="translate(-23.3 176.35) rotate(-30)"/><path d="M313.05,148l-12-20.72,20.72-12,12,20.72Zm-9.33-20,10,17.38,17.38-10-10-17.38Z"/><circle class="cls-1" cx="199.65" cy="63.65" r="11"/><path d="M199.65,75.61a12,12,0,1,1,12-12A12,12,0,0,1,199.65,75.61Zm0-22a10,10,0,1,0,10,10A10.06,10.06,0,0,0,199.65,53.61Z"/><circle class="cls-1" cx="81.87" cy="131.65" r="11"/><path d="M81.85,143.61a11.83,11.83,0,0,1-6-1.6,12,12,0,0,1,12-20.72h0a12,12,0,0,1-6,22.32Zm0-22a10,10,0,1,0,5,1.34h0A10,10,0,0,0,81.89,121.62Z"/><circle class="cls-1" cx="81.87" cy="267.65" r="11"/><path d="M81.89,279.61a12,12,0,0,1-6-22.32h0a12,12,0,0,1,12,20.72A11.83,11.83,0,0,1,81.89,279.61Zm-5-20.65a10,10,0,1,0,13.71,3.67A10,10,0,0,0,76.85,259Z"/><circle class="cls-1" cx="199.65" cy="335.65" r="11"/><path d="M199.65,347.61a12,12,0,1,1,12-12A12,12,0,0,1,199.65,347.61Zm0-22a10,10,0,1,0,10,10A10.06,10.06,0,0,0,199.65,325.61Z"/><circle class="cls-1" cx="317.43" cy="267.65" r="11"/><path d="M317.41,279.61a11.83,11.83,0,0,1-6-1.6h0a12,12,0,1,1,6,1.6Zm-5-3.27a10,10,0,1,0-3.67-13.71,10,10,0,0,0,3.67,13.71Z"/><circle class="cls-1" cx="317.43" cy="131.65" r="11"/><path d="M317.45,143.61a12,12,0,1,1,6-1.6h0A11.83,11.83,0,0,1,317.45,143.61Zm0-22a10,10,0,1,0,8.71,5A10,10,0,0,0,317.41,121.62Z"/><circle class="cls-1" cx="199.65" cy="63.65" r="8"/><path d="M199.65,72.61a9,9,0,1,1,9-9A9,9,0,0,1,199.65,72.61Zm0-16a7,7,0,1,0,7,7A7.05,7.05,0,0,0,199.65,56.61Z"/><circle class="cls-1" cx="81.87" cy="131.65" r="8"/><path d="M81.86,140.62a9,9,0,1,1,4.49-16.73,9,9,0,0,1,3.28,12.24,9,9,0,0,1-7.77,4.49Zm0-16a7.19,7.19,0,0,0-1.83.24,7,7,0,1,0,5.34.71h0A7,7,0,0,0,81.88,124.61Z"/><circle class="cls-1" cx="81.87" cy="267.65" r="8"/><path d="M81.88,276.62a9,9,0,0,1-4.49-16.73h0a9,9,0,0,1,9,15.52A8.88,8.88,0,0,1,81.88,276.62Zm-3.53-15.06A7,7,0,1,0,88,264.13a7,7,0,0,0-9.61-2.57Z"/><circle class="cls-1" cx="199.65" cy="335.65" r="8"/><path d="M199.65,344.61a9,9,0,1,1,9-9A9,9,0,0,1,199.65,344.61Zm0-16a7,7,0,1,0,7,7A7.05,7.05,0,0,0,199.65,328.61Z"/><circle class="cls-1" cx="317.43" cy="267.65" r="8"/><path d="M317.42,276.62a8.88,8.88,0,0,1-4.47-1.21,8.88,8.88,0,1,1,4.47,1.21Zm0-16a7,7,0,0,0-3.53,13.13h0a7,7,0,1,0,3.53-13.13Z"/><circle class="cls-1" cx="317.43" cy="131.65" r="8"/><path d="M317.44,140.62a9,9,0,1,1,4.47-1.21h0A8.88,8.88,0,0,1,317.44,140.62Zm0-16A7,7,0,1,0,321,137.74h0a7,7,0,0,0-1.7-12.89A7.19,7.19,0,0,0,317.42,124.61Z"/><path d="M199.65,354.15c-85.19,0-154.5-69.31-154.5-154.5s69.31-154.5,154.5-154.5,154.5,69.31,154.5,154.5S284.84,354.15,199.65,354.15Zm0-308C115,46.15,46.15,115,46.15,199.65s68.86,153.5,153.5,153.5,153.5-68.86,153.5-153.5S284.29,46.15,199.65,46.15Z"/><path class="cls-1" d="M179.58,139.2l-3,2.19-8.65-5.24c-3.19-1.87-5.23-3.08-7.42-4.5l-.07,0c.74,2.48,1.29,4.7,2.11,8.37l2.54,9.68-3,2.19-4.87-21.75-18.58-11.13,3-2.19,9.05,5.61c2.35,1.44,4.2,2.58,6.2,3.94l.1-.07c-.74-2.47-1.19-4.44-1.83-7.11l-2.47-10.39,3-2.19,4.46,21.06Z"/><path class="cls-1" d="M169.39,143.61l-2.58,2.67-9.43-3.66c-3.48-1.29-5.69-2.12-8.1-3.14l-.05.06c1.15,2.31,2.08,4.4,3.53,7.86l4.18,9.1-2.59,2.68-8.57-20.58-20.23-7.73,2.58-2.67,9.89,4c2.57,1,4.59,1.81,6.8,2.8l.08-.08c-1.16-2.32-2-4.17-3-6.69l-4.24-9.81,2.58-2.67,8.06,20Z"/><path class="cls-1" d="M160.12,149.71,158,152.8l-9.92-2c-3.65-.67-6-1.1-8.52-1.69l0,.07c1.54,2.07,2.81,4,4.84,7.13l5.69,8.24L148,167.66l-12-18.77-21.27-4.11,2.08-3.08,10.43,2.17c2.7.55,4.83,1,7.18,1.59l.06-.1c-1.54-2.08-2.64-3.76-4.16-6.06l-5.87-8.92,2.08-3.08,11.4,18.26Z"/><path class="cls-1" d="M152.05,157.34l-1.52,3.39-10.11-.21c-3.7,0-6.07-.05-8.68-.18l0,.07c1.88,1.78,3.46,3.43,6,6.19l7,7.11-1.51,3.4-15.09-16.4-21.65-.35L108,157l10.64.32c2.76.07,4.93.14,7.35.32l0-.11c-1.87-1.78-3.25-3.25-5.14-5.25l-7.34-7.76,1.52-3.4,14.39,16Z"/><path class="cls-1" d="M145.42,166.25l-.9,3.61-10,1.54c-3.65.62-6,1-8.57,1.33l0,.07c2.15,1.43,4,2.78,7,5l8.17,5.79-.89,3.61-17.71-13.53-21.39,3.42.9-3.61L112.53,172c2.72-.41,4.87-.72,7.28-1l0-.12c-2.15-1.42-3.77-2.63-6-4.27l-8.57-6.37.9-3.61,17,13.26Z"/><path class="cls-1" d="M140.45,176.17l-.26,3.71-9.58,3.25c-3.49,1.25-5.72,2-8.22,2.81V186c2.37,1,4.42,2,7.75,3.76l9.05,4.28-.25,3.71-19.79-10.25-20.47,7.08.26-3.7,10.11-3.34c2.61-.87,4.68-1.55,7-2.22v-.11c-2.38-1-4.17-1.94-6.63-3.17l-9.55-4.79.26-3.71,19,10.12Z"/><path class="cls-1" d="M137.27,186.81l.39,3.7-8.87,4.86c-3.22,1.84-5.28,3-7.61,4.19v.08c2.52.6,4.71,1.23,8.29,2.35l9.66,2.65.39,3.69-21.27-6.65L99.33,212.2l-.39-3.69,9.39-5c2.42-1.32,4.33-2.35,6.51-3.4V200c-2.51-.6-4.44-1.19-7.08-2l-10.23-3.06-.39-3.69,20.47,6.66Z"/><path class="cls-1" d="M136,197.84l1,3.57-7.89,6.33c-2.85,2.37-4.68,3.87-6.76,5.45l0,.07c2.58.16,4.86.4,8.58.88l10,.93,1,3.57-22.1-2.86L103,229.44l-1-3.58,8.37-6.59c2.15-1.72,3.86-3.06,5.82-4.48l0-.11c-2.58-.16-4.58-.4-7.32-.72l-10.6-1.23-1-3.57,21.32,3Z"/><path class="cls-1" d="M136.64,208.92l1.63,3.34-6.67,7.61c-2.4,2.82-3.94,4.62-5.72,6.53l0,.07c2.57-.29,4.85-.45,8.6-.62l10-.82,1.63,3.34-22.27,1-14.18,16.37-1.63-3.34,7.09-7.95c1.82-2.06,3.27-3.68,5-5.42l0-.11c-2.57.3-4.58.41-7.33.57l-10.66.63-1.63-3.34,21.51-.74Z"/><path class="cls-1" d="M139.2,219.72l2.19,3-5.24,8.65c-1.87,3.19-3.08,5.23-4.5,7.42l0,.07c2.47-.74,4.69-1.29,8.36-2.11l9.68-2.54,2.19,3-21.75,4.87-11.13,18.58-2.18-3,5.6-9.05c1.44-2.35,2.58-4.2,3.94-6.2l-.07-.1c-2.47.74-4.43,1.19-7.11,1.83l-10.39,2.47-2.19-3,21.06-4.46Z"/><path class="cls-1" d="M143.61,229.91l2.67,2.59-3.66,9.42c-1.29,3.48-2.12,5.69-3.14,8.1l.06,0c2.31-1.15,4.4-2.08,7.87-3.53l9.09-4.18,2.68,2.59-20.58,8.57-7.73,20.23-2.67-2.58,4-9.89c1-2.57,1.81-4.59,2.8-6.8l-.08-.08c-2.32,1.16-4.17,2-6.69,3l-9.81,4.24-2.67-2.58,20-8.06Z"/><path class="cls-1" d="M149.71,239.18l3.09,2.08-2,9.92c-.67,3.65-1.1,6-1.69,8.52l.07,0c2.07-1.54,4-2.81,7.13-4.84l8.24-5.69,3.08,2.08-18.77,12-4.1,21.27-3.09-2.08,2.17-10.43c.55-2.7,1-4.83,1.59-7.17l-.1-.07c-2.08,1.54-3.76,2.64-6.06,4.16l-8.92,5.87-3.08-2.08,18.26-11.4Z"/><path class="cls-1" d="M157.34,247.26l3.39,1.51-.21,10.11c0,3.7-.05,6.07-.18,8.68l.07,0c1.78-1.87,3.43-3.46,6.19-6l7.11-7,3.4,1.51-16.4,15.09-.35,21.66L157,291.29l.32-10.64c.07-2.75.14-4.93.32-7.34l-.11-.05c-1.78,1.87-3.25,3.25-5.25,5.14l-7.76,7.34-3.4-1.52,16-14.39Z"/><path class="cls-1" d="M166.25,253.88l3.61.9,1.54,10c.62,3.65,1,6,1.33,8.57l.07,0c1.43-2.15,2.78-4,5-7l5.79-8.17,3.61.9-13.53,17.7,3.42,21.39-3.61-.9L172,286.77c-.41-2.72-.72-4.87-1-7.28l-.12,0c-1.42,2.16-2.63,3.77-4.27,6L160.28,294l-3.61-.9,13.26-17Z"/><path class="cls-1" d="M176.17,258.86l3.71.25,3.25,9.58c1.25,3.49,2,5.72,2.8,8.22H186c1-2.38,2-4.43,3.76-7.76l4.28-9.05,3.71.25-10.25,19.79,7.08,20.47-3.7-.26-3.34-10.11c-.88-2.61-1.55-4.68-2.22-7h-.11c-1,2.38-1.94,4.17-3.17,6.63l-4.79,9.55-3.71-.26,10.12-19Z"/><path class="cls-1" d="M186.81,262l3.7-.39,4.87,8.87c1.83,3.22,3,5.28,4.18,7.61h.08c.6-2.51,1.23-4.71,2.35-8.29l2.65-9.66,3.69-.39L201.68,281,212.21,300l-3.7.39-5-9.39c-1.32-2.42-2.35-4.33-3.4-6.51H200c-.6,2.51-1.19,4.44-2,7.08l-3.06,10.23-3.69.39,6.66-20.47Z"/><path class="cls-1" d="M197.84,263.31l3.57-1,6.34,7.89c2.36,2.85,3.86,4.68,5.44,6.76l.07,0c.16-2.58.4-4.86.88-8.58l.93-10,3.57-1-2.86,22.1,13.66,16.81-3.58,1-6.59-8.37c-1.72-2.15-3.06-3.86-4.48-5.82l-.11,0c-.16,2.58-.4,4.58-.72,7.31l-1.23,10.61-3.57,1,3-21.32Z"/><path class="cls-1" d="M208.92,262.66l3.34-1.63,7.61,6.67c2.82,2.4,4.62,3.94,6.53,5.72l.07,0c-.29-2.57-.45-4.85-.62-8.6l-.82-10,3.34-1.63,1,22.27,16.37,14.18-3.34,1.63-7.95-7.09c-2.06-1.82-3.68-3.27-5.42-5l-.11.05c.3,2.57.41,4.58.57,7.33l.63,10.66-3.34,1.63-.74-21.51Z"/><path class="cls-1" d="M219.72,260.1l3-2.19,8.65,5.24c3.2,1.87,5.23,3.08,7.43,4.5l.06,0c-.74-2.47-1.29-4.7-2.11-8.36l-2.54-9.68,3-2.19,4.87,21.75,18.58,11.13-3,2.18-9.05-5.6c-2.35-1.44-4.2-2.58-6.2-3.94l-.1.07c.74,2.47,1.2,4.43,1.83,7.11l2.47,10.39-3,2.19-4.47-21.06Z"/><path class="cls-1" d="M229.91,255.69,232.5,253l9.42,3.66c3.48,1.29,5.69,2.12,8.1,3.14l0-.06c-1.15-2.31-2.08-4.4-3.52-7.87l-4.18-9.09,2.58-2.68,8.57,20.57,20.23,7.74-2.58,2.67-9.89-4c-2.57-1-4.59-1.81-6.8-2.8l-.08.08c1.16,2.32,2,4.17,3,6.69l4.24,9.81-2.58,2.67-8.06-20Z"/><path class="cls-1" d="M239.19,249.58l2.07-3.08,9.93,2c3.64.67,6,1.1,8.51,1.69l0-.07c-1.53-2.07-2.81-4-4.83-7.13l-5.7-8.24,2.08-3.08,12,18.77,21.27,4.1-2.08,3.09-10.43-2.17c-2.7-.55-4.83-1-7.17-1.59l-.07.1c1.54,2.08,2.64,3.76,4.16,6.06l5.87,8.92L272.77,272l-11.39-18.26Z"/><path class="cls-1" d="M247.26,242l1.51-3.4,10.11.22c3.7,0,6.07.05,8.68.18l0-.07c-1.87-1.78-3.46-3.43-6-6.19l-7-7.12,1.51-3.39,15.09,16.4,21.66.34-1.52,3.4L280.65,242c-2.75-.07-4.93-.14-7.34-.32l-.05.11c1.87,1.78,3.25,3.25,5.14,5.25l7.34,7.76-1.52,3.4-14.39-16Z"/><path class="cls-1" d="M253.88,233.05l.9-3.61,10-1.54c3.65-.62,6-1,8.57-1.33l0-.07c-2.15-1.43-4-2.78-7-5.05l-8.17-5.79.9-3.61,17.7,13.53,21.39-3.42-.9,3.61-10.54,1.53c-2.72.41-4.87.72-7.28,1l0,.12c2.16,1.42,3.77,2.63,6,4.27L294,239l-.9,3.61-17-13.26Z"/><path class="cls-1" d="M258.85,223.13l.26-3.71,9.58-3.26c3.49-1.24,5.72-2,8.22-2.8v-.07c-2.38-1-4.43-2-7.76-3.76l-9.05-4.29.25-3.7,19.79,10.25,20.47-7.09-.26,3.71-10.11,3.34c-2.61.87-4.68,1.55-7,2.21v.12c2.38,1,4.17,1.94,6.63,3.17l9.55,4.79-.26,3.71-19-10.12Z"/><path class="cls-1" d="M262,212.49l-.39-3.7,8.87-4.87c3.22-1.83,5.28-3,7.61-4.18v-.08c-2.52-.6-4.71-1.23-8.29-2.35l-9.66-2.65-.39-3.7L281,197.62,300,187.09l.38,3.7-9.38,5c-2.42,1.32-4.33,2.35-6.51,3.4v.12c2.51.6,4.44,1.18,7.08,2l10.23,3.06.39,3.69-20.47-6.66Z"/><path class="cls-1" d="M263.31,201.46l-1-3.57,7.89-6.34c2.85-2.36,4.68-3.86,6.76-5.44l0-.07c-2.58-.16-4.86-.4-8.58-.88l-10-.93-1-3.57,22.1,2.86,16.81-13.66,1,3.58L288.92,180c-2.15,1.72-3.86,3.06-5.82,4.48l0,.11c2.58.16,4.58.4,7.31.72l10.61,1.23,1,3.57-21.32-3Z"/><path class="cls-1" d="M262.66,190.38,261,187l6.67-7.61c2.4-2.82,3.94-4.62,5.72-6.53l0-.07c-2.57.29-4.85.45-8.6.62l-10,.82-1.63-3.34,22.27-1,14.18-16.37,1.63,3.34-7.09,8c-1.82,2.06-3.27,3.68-5,5.42l.05.11c2.57-.3,4.58-.41,7.33-.57l10.66-.63,1.63,3.34-21.51.74Z"/><path class="cls-1" d="M260.09,179.58l-2.18-3,5.24-8.65c1.87-3.2,3.08-5.23,4.5-7.43l0-.06c-2.47.74-4.7,1.29-8.36,2.11l-9.68,2.54-2.19-3,21.75-4.87,11.13-18.58,2.18,3-5.6,9.05c-1.44,2.35-2.58,4.2-3.94,6.2l.07.1c2.47-.74,4.43-1.2,7.11-1.83l10.39-2.47,2.19,3-21.06,4.47Z"/><path class="cls-1" d="M255.69,169.39,253,166.8l3.66-9.42c1.29-3.48,2.12-5.69,3.14-8.1l-.06-.05c-2.31,1.15-4.4,2.08-7.87,3.52l-9.09,4.18-2.68-2.58,20.57-8.57,7.74-20.23,2.67,2.58-4,9.89c-1,2.57-1.81,4.59-2.8,6.8l.08.08c2.31-1.16,4.17-2,6.69-3l9.81-4.24,2.67,2.58-20,8.06Z"/><path class="cls-1" d="M249.58,160.11,246.5,158l2-9.93c.67-3.64,1.1-6,1.69-8.51l-.07,0c-2.07,1.53-4,2.81-7.13,4.83l-8.24,5.7L231.64,148l18.77-12,4.1-21.27,3.09,2.08-2.17,10.43c-.55,2.7-1,4.83-1.59,7.17l.1.07c2.08-1.54,3.76-2.64,6.06-4.16l8.92-5.87,3.08,2.08-18.26,11.39Z"/><path class="cls-1" d="M242,152l-3.4-1.51.22-10.11c0-3.7.05-6.07.18-8.68l-.07,0c-1.78,1.87-3.43,3.46-6.19,6l-7.12,7-3.39-1.51,16.4-15.09.34-21.66,3.4,1.52L242,118.65c-.06,2.75-.13,4.93-.31,7.34l.11.05c1.78-1.87,3.25-3.25,5.25-5.14l7.76-7.34,3.4,1.52-16,14.39Z"/><path class="cls-1" d="M233.05,145.42l-3.61-.9-1.54-10c-.62-3.65-1-6-1.33-8.57l-.07,0c-1.43,2.15-2.78,4-5.05,7l-5.79,8.17-3.61-.9,13.53-17.7-3.42-21.39,3.61.9,1.53,10.54c.41,2.72.72,4.87,1,7.28l.12,0c1.42-2.16,2.63-3.77,4.27-6l6.37-8.57,3.61.9-13.26,17Z"/><path class="cls-1" d="M223.13,140.44l-3.71-.25-3.26-9.58c-1.24-3.49-2-5.72-2.8-8.22h-.07c-1,2.38-2,4.43-3.76,7.76l-4.28,9.05-3.71-.25,10.25-19.79L204.7,98.68l3.71.26,3.34,10.11c.87,2.61,1.55,4.68,2.21,7h.12c1-2.38,1.94-4.17,3.17-6.63L222,99.89l3.71.26-10.12,19Z"/><path class="cls-1" d="M212.49,137.27l-3.7.39-4.87-8.87c-1.83-3.22-3-5.28-4.18-7.61h-.08c-.6,2.51-1.23,4.71-2.35,8.29l-2.65,9.66-3.7.39,6.66-21.27L187.09,99.33l3.7-.39,5,9.39c1.32,2.42,2.35,4.33,3.4,6.51h.12c.6-2.51,1.18-4.44,2-7.08l3.06-10.23,3.69-.39-6.66,20.47Z"/><path class="cls-1" d="M201.46,136l-3.57,1-6.34-7.89c-2.36-2.85-3.86-4.68-5.44-6.76l-.07,0c-.16,2.58-.4,4.86-.88,8.58l-.93,10-3.57,1,2.86-22.1L169.86,103l3.58-1,6.59,8.37c1.72,2.15,3.06,3.86,4.48,5.82l.11,0c.16-2.58.4-4.58.72-7.31l1.23-10.61,3.57-1-3,21.32Z"/><path class="cls-1" d="M190.38,136.64,187,138.27l-7.61-6.67c-2.82-2.4-4.62-3.94-6.53-5.72l-.07,0c.29,2.57.45,4.85.62,8.6l.82,10-3.34,1.63-1-22.27-16.37-14.18,3.34-1.63,8,7.09c2.06,1.82,3.68,3.27,5.42,5l.11,0c-.3-2.57-.41-4.58-.57-7.33l-.63-10.66,3.34-1.63.74,21.51Z"/><path d="M199.65,271.15a71.5,71.5,0,1,1,71.5-71.5A71.58,71.58,0,0,1,199.65,271.15Zm0-142a70.5,70.5,0,1,0,70.5,70.5A70.58,70.58,0,0,0,199.65,129.15Z"/><circle class="cls-1" cx="269.65" cy="79.65" r="4"/><circle class="cls-1" cx="130.73" cy="79.03" r="4"/><circle class="cls-1" cx="60.73" cy="199.03" r="4"/><circle class="cls-1" cx="129.65" cy="319.65" r="4"/><circle class="cls-1" cx="268.57" cy="320.27" r="4"/><circle class="cls-1" cx="338.57" cy="200.27" r="4"/><circle class="cls-2" cx="269.65" cy="79.65" r="4"/><path class="cls-1" d="M200.15,339.65c-77.47,0-140.5-63-140.5-140.5s63-140.5,140.5-140.5,140.5,63,140.5,140.5S277.62,339.65,200.15,339.65Zm0-278c-75.82,0-137.5,61.68-137.5,137.5s61.68,137.5,137.5,137.5,137.5-61.68,137.5-137.5S276,61.65,200.15,61.65Z"/><rect x="196.65" y="102.65" width="6" height="22"/><rect x="122.85" y="145.83" width="6" height="22" transform="translate(-72.89 187.41) rotate(-60)"/><rect x="123.35" y="231.33" width="6" height="22" transform="translate(-20.33 472.93) rotate(-120)"/><rect x="197.65" y="273.65" width="6" height="22" transform="translate(401.3 569.3) rotate(-180)"/><rect x="271.45" y="230.47" width="6" height="22" transform="translate(620.78 124.52) rotate(120)"/><rect x="270.95" y="144.97" width="6" height="22" transform="translate(272.04 -159.26) rotate(60)"/><rect x="193.99" y="133.99" width="11.31" height="11.31" transform="translate(-40.27 182.08) rotate(-45)"/><rect x="164.31" y="142.21" width="11.31" height="11.31" transform="translate(-16.86 273.77) rotate(-75)"/><rect x="142.71" y="164.18" width="11.31" height="11.31" transform="translate(22.73 357.1) rotate(-105)"/><rect x="134.99" y="193.99" width="11.31" height="11.31" transform="translate(98.93 440.28) rotate(-135)"/><rect x="143.21" y="223.68" width="11.31" height="11.31" transform="translate(233.31 489.38) rotate(-165)"/><rect x="165.18" y="245.27" width="11.31" height="11.31" transform="translate(400.79 449.09) rotate(165)"/><rect x="194.99" y="252.99" width="11.31" height="11.31" transform="translate(525.42 299.66) rotate(135)"/><rect x="224.68" y="244.77" width="11.31" height="11.31" transform="translate(531.84 92.76) rotate(105)"/><rect x="246.27" y="222.81" width="11.31" height="11.31" transform="translate(407.41 -74.01) rotate(75)"/><rect x="253.99" y="192.99" width="11.31" height="11.31" transform="translate(216.52 -125.42) rotate(45)"/><rect x="245.77" y="163.31" width="11.31" height="11.31" transform="matrix(0.97, 0.26, -0.26, 0.97, 52.3, -59.32)"/><rect x="223.81" y="141.71" width="11.31" height="11.31" transform="translate(-30.32 64.41) rotate(-15)"/><path d="M198.65,27.85c0,2.23-1.32,5.43-2,6.95-2,4.4-6.48,11.38-10.66,11.38-1.49,0-2.54-1-2.54-3a5.31,5.31,0,0,1,1.49-3.84.81.81,0,0,1,.51-.19.65.65,0,0,1,.65.62,1,1,0,0,1-.54,1.1c-.26.11-.53-.19-.54-.48s0-.21-.08-.23a.24.24,0,0,0-.23.09,3.9,3.9,0,0,0-.71,2.5,1.9,1.9,0,0,0,2,2.17c2.07,0,4.61-2,7.07-5s5.24-8.77,5.24-11.87A2.61,2.61,0,0,0,198,26.6a1.75,1.75,0,0,0-1.5-.8c-1.56,0-3.55,1.71-4.73,3.25s-2.7,4.58-2.7,6.6a3.33,3.33,0,0,0,.08.73c.18.8.64,1.1,1.19,1.1a4.32,4.32,0,0,0,2.6-1.37A9.15,9.15,0,0,0,195,32.25c.07-.31.18-.43.26-.43s.12.12.08.34A10,10,0,0,1,193,36.59,4.22,4.22,0,0,1,190.09,38a1.89,1.89,0,0,1-1.92-1.4,4.09,4.09,0,0,1-.17-1.24,12.45,12.45,0,0,1,3.21-7.31,7.57,7.57,0,0,1,5.14-2.83,2.15,2.15,0,0,1,2,1A3.13,3.13,0,0,1,198.65,27.85Z"/><path d="M200.8,26.25a2.15,2.15,0,0,1,1.95-1,7.57,7.57,0,0,1,5.14,2.83,12.45,12.45,0,0,1,3.21,7.31,4.09,4.09,0,0,1-.17,1.24A1.89,1.89,0,0,1,209,38a4.22,4.22,0,0,1-2.94-1.44,10,10,0,0,1-2.35-4.43c0-.22,0-.34.08-.34s.19.12.26.43a9.15,9.15,0,0,0,2.15,3.86,4.32,4.32,0,0,0,2.6,1.37c.55,0,1-.3,1.19-1.1a3.33,3.33,0,0,0,.08-.73c0-2-1.45-5-2.7-6.6s-3.17-3.25-4.73-3.25a1.75,1.75,0,0,0-1.5.8,2.61,2.61,0,0,0-.35,1.46c0,3.1,2.9,9,5.24,11.87s5,5,7.07,5a1.9,1.9,0,0,0,2-2.17,3.9,3.9,0,0,0-.71-2.5.24.24,0,0,0-.23-.09c-.06,0-.07.09-.08.23s-.28.59-.54.48a1,1,0,0,1-.54-1.1.65.65,0,0,1,.65-.62.81.81,0,0,1,.51.19,5.31,5.31,0,0,1,1.49,3.84c0,2-1.05,3-2.54,3-4.18,0-8.69-7-10.66-11.38-.68-1.52-2-4.72-2-6.95A3.13,3.13,0,0,1,200.8,26.25Z"/><path d="M168.93,30.71c.39,2.2-.36,5.57-.77,7.2-1.17,4.67-4.4,12.32-8.52,13.05-1.47.26-2.67-.52-3-2.51a5.31,5.31,0,0,1,.8-4,.84.84,0,0,1,.47-.28.64.64,0,0,1,.74.5,1,1,0,0,1-.33,1.18c-.24.15-.56-.1-.62-.38s-.06-.2-.11-.21a.24.24,0,0,0-.22.13,3.81,3.81,0,0,0-.26,2.58,1.9,1.9,0,0,0,2.33,1.79c2-.36,4.2-2.76,6.1-6.14s3.64-9.54,3.1-12.6a2.56,2.56,0,0,0-.6-1.37,1.75,1.75,0,0,0-1.61-.53c-1.54.27-3.21,2.29-4.1,4s-1.86,5-1.51,7a3,3,0,0,0,.2.7,1.2,1.2,0,0,0,1.37.88,4.37,4.37,0,0,0,2.32-1.8,9.21,9.21,0,0,0,1.44-4.18c0-.31.11-.45.18-.47s.14.11.14.32a10,10,0,0,1-1.54,4.78,4.21,4.21,0,0,1-2.64,1.92,1.9,1.9,0,0,1-2.14-1,4.38,4.38,0,0,1-.39-1.19,12.53,12.53,0,0,1,1.9-7.76,7.52,7.52,0,0,1,4.57-3.67,2.12,2.12,0,0,1,2.09.64A3.16,3.16,0,0,1,168.93,30.71Z"/><path d="M170.77,28.76a2.16,2.16,0,0,1,1.75-1.32,7.58,7.58,0,0,1,5.55,1.89c2.28,1.87,4.05,4.51,4.43,6.64a4.16,4.16,0,0,1,.05,1.26,1.9,1.9,0,0,1-1.66,1.71,4.23,4.23,0,0,1-3.14-.91,9.91,9.91,0,0,1-3.08-4c-.07-.2-.06-.33,0-.34s.2.09.33.37a9.32,9.32,0,0,0,2.79,3.44,4.31,4.31,0,0,0,2.79.89c.55-.09,1-.47,1-1.29a3.09,3.09,0,0,0-.05-.73c-.35-2-2.3-4.67-3.81-6s-3.68-2.65-5.22-2.38a1.73,1.73,0,0,0-1.33,1.05,2.49,2.49,0,0,0-.1,1.49c.54,3.06,4.42,8.36,7.23,10.78s5.78,4,7.82,3.69a1.9,1.9,0,0,0,1.58-2.48,3.87,3.87,0,0,0-1.13-2.34.27.27,0,0,0-.24,0c-.05,0-.05.1,0,.24s-.17.63-.45.57a1.05,1.05,0,0,1-.72-1,.64.64,0,0,1,.53-.72.76.76,0,0,1,.53.1,5.27,5.27,0,0,1,2.14,3.51c.35,2-.51,3.14-2,3.4-4.12.73-9.77-5.36-12.47-9.35-.94-1.39-2.8-4.3-3.18-6.5A3.17,3.17,0,0,1,170.77,28.76Z"/><path d="M140.15,38.69c.77,2.1.62,5.55.5,7.22-.34,4.81-2.2,12.9-6.13,14.33-1.4.51-2.72,0-3.41-1.94a5.28,5.28,0,0,1,.09-4.12.84.84,0,0,1,.42-.36.64.64,0,0,1,.81.37,1,1,0,0,1-.13,1.22c-.21.19-.56,0-.66-.27s-.1-.19-.16-.19a.28.28,0,0,0-.19.16,3.91,3.91,0,0,0,.19,2.6,1.9,1.9,0,0,0,2.61,1.35c1.95-.71,3.66-3.45,4.94-7.1s1.93-10,.86-13a2.46,2.46,0,0,0-.83-1.25,1.74,1.74,0,0,0-1.67-.24c-1.47.54-2.76,2.82-3.34,4.67s-1,5.23-.28,7.13a3.68,3.68,0,0,0,.32.66,1.2,1.2,0,0,0,1.5.62,4.29,4.29,0,0,0,2-2.17,9.26,9.26,0,0,0,.7-4.37c0-.31,0-.46.1-.49s.15.08.19.29a9.92,9.92,0,0,1-.69,5,4.25,4.25,0,0,1-2.27,2.36,1.9,1.9,0,0,1-2.28-.66,4,4,0,0,1-.59-1.11c-.74-2-.53-5.21.52-8A7.55,7.55,0,0,1,137.1,37a2.15,2.15,0,0,1,2.17.27A3.08,3.08,0,0,1,140.15,38.69Z"/><path d="M141.63,36.45a2.15,2.15,0,0,1,1.49-1.6,7.57,7.57,0,0,1,5.79.89c2.58,1.45,4.78,3.74,5.52,5.78a4.26,4.26,0,0,1,.27,1.22,1.92,1.92,0,0,1-1.33,2,4.27,4.27,0,0,1-3.26-.35A10,10,0,0,1,146.39,41c-.11-.19-.11-.32,0-.35s.22.06.39.31a9.17,9.17,0,0,0,3.35,2.9,4.29,4.29,0,0,0,2.9.4,1.2,1.2,0,0,0,.75-1.44,3.22,3.22,0,0,0-.18-.71c-.69-1.9-3.08-4.21-4.79-5.28s-4.09-2-5.56-1.44a1.74,1.74,0,0,0-1.13,1.27,2.56,2.56,0,0,0,.16,1.48c1.07,2.92,5.8,7.47,9,9.37s6.4,3,8.35,2.27a1.91,1.91,0,0,0,1.13-2.72A3.9,3.9,0,0,0,159.19,45a.28.28,0,0,0-.26,0s0,.1,0,.24-.06.65-.34.64-.74-.32-.88-.86a.64.64,0,0,1,.39-.8.86.86,0,0,1,.55,0,5.31,5.31,0,0,1,2.71,3.09c.69,1.9,0,3.18-1.36,3.69-3.93,1.43-10.55-3.58-13.91-7-1.16-1.21-3.5-3.76-4.26-5.86A3.15,3.15,0,0,1,141.63,36.45Z"/><path d="M113.2,51.54c1.12,1.94,1.57,5.37,1.74,7,.5,4.8.08,13.09-3.54,15.18-1.29.75-2.69.43-3.7-1.32a5.26,5.26,0,0,1-.62-4.07.8.8,0,0,1,.34-.43.65.65,0,0,1,.87.22,1,1,0,0,1,.08,1.22c-.17.23-.55.09-.7-.15s-.13-.17-.18-.16a.29.29,0,0,0-.17.2,4,4,0,0,0,.64,2.52,1.9,1.9,0,0,0,2.81.88c1.79-1,3-4,3.63-7.85.59-3.66.15-10.21-1.4-12.9a2.54,2.54,0,0,0-1-1.09,1.76,1.76,0,0,0-1.7.06c-1.35.78-2.22,3.25-2.47,5.18s0,5.31,1,7.06a3.45,3.45,0,0,0,.43.59,1.2,1.2,0,0,0,1.59.36,4.36,4.36,0,0,0,1.56-2.48,9.2,9.2,0,0,0-.07-4.43c-.08-.3-.06-.46,0-.5s.17.05.24.26a10,10,0,0,1,.19,5,4.23,4.23,0,0,1-1.83,2.71,1.89,1.89,0,0,1-2.37-.25,4.14,4.14,0,0,1-.77-1c-1.08-1.87-1.42-5-.87-7.93a7.6,7.6,0,0,1,3-5,2.16,2.16,0,0,1,2.19-.11A3.23,3.23,0,0,1,113.2,51.54Z"/><path d="M114.26,49.09a2.17,2.17,0,0,1,1.2-1.84,7.57,7.57,0,0,1,5.86-.13c2.78,1,5.35,2.86,6.43,4.73a4.08,4.08,0,0,1,.48,1.16,1.92,1.92,0,0,1-1,2.18,4.21,4.21,0,0,1-3.26.22,9.89,9.89,0,0,1-4.25-2.67c-.14-.16-.17-.29-.1-.33s.22,0,.44.24a9.28,9.28,0,0,0,3.79,2.28,4.35,4.35,0,0,0,2.93-.12,1.19,1.19,0,0,0,.49-1.55,3.55,3.55,0,0,0-.3-.67c-1-1.75-3.76-3.6-5.64-4.37S117,47,115.64,47.78a1.72,1.72,0,0,0-.89,1.44,2.5,2.5,0,0,0,.42,1.43c1.55,2.69,7,6.35,10.47,7.66,3.63,1.38,6.82,1.83,8.62.79a1.91,1.91,0,0,0,.64-2.87A3.84,3.84,0,0,0,133,54.42c-.12,0-.22,0-.24,0s0,.11,0,.24.06.64-.22.68a1,1,0,0,1-1-.68.64.64,0,0,1,.25-.86.77.77,0,0,1,.54-.09,5.34,5.34,0,0,1,3.21,2.57c1,1.75.59,3.12-.7,3.87-3.63,2.09-11-1.69-14.92-4.52-1.35-1-4.1-3.09-5.22-5A3.21,3.21,0,0,1,114.26,49.09Z"/><path d="M88.89,68.89c1.44,1.71,2.48,5,2.94,6.61,1.32,4.64,2.35,12.88-.86,15.57-1.14,1-2.57.88-3.87-.67a5.26,5.26,0,0,1-1.32-3.89.76.76,0,0,1,.27-.48.64.64,0,0,1,.89.06,1,1,0,0,1,.29,1.19c-.13.25-.52.19-.72,0s-.15-.15-.21-.13a.27.27,0,0,0-.12.22,3.9,3.9,0,0,0,1.07,2.37,1.89,1.89,0,0,0,2.91.38c1.59-1.33,2.26-4.49,2.21-8.36-.05-3.71-1.62-10.09-3.61-12.46a2.48,2.48,0,0,0-1.21-.89,1.74,1.74,0,0,0-1.66.35c-1.19,1-1.62,3.58-1.54,5.53s.88,5.24,2.18,6.79a3.62,3.62,0,0,0,.53.51,1.19,1.19,0,0,0,1.62.07,4.35,4.35,0,0,0,1.11-2.71A9.35,9.35,0,0,0,89,74.58c-.14-.28-.14-.44-.07-.49s.17,0,.27.2a10,10,0,0,1,1.06,4.91,4.29,4.29,0,0,1-1.33,3,1.9,1.9,0,0,1-2.38.16,4,4,0,0,1-.92-.84c-1.4-1.66-2.28-4.71-2.25-7.66a7.58,7.58,0,0,1,2.13-5.47,2.13,2.13,0,0,1,2.13-.49A3.15,3.15,0,0,1,88.89,68.89Z"/><path d="M89.51,66.28a2.13,2.13,0,0,1,.86-2,7.56,7.56,0,0,1,5.75-1.15,12.57,12.57,0,0,1,7.16,3.54,4.32,4.32,0,0,1,.66,1.06,1.9,1.9,0,0,1-.57,2.31,4.19,4.19,0,0,1-3.17.79,10,10,0,0,1-4.65-1.89c-.17-.14-.22-.26-.16-.31s.22,0,.47.16A9.16,9.16,0,0,0,100,70.36a4.28,4.28,0,0,0,2.86-.62,1.19,1.19,0,0,0,.21-1.61,3.62,3.62,0,0,0-.41-.61c-1.3-1.55-4.33-2.9-6.31-3.32s-4.52-.45-5.71.55A1.74,1.74,0,0,0,90,66.33a2.58,2.58,0,0,0,.66,1.34c2,2.38,8,5,11.65,5.72,3.81.72,7,.61,8.62-.72a1.9,1.9,0,0,0,.13-2.94,3.9,3.9,0,0,0-2.15-1.46.29.29,0,0,0-.24.08c0,.05,0,.11.09.23s.17.63-.1.71a1,1,0,0,1-1.12-.49.64.64,0,0,1,.09-.89.81.81,0,0,1,.52-.18,5.31,5.31,0,0,1,3.61,2c1.3,1.55,1.12,3,0,3.94-3.21,2.68-11.14.24-15.48-1.87-1.5-.73-4.57-2.33-6-4A3.1,3.1,0,0,1,89.51,66.28Z"/><path d="M68,90.18c1.71,1.44,3.31,4.51,4,6,2.11,4.34,4.55,12.27,1.86,15.48-1,1.14-2.38,1.32-3.93,0a5.27,5.27,0,0,1-2-3.61.76.76,0,0,1,.18-.52.63.63,0,0,1,.88-.09,1,1,0,0,1,.5,1.12c-.09.27-.48.27-.71.1s-.18-.12-.23-.09a.26.26,0,0,0-.08.24A3.84,3.84,0,0,0,70,111a1.9,1.9,0,0,0,2.94-.13c1.33-1.59,1.44-4.82.72-8.62-.69-3.65-3.35-9.65-5.72-11.65a2.46,2.46,0,0,0-1.35-.66,1.73,1.73,0,0,0-1.57.63c-1,1.19-1,3.81-.55,5.71s1.77,5,3.32,6.31a3.26,3.26,0,0,0,.61.41,1.19,1.19,0,0,0,1.61-.21,4.4,4.4,0,0,0,.62-2.86A9.28,9.28,0,0,0,69,95.78c-.18-.25-.21-.41-.16-.47s.17,0,.31.16a10,10,0,0,1,1.89,4.64,4.25,4.25,0,0,1-.79,3.18,1.9,1.9,0,0,1-2.31.57,4.08,4.08,0,0,1-1.06-.67C65.23,101.8,63.83,99,63.35,96a7.55,7.55,0,0,1,1.14-5.74,2.15,2.15,0,0,1,2-.86A3.12,3.12,0,0,1,68,90.18Z"/><path d="M68.12,87.51a2.13,2.13,0,0,1,.49-2.13,7.57,7.57,0,0,1,5.47-2.13c3,0,6,.85,7.66,2.24a4.26,4.26,0,0,1,.84.93,1.91,1.91,0,0,1-.16,2.38,4.29,4.29,0,0,1-3,1.33,10,10,0,0,1-4.91-1.06c-.19-.11-.26-.22-.2-.28s.21-.06.49.08a9.35,9.35,0,0,0,4.35.84,4.35,4.35,0,0,0,2.71-1.11A1.19,1.19,0,0,0,81.79,87a3.09,3.09,0,0,0-.5-.53c-1.55-1.3-4.77-2.1-6.8-2.18S70,84.62,69,85.81a1.7,1.7,0,0,0-.35,1.66,2.52,2.52,0,0,0,.88,1.21c2.38,2,8.76,3.56,12.47,3.61,3.87,0,7-.62,8.36-2.21A1.9,1.9,0,0,0,90,87.17a3.83,3.83,0,0,0-2.37-1.07.25.25,0,0,0-.22.12c0,.06,0,.11.13.21s.27.59,0,.72a1,1,0,0,1-1.19-.29.65.65,0,0,1-.06-.9.8.8,0,0,1,.48-.26A5.26,5.26,0,0,1,90.63,87c1.55,1.3,1.63,2.73.66,3.87-2.68,3.21-10.92,2.18-15.56.85-1.61-.45-4.9-1.49-6.62-2.93A3.12,3.12,0,0,1,68.12,87.51Z"/><path d="M51.05,114.79c1.93,1.12,4,3.86,5,5.22,2.83,3.9,6.61,11.29,4.52,14.92-.75,1.29-2.12,1.71-3.87.7a5.3,5.3,0,0,1-2.57-3.21.77.77,0,0,1,.09-.54.64.64,0,0,1,.86-.25,1,1,0,0,1,.68,1c0,.28-.43.35-.68.22s-.2-.08-.24-.05a.26.26,0,0,0,0,.25,3.88,3.88,0,0,0,1.81,1.87,1.9,1.9,0,0,0,2.87-.65c1-1.79.59-5-.79-8.61-1.31-3.47-5-8.92-7.66-10.47a2.5,2.5,0,0,0-1.43-.42,1.72,1.72,0,0,0-1.44.89c-.78,1.35-.3,3.93.44,5.72S51.24,126,53,127a3.55,3.55,0,0,0,.67.3,1.19,1.19,0,0,0,1.55-.49,4.35,4.35,0,0,0,.12-2.93,9.21,9.21,0,0,0-2.28-3.79c-.22-.22-.28-.37-.24-.44s.17,0,.33.1A9.89,9.89,0,0,1,55.81,124a4.25,4.25,0,0,1-.22,3.26,1.92,1.92,0,0,1-2.18,1,4.08,4.08,0,0,1-1.16-.48c-1.87-1.08-3.75-3.65-4.73-6.43a7.57,7.57,0,0,1,.13-5.86,2.17,2.17,0,0,1,1.84-1.2A3.21,3.21,0,0,1,51.05,114.79Z"/><path d="M50.74,112.13a2.14,2.14,0,0,1,.11-2.18,7.57,7.57,0,0,1,5-3c2.9-.55,6.06-.21,7.93.87a3.9,3.9,0,0,1,1,.77,1.89,1.89,0,0,1,.25,2.37,4.21,4.21,0,0,1-2.71,1.82,9.88,9.88,0,0,1-5-.18c-.21-.07-.3-.17-.26-.24s.2-.1.5,0a9.33,9.33,0,0,0,4.43.07,4.36,4.36,0,0,0,2.48-1.56,1.2,1.2,0,0,0-.36-1.59,3,3,0,0,0-.59-.43c-1.75-1-5.06-1.24-7.06-1s-4.4,1.12-5.18,2.47a1.76,1.76,0,0,0-.06,1.7,2.49,2.49,0,0,0,1.09,1c2.69,1.55,9.24,2,12.9,1.4,3.82-.63,6.81-1.84,7.85-3.63a1.9,1.9,0,0,0-.88-2.81,4,4,0,0,0-2.52-.64.29.29,0,0,0-.2.17s.05.1.16.18.37.53.15.7a1,1,0,0,1-1.22-.08.65.65,0,0,1-.22-.87.76.76,0,0,1,.43-.34,5.24,5.24,0,0,1,4.06.62c1.76,1,2.08,2.41,1.33,3.7-2.09,3.62-10.38,4-15.18,3.54-1.66-.17-5.09-.62-7-1.74A3.17,3.17,0,0,1,50.74,112.13Z"/><path d="M38.66,142c2.1.76,4.65,3.1,5.85,4.26,3.47,3.35,8.48,10,7.05,13.91-.51,1.4-1.79,2.05-3.69,1.36a5.29,5.29,0,0,1-3.09-2.72.83.83,0,0,1,0-.54.63.63,0,0,1,.8-.39,1,1,0,0,1,.86.88c0,.28-.37.42-.64.34s-.21,0-.24,0a.28.28,0,0,0,0,.26,4,4,0,0,0,2.11,1.52,1.91,1.91,0,0,0,2.72-1.14c.7-1.94-.29-5-2.27-8.34s-6.45-7.92-9.37-9a2.51,2.51,0,0,0-1.49-.16A1.75,1.75,0,0,0,36,143.34c-.53,1.46.39,3.92,1.44,5.56s3.38,4.1,5.28,4.79a3.22,3.22,0,0,0,.71.18,1.2,1.2,0,0,0,1.44-.75,4.28,4.28,0,0,0-.4-2.9,9.17,9.17,0,0,0-2.9-3.35c-.25-.18-.34-.32-.31-.39s.16-.07.35,0A9.92,9.92,0,0,1,45,150.24a4.25,4.25,0,0,1,.35,3.25,1.92,1.92,0,0,1-2,1.34,4.26,4.26,0,0,1-1.22-.27c-2-.74-4.33-2.94-5.78-5.52a7.58,7.58,0,0,1-.89-5.79,2.16,2.16,0,0,1,1.6-1.5A3.28,3.28,0,0,1,38.66,142Z"/><path d="M37.9,139.4a2.15,2.15,0,0,1-.27-2.17A7.59,7.59,0,0,1,42,133.36c2.76-1,5.94-1.25,8-.51a4,4,0,0,1,1.11.58,1.92,1.92,0,0,1,.66,2.29A4.25,4.25,0,0,1,49.42,138a10,10,0,0,1-5,.69c-.21,0-.32-.12-.29-.19s.18-.13.49-.1a9.26,9.26,0,0,0,4.37-.7,4.34,4.34,0,0,0,2.17-2,1.2,1.2,0,0,0-.62-1.5,3.11,3.11,0,0,0-.66-.32c-1.9-.69-5.2-.34-7.13.28s-4.13,1.87-4.67,3.33a1.75,1.75,0,0,0,.24,1.68,2.46,2.46,0,0,0,1.25.83c2.92,1.06,9.44.36,12.95-.86s6.39-3,7.1-4.94a1.9,1.9,0,0,0-1.35-2.61,3.91,3.91,0,0,0-2.6-.19.28.28,0,0,0-.16.19c0,.06.06.09.19.15s.46.46.27.67a1,1,0,0,1-1.22.13.65.65,0,0,1-.37-.82.86.86,0,0,1,.36-.41,5.28,5.28,0,0,1,4.12-.09c1.9.69,2.45,2,1.94,3.41-1.43,3.93-9.52,5.78-14.33,6.13-1.67.12-5.12.27-7.22-.5A3.08,3.08,0,0,1,37.9,139.4Z"/><path d="M31.19,170.88c2.2.39,5.11,2.24,6.5,3.18,4,2.7,10.08,8.35,9.35,12.47-.26,1.47-1.4,2.33-3.39,2a5.3,5.3,0,0,1-3.52-2.13.8.8,0,0,1-.1-.54.65.65,0,0,1,.72-.53,1,1,0,0,1,1,.72c.06.28-.28.49-.56.45s-.22,0-.24,0a.25.25,0,0,0,0,.25,4,4,0,0,0,2.34,1.13,1.91,1.91,0,0,0,2.48-1.59c.36-2-1.15-4.89-3.68-7.82s-7.73-6.69-10.78-7.23a2.6,2.6,0,0,0-1.5.1,1.72,1.72,0,0,0-1,1.33c-.28,1.54,1.06,3.8,2.37,5.23s4,3.45,6,3.8a3.13,3.13,0,0,0,.73.05,1.2,1.2,0,0,0,1.3-1,4.39,4.39,0,0,0-.9-2.8,9.17,9.17,0,0,0-3.44-2.79c-.28-.13-.38-.25-.37-.33s.14-.09.34,0a10,10,0,0,1,4,3.08,4.27,4.27,0,0,1,.9,3.15A1.9,1.9,0,0,1,38,182.73a4.09,4.09,0,0,1-1.25,0c-2.14-.37-4.78-2.15-6.65-4.43a7.54,7.54,0,0,1-1.88-5.55A2.14,2.14,0,0,1,29.55,171,3.19,3.19,0,0,1,31.19,170.88Z"/><path d="M30,168.48a2.11,2.11,0,0,1-.64-2.09A7.52,7.52,0,0,1,33,161.82c2.54-1.51,5.63-2.27,7.76-1.89a4.05,4.05,0,0,1,1.19.38A1.91,1.91,0,0,1,43,162.45a4.2,4.2,0,0,1-1.93,2.64,10,10,0,0,1-4.78,1.54c-.21,0-.33-.06-.31-.13s.15-.16.46-.19a9.21,9.21,0,0,0,4.18-1.44,4.34,4.34,0,0,0,1.8-2.32,1.19,1.19,0,0,0-.88-1.37,3.39,3.39,0,0,0-.7-.2c-2-.35-5.18.56-7,1.51s-3.75,2.56-4,4.1a1.74,1.74,0,0,0,.53,1.61,2.52,2.52,0,0,0,1.37.6c3.06.54,9.36-1.29,12.6-3.1s5.78-4,6.14-6.09a1.9,1.9,0,0,0-1.79-2.34,3.88,3.88,0,0,0-2.58.26c-.11.08-.14.17-.13.22s.07.08.21.11.53.38.38.62a1.05,1.05,0,0,1-1.18.34.66.66,0,0,1-.5-.75.85.85,0,0,1,.28-.46,5.26,5.26,0,0,1,4-.81c2,.35,2.77,1.55,2.51,3-.73,4.12-8.38,7.35-13,8.52-1.62.41-5,1.16-7.2.77A3.16,3.16,0,0,1,30,168.48Z"/><path d="M28.85,200.65c2.23,0,5.42,1.32,6.95,2,4.4,2,11.38,6.48,11.38,10.66,0,1.49-1,2.54-3,2.54a5.31,5.31,0,0,1-3.84-1.49.81.81,0,0,1-.19-.51.65.65,0,0,1,.62-.65,1,1,0,0,1,1.1.54c.11.26-.19.53-.48.54s-.21,0-.23.08a.24.24,0,0,0,.09.23,3.9,3.9,0,0,0,2.5.71,1.9,1.9,0,0,0,2.17-2c0-2.07-2-4.62-5-7.07S32.16,201,29.06,201a2.53,2.53,0,0,0-1.46.36,1.72,1.72,0,0,0-.8,1.49c0,1.56,1.71,3.55,3.25,4.73s4.58,2.7,6.6,2.7a3.33,3.33,0,0,0,.73-.08c.8-.18,1.1-.64,1.1-1.19a4.32,4.32,0,0,0-1.37-2.6,9,9,0,0,0-3.86-2.14c-.31-.08-.43-.19-.43-.27s.12-.12.34-.08a10,10,0,0,1,4.43,2.35A4.22,4.22,0,0,1,39,209.21a1.9,1.9,0,0,1-1.4,1.92,4.09,4.09,0,0,1-1.24.17,12.45,12.45,0,0,1-7.31-3.21A7.57,7.57,0,0,1,26.25,203a2.15,2.15,0,0,1,1-1.95A3.13,3.13,0,0,1,28.85,200.65Z"/><path d="M27.25,198.5a2.15,2.15,0,0,1-1-1.95,7.57,7.57,0,0,1,2.83-5.14,12.45,12.45,0,0,1,7.31-3.21,4.09,4.09,0,0,1,1.24.17,1.9,1.9,0,0,1,1.4,1.92,4.22,4.22,0,0,1-1.44,2.94,10,10,0,0,1-4.43,2.35c-.22,0-.34,0-.34-.08s.12-.19.43-.26a9.15,9.15,0,0,0,3.86-2.15,4.32,4.32,0,0,0,1.37-2.6c0-.55-.3-1-1.1-1.19a3.33,3.33,0,0,0-.73-.08c-2,0-5,1.45-6.6,2.7s-3.25,3.17-3.25,4.73a1.75,1.75,0,0,0,.8,1.5,2.61,2.61,0,0,0,1.46.35c3.1,0,9-2.9,11.87-5.24s5-5,5-7.07a1.9,1.9,0,0,0-2.17-2,3.9,3.9,0,0,0-2.5.71.24.24,0,0,0-.09.23c0,.05.09.07.23.08s.59.28.48.54a1,1,0,0,1-1.1.54.65.65,0,0,1-.62-.65.81.81,0,0,1,.19-.51,5.31,5.31,0,0,1,3.84-1.49c2,0,3,1,3,2.54,0,4.18-7,8.69-11.38,10.66-1.53.68-4.72,2-6.95,2A3.13,3.13,0,0,1,27.25,198.5Z"/><path d="M31.71,230.37c2.2-.39,5.57.36,7.2.77,4.67,1.17,12.32,4.4,13.05,8.52.26,1.47-.52,2.67-2.51,3a5.31,5.31,0,0,1-4-.8.84.84,0,0,1-.28-.47.64.64,0,0,1,.5-.74,1,1,0,0,1,1.18.33c.15.24-.1.55-.38.62s-.2.06-.21.11a.24.24,0,0,0,.13.22,3.81,3.81,0,0,0,2.58.26,1.9,1.9,0,0,0,1.79-2.33c-.36-2-2.76-4.2-6.14-6.1S35,230.14,32,230.68a2.56,2.56,0,0,0-1.37.6,1.75,1.75,0,0,0-.53,1.61c.27,1.54,2.29,3.21,4,4.1s5,1.86,7,1.51a3,3,0,0,0,.7-.2,1.2,1.2,0,0,0,.88-1.37,4.37,4.37,0,0,0-1.8-2.32,9.21,9.21,0,0,0-4.18-1.44c-.31,0-.45-.11-.47-.19s.11-.13.32-.13a10,10,0,0,1,4.78,1.54A4.22,4.22,0,0,1,43.22,237a1.9,1.9,0,0,1-1,2.14,4.38,4.38,0,0,1-1.19.39,12.53,12.53,0,0,1-7.76-1.9,7.52,7.52,0,0,1-3.67-4.57A2.12,2.12,0,0,1,30.2,231,3.16,3.16,0,0,1,31.71,230.37Z"/><path d="M29.76,228.53a2.16,2.16,0,0,1-1.32-1.75,7.56,7.56,0,0,1,1.89-5.55c1.87-2.28,4.51-4,6.64-4.43a4.16,4.16,0,0,1,1.26-.05,1.9,1.9,0,0,1,1.71,1.66,4.26,4.26,0,0,1-.9,3.14,10,10,0,0,1-4,3.08c-.2.07-.33.06-.34,0s.09-.2.37-.33a9.32,9.32,0,0,0,3.44-2.79,4.31,4.31,0,0,0,.89-2.79c-.09-.55-.47-.95-1.29-1a3.09,3.09,0,0,0-.73,0c-2,.35-4.67,2.3-6,3.81s-2.65,3.68-2.38,5.22a1.73,1.73,0,0,0,1.05,1.33,2.49,2.49,0,0,0,1.49.1c3.06-.54,8.36-4.42,10.79-7.23s4-5.78,3.68-7.82a1.91,1.91,0,0,0-2.48-1.59,3.91,3.91,0,0,0-2.34,1.14.27.27,0,0,0,0,.24s.1,0,.24,0,.63.17.57.45a1,1,0,0,1-1,.72.64.64,0,0,1-.72-.53.76.76,0,0,1,.1-.53A5.27,5.27,0,0,1,43.85,211c2-.35,3.14.51,3.4,2,.73,4.12-5.36,9.77-9.35,12.47-1.39.94-4.3,2.8-6.5,3.19A3.28,3.28,0,0,1,29.76,228.53Z"/><path d="M39.69,259.15c2.1-.77,5.55-.62,7.22-.5,4.81.34,12.9,2.2,14.33,6.13.51,1.4,0,2.72-1.94,3.41a5.32,5.32,0,0,1-4.12-.09.88.88,0,0,1-.36-.42.64.64,0,0,1,.37-.81,1,1,0,0,1,1.22.13c.19.21,0,.56-.27.66s-.19.1-.19.16a.28.28,0,0,0,.16.19,3.91,3.91,0,0,0,2.6-.19,1.9,1.9,0,0,0,1.35-2.61c-.71-1.95-3.45-3.66-7.1-4.94s-10-1.93-13-.86a2.46,2.46,0,0,0-1.25.83,1.74,1.74,0,0,0-.24,1.67c.54,1.47,2.82,2.76,4.67,3.34s5.23,1,7.13.28a3.68,3.68,0,0,0,.66-.32,1.2,1.2,0,0,0,.62-1.5,4.29,4.29,0,0,0-2.17-2,9.26,9.26,0,0,0-4.37-.7c-.31,0-.46,0-.49-.1s.08-.15.29-.19a9.92,9.92,0,0,1,5,.69,4.27,4.27,0,0,1,2.36,2.26,1.91,1.91,0,0,1-.66,2.29,4,4,0,0,1-1.11.59c-2,.74-5.21.53-8-.52A7.58,7.58,0,0,1,38,262.2a2.15,2.15,0,0,1,.27-2.17A3.08,3.08,0,0,1,39.69,259.15Z"/><path d="M37.45,257.67a2.15,2.15,0,0,1-1.6-1.49,7.54,7.54,0,0,1,.9-5.79c1.44-2.58,3.73-4.78,5.77-5.52a4.26,4.26,0,0,1,1.22-.27,1.92,1.92,0,0,1,2,1.33,4.27,4.27,0,0,1-.35,3.26A10,10,0,0,1,42,252.91c-.19.11-.32.11-.35,0s.06-.22.31-.39a9.17,9.17,0,0,0,2.9-3.35,4.29,4.29,0,0,0,.4-2.9,1.2,1.2,0,0,0-1.44-.75,3.22,3.22,0,0,0-.71.18c-1.9.69-4.21,3.08-5.28,4.79s-2,4.09-1.44,5.56a1.74,1.74,0,0,0,1.27,1.13,2.56,2.56,0,0,0,1.48-.16c2.92-1.07,7.47-5.8,9.37-9s3-6.4,2.27-8.35a1.91,1.91,0,0,0-2.72-1.13A3.9,3.9,0,0,0,46,240.11a.26.26,0,0,0,0,.25s.1,0,.24,0,.65.06.64.34-.32.74-.85.88a.65.65,0,0,1-.81-.39.86.86,0,0,1,0-.55,5.31,5.31,0,0,1,3.09-2.71c1.9-.69,3.18,0,3.69,1.36,1.43,3.93-3.58,10.55-7,13.91-1.21,1.16-3.76,3.5-5.85,4.26A3.2,3.2,0,0,1,37.45,257.67Z"/><path d="M52.54,286.1c1.94-1.12,5.37-1.57,7-1.74,4.8-.5,13.09-.08,15.18,3.54.75,1.29.43,2.69-1.33,3.7a5.24,5.24,0,0,1-4.06.62.8.8,0,0,1-.43-.34.65.65,0,0,1,.22-.87,1,1,0,0,1,1.22-.08c.22.17.09.55-.15.7s-.17.13-.16.18a.29.29,0,0,0,.2.17,4,4,0,0,0,2.52-.64,1.9,1.9,0,0,0,.88-2.81c-1-1.79-4-3-7.85-3.63-3.66-.59-10.22-.15-12.9,1.4a2.49,2.49,0,0,0-1.09,1,1.76,1.76,0,0,0,.06,1.7c.78,1.35,3.25,2.22,5.18,2.47s5.31.05,7.06-1a3.45,3.45,0,0,0,.59-.43,1.2,1.2,0,0,0,.36-1.59A4.36,4.36,0,0,0,62.59,287a9.33,9.33,0,0,0-4.43.07c-.3.08-.46.06-.5,0s.05-.17.26-.24a9.88,9.88,0,0,1,5-.18,4.21,4.21,0,0,1,2.71,1.82,1.89,1.89,0,0,1-.25,2.37,3.9,3.9,0,0,1-1,.77c-1.87,1.08-5,1.42-7.93.87a7.57,7.57,0,0,1-5-3,2.16,2.16,0,0,1-.11-2.19A3.23,3.23,0,0,1,52.54,286.1Z"/><path d="M50.09,285a2.17,2.17,0,0,1-1.84-1.2,7.57,7.57,0,0,1-.13-5.86c1-2.78,2.86-5.35,4.73-6.43a4.08,4.08,0,0,1,1.16-.48,1.92,1.92,0,0,1,2.18,1,4.25,4.25,0,0,1,.22,3.26,9.89,9.89,0,0,1-2.67,4.25c-.16.14-.29.17-.33.1s0-.22.24-.44a9.21,9.21,0,0,0,2.28-3.79,4.35,4.35,0,0,0-.12-2.93,1.19,1.19,0,0,0-1.55-.49,3.55,3.55,0,0,0-.67.3c-1.75,1-3.6,3.76-4.37,5.64s-1.22,4.37-.44,5.72a1.72,1.72,0,0,0,1.44.89,2.5,2.5,0,0,0,1.43-.42c2.69-1.55,6.35-7,7.66-10.47,1.38-3.63,1.83-6.82.79-8.62a1.91,1.91,0,0,0-2.87-.64,3.88,3.88,0,0,0-1.81,1.87.26.26,0,0,0,0,.25s.11,0,.24,0,.64-.06.68.22a1,1,0,0,1-.68,1,.64.64,0,0,1-.86-.25.77.77,0,0,1-.09-.54,5.34,5.34,0,0,1,2.57-3.21c1.75-1,3.12-.59,3.87.7,2.09,3.63-1.69,11-4.52,14.92-1,1.35-3.09,4.1-5,5.22A3.21,3.21,0,0,1,50.09,285Z"/><path d="M69.89,310.41c1.71-1.44,5-2.48,6.61-2.94,4.64-1.32,12.88-2.35,15.57.85,1,1.15.88,2.58-.67,3.88a5.26,5.26,0,0,1-3.89,1.32.8.8,0,0,1-.48-.27.64.64,0,0,1,.06-.89,1,1,0,0,1,1.19-.29c.25.13.19.52,0,.72s-.15.15-.13.21a.25.25,0,0,0,.22.12,3.9,3.9,0,0,0,2.37-1.07,1.89,1.89,0,0,0,.38-2.91c-1.33-1.59-4.49-2.26-8.36-2.21-3.71.05-10.09,1.62-12.46,3.61a2.48,2.48,0,0,0-.89,1.21,1.74,1.74,0,0,0,.35,1.66c1,1.19,3.58,1.62,5.53,1.53s5.24-.87,6.79-2.17a3.62,3.62,0,0,0,.51-.53,1.19,1.19,0,0,0,.07-1.62,4.35,4.35,0,0,0-2.71-1.11,9.23,9.23,0,0,0-4.35.84c-.28.13-.44.13-.49.07s0-.17.2-.27a10,10,0,0,1,4.91-1.06,4.29,4.29,0,0,1,3,1.33,1.89,1.89,0,0,1,.16,2.37,4,4,0,0,1-.84.93c-1.66,1.4-4.71,2.28-7.66,2.24a7.54,7.54,0,0,1-5.47-2.12,2.13,2.13,0,0,1-.49-2.13A3.15,3.15,0,0,1,69.89,310.41Z"/><path d="M67.28,309.79a2.15,2.15,0,0,1-2-.86,7.56,7.56,0,0,1-1.14-5.75A12.57,12.57,0,0,1,67.66,296a4.32,4.32,0,0,1,1.06-.66,1.9,1.9,0,0,1,2.31.57,4.19,4.19,0,0,1,.79,3.17,10,10,0,0,1-1.89,4.65c-.14.17-.26.22-.31.16s0-.22.16-.47a9.16,9.16,0,0,0,1.58-4.14,4.28,4.28,0,0,0-.62-2.86,1.19,1.19,0,0,0-1.61-.21,3.11,3.11,0,0,0-.61.41C67,297.94,65.62,301,65.2,303s-.45,4.52.55,5.71a1.74,1.74,0,0,0,1.58.63,2.58,2.58,0,0,0,1.34-.66c2.38-2,5-8,5.72-11.65.72-3.81.61-7-.72-8.62a1.9,1.9,0,0,0-2.94-.13,3.9,3.9,0,0,0-1.46,2.15.29.29,0,0,0,.08.24c.05,0,.11,0,.23-.09s.63-.17.71.1a1,1,0,0,1-.49,1.12.64.64,0,0,1-.89-.09.81.81,0,0,1-.18-.52,5.27,5.27,0,0,1,2-3.61c1.55-1.3,3-1.12,3.94,0,2.68,3.21.24,11.14-1.87,15.48-.73,1.5-2.33,4.57-4,6A3.1,3.1,0,0,1,67.28,309.79Z"/><path d="M91.18,331.34c1.44-1.71,4.51-3.31,6-4,4.34-2.11,12.27-4.55,15.48-1.86,1.14,1,1.32,2.38,0,3.93a5.27,5.27,0,0,1-3.61,2,.76.76,0,0,1-.52-.18.63.63,0,0,1-.09-.88,1,1,0,0,1,1.12-.5c.27.08.27.48.1.71s-.12.18-.09.23a.26.26,0,0,0,.24.08,3.84,3.84,0,0,0,2.15-1.46,1.9,1.9,0,0,0-.13-2.94c-1.59-1.33-4.82-1.44-8.62-.72-3.65.69-9.65,3.35-11.65,5.72a2.46,2.46,0,0,0-.66,1.35,1.73,1.73,0,0,0,.63,1.57c1.19,1,3.81,1,5.71.55s5-1.77,6.31-3.32a3.26,3.26,0,0,0,.41-.61,1.19,1.19,0,0,0-.21-1.61,4.28,4.28,0,0,0-2.86-.62,9.28,9.28,0,0,0-4.14,1.58c-.25.18-.41.21-.47.16s0-.17.16-.31a10,10,0,0,1,4.64-1.89,4.25,4.25,0,0,1,3.18.79,1.9,1.9,0,0,1,.57,2.31,4.08,4.08,0,0,1-.67,1.06C102.8,334.07,100,335.47,97,336a7.55,7.55,0,0,1-5.74-1.14,2.15,2.15,0,0,1-.86-2A3.12,3.12,0,0,1,91.18,331.34Z"/><path d="M88.51,331.18a2.13,2.13,0,0,1-2.13-.49,7.57,7.57,0,0,1-2.13-5.47c0-3,.85-6,2.24-7.66a4.26,4.26,0,0,1,.93-.84,1.91,1.91,0,0,1,2.38.16,4.29,4.29,0,0,1,1.33,3,10,10,0,0,1-1.06,4.91c-.11.19-.22.25-.28.2s-.06-.21.08-.49a9.35,9.35,0,0,0,.84-4.35,4.35,4.35,0,0,0-1.11-2.71,1.19,1.19,0,0,0-1.62.08,3.09,3.09,0,0,0-.53.5c-1.3,1.55-2.1,4.77-2.18,6.8s.35,4.52,1.54,5.52a1.72,1.72,0,0,0,1.66.35,2.52,2.52,0,0,0,1.21-.88c2-2.38,3.56-8.76,3.61-12.47,0-3.87-.62-7-2.21-8.36a1.9,1.9,0,0,0-2.91.38,3.83,3.83,0,0,0-1.07,2.37.25.25,0,0,0,.12.22s.11,0,.21-.13.59-.27.72,0a1,1,0,0,1-.29,1.19.65.65,0,0,1-.9.06.8.8,0,0,1-.26-.47,5.27,5.27,0,0,1,1.32-3.9c1.3-1.55,2.73-1.63,3.87-.66,3.21,2.68,2.18,10.92.85,15.56-.45,1.61-1.49,4.9-2.93,6.62A3.12,3.12,0,0,1,88.51,331.18Z"/><path d="M115.79,348.25c1.12-1.93,3.86-4,5.22-5,3.9-2.83,11.29-6.61,14.91-4.52,1.3.74,1.72,2.11.71,3.87a5.34,5.34,0,0,1-3.21,2.57.77.77,0,0,1-.54-.09.64.64,0,0,1-.25-.86,1,1,0,0,1,1-.68c.28,0,.35.43.22.68s-.08.2-.05.24a.26.26,0,0,0,.25,0,3.88,3.88,0,0,0,1.87-1.81,1.9,1.9,0,0,0-.65-2.87c-1.79-1-5-.59-8.61.79-3.47,1.31-8.92,5-10.47,7.66a2.42,2.42,0,0,0-.42,1.43,1.72,1.72,0,0,0,.89,1.44c1.35.78,3.93.3,5.72-.44s4.63-2.62,5.64-4.37a3.55,3.55,0,0,0,.3-.67,1.19,1.19,0,0,0-.49-1.55,4.35,4.35,0,0,0-2.93-.12,9.21,9.21,0,0,0-3.79,2.28c-.22.22-.38.28-.44.24s0-.17.1-.33a9.89,9.89,0,0,1,4.25-2.67,4.25,4.25,0,0,1,3.26.22,1.92,1.92,0,0,1,1,2.18,4.39,4.39,0,0,1-.48,1.16c-1.08,1.87-3.65,3.75-6.43,4.73a7.57,7.57,0,0,1-5.86-.13,2.17,2.17,0,0,1-1.2-1.84A3.21,3.21,0,0,1,115.79,348.25Z"/><path d="M113.13,348.56a2.14,2.14,0,0,1-2.18-.11,7.57,7.57,0,0,1-3-5c-.55-2.9-.21-6.06.87-7.93a3.9,3.9,0,0,1,.77-1,1.89,1.89,0,0,1,2.37-.25,4.21,4.21,0,0,1,1.82,2.71,9.88,9.88,0,0,1-.18,5c-.07.21-.17.3-.24.26s-.1-.2,0-.5a9.33,9.33,0,0,0,.07-4.43,4.36,4.36,0,0,0-1.56-2.48,1.2,1.2,0,0,0-1.59.36,3,3,0,0,0-.43.59c-1,1.75-1.24,5.06-1,7.06s1.12,4.4,2.47,5.18a1.76,1.76,0,0,0,1.7.06,2.49,2.49,0,0,0,1-1.09c1.55-2.69,2-9.24,1.4-12.9-.63-3.82-1.84-6.81-3.63-7.85a1.9,1.9,0,0,0-2.81.88,4,4,0,0,0-.64,2.52.31.31,0,0,0,.16.2c.06,0,.11,0,.19-.16s.53-.37.7-.15a1,1,0,0,1-.08,1.22.66.66,0,0,1-.87.22.76.76,0,0,1-.34-.43,5.24,5.24,0,0,1,.62-4.06c1-1.76,2.41-2.08,3.7-1.33,3.62,2.09,4,10.38,3.54,15.18-.17,1.66-.62,5.09-1.74,7A3.17,3.17,0,0,1,113.13,348.56Z"/><path d="M143,360.64c.76-2.11,3.1-4.66,4.26-5.86,3.35-3.46,10-8.47,13.9-7,1.41.51,2.06,1.79,1.37,3.69a5.29,5.29,0,0,1-2.72,3.09.83.83,0,0,1-.54,0,.65.65,0,0,1-.4-.81,1,1,0,0,1,.89-.85c.28,0,.42.37.34.64s0,.21,0,.24a.26.26,0,0,0,.25,0,3.94,3.94,0,0,0,1.53-2.11,1.91,1.91,0,0,0-1.14-2.72c-1.94-.7-5,.29-8.34,2.27s-7.93,6.45-9,9.37a2.48,2.48,0,0,0-.16,1.48,1.74,1.74,0,0,0,1.13,1.27c1.46.53,3.92-.39,5.56-1.44s4.1-3.38,4.79-5.28a2.71,2.71,0,0,0,.17-.71,1.18,1.18,0,0,0-.74-1.44,4.32,4.32,0,0,0-2.91.4,9.21,9.21,0,0,0-3.34,2.9c-.18.25-.32.33-.39.31s-.07-.16,0-.35a9.92,9.92,0,0,1,3.72-3.36,4.21,4.21,0,0,1,3.25-.35,1.9,1.9,0,0,1,1.33,2,3.93,3.93,0,0,1-.26,1.22c-.74,2-2.94,4.33-5.52,5.77a7.54,7.54,0,0,1-5.79.9,2.16,2.16,0,0,1-1.5-1.6A3.06,3.06,0,0,1,143,360.64Z"/><path d="M140.4,361.4a2.15,2.15,0,0,1-2.17.27,7.59,7.59,0,0,1-3.87-4.41c-1-2.76-1.25-5.94-.51-8a4,4,0,0,1,.58-1.11,1.92,1.92,0,0,1,2.29-.66,4.25,4.25,0,0,1,2.27,2.36,10,10,0,0,1,.69,5c0,.21-.12.32-.19.29s-.13-.18-.1-.49a9.26,9.26,0,0,0-.7-4.37,4.34,4.34,0,0,0-2-2.17,1.2,1.2,0,0,0-1.5.62,3.11,3.11,0,0,0-.32.66c-.69,1.9-.35,5.2.28,7.13s1.87,4.13,3.33,4.67a1.75,1.75,0,0,0,1.68-.24,2.52,2.52,0,0,0,.83-1.25c1.06-2.92.36-9.44-.86-12.95s-3-6.39-4.94-7.1a1.9,1.9,0,0,0-2.61,1.35,3.91,3.91,0,0,0-.19,2.6.27.27,0,0,0,.19.16c.06,0,.09-.06.15-.19s.46-.46.67-.27a1,1,0,0,1,.13,1.22.65.65,0,0,1-.82.37.86.86,0,0,1-.41-.36,5.28,5.28,0,0,1-.09-4.12c.69-1.9,2-2.46,3.41-1.94,3.93,1.43,5.78,9.52,6.13,14.33.11,1.67.27,5.12-.5,7.22A3.08,3.08,0,0,1,140.4,361.4Z"/><path d="M171.88,368.11c.39-2.2,2.24-5.12,3.18-6.5,2.7-4,8.35-10.08,12.47-9.35,1.47.26,2.33,1.4,2,3.39a5.3,5.3,0,0,1-2.13,3.52.8.8,0,0,1-.54.1.65.65,0,0,1-.53-.72,1,1,0,0,1,.72-1c.28-.06.49.28.45.56s0,.22,0,.24a.25.25,0,0,0,.25,0A4,4,0,0,0,188.9,356a1.9,1.9,0,0,0-1.59-2.48c-2-.36-4.89,1.15-7.82,3.68s-6.69,7.72-7.23,10.78a2.53,2.53,0,0,0,.1,1.5,1.74,1.74,0,0,0,1.33,1c1.54.27,3.79-1.06,5.23-2.37s3.45-4,3.8-6a3.06,3.06,0,0,0,.05-.73,1.2,1.2,0,0,0-1-1.29,4.39,4.39,0,0,0-2.8.9,9.23,9.23,0,0,0-2.79,3.43c-.13.29-.25.39-.33.38s-.09-.14,0-.35a10,10,0,0,1,3.08-4,4.26,4.26,0,0,1,3.14-.9,1.9,1.9,0,0,1,1.66,1.71,4.09,4.09,0,0,1,0,1.25c-.37,2.14-2.15,4.78-4.43,6.65a7.59,7.59,0,0,1-5.55,1.88,2.14,2.14,0,0,1-1.75-1.31A3.19,3.19,0,0,1,171.88,368.11Z"/><path d="M169.48,369.31a2.11,2.11,0,0,1-2.09.64,7.52,7.52,0,0,1-4.57-3.67c-1.51-2.54-2.27-5.63-1.89-7.76a4.05,4.05,0,0,1,.38-1.19,1.91,1.91,0,0,1,2.14-1.05,4.2,4.2,0,0,1,2.64,1.93,9.92,9.92,0,0,1,1.54,4.78c0,.21-.06.33-.13.31s-.16-.15-.19-.46a9.21,9.21,0,0,0-1.44-4.18,4.34,4.34,0,0,0-2.32-1.8,1.19,1.19,0,0,0-1.37.88,2.87,2.87,0,0,0-.2.7c-.35,2,.56,5.18,1.51,7s2.56,3.75,4.1,4a1.74,1.74,0,0,0,1.61-.53,2.6,2.6,0,0,0,.6-1.37c.54-3.06-1.29-9.36-3.1-12.6s-4-5.78-6.09-6.14a1.9,1.9,0,0,0-2.34,1.79,3.88,3.88,0,0,0,.26,2.58.25.25,0,0,0,.22.13c.05,0,.08-.07.11-.21s.38-.53.62-.38a1.05,1.05,0,0,1,.34,1.18.66.66,0,0,1-.75.5.85.85,0,0,1-.46-.28,5.26,5.26,0,0,1-.81-4c.35-2,1.55-2.77,3-2.51,4.12.73,7.35,8.38,8.52,13.05.41,1.62,1.16,5,.77,7.2A3.16,3.16,0,0,1,169.48,369.31Z"/><path d="M201.65,370.45c0-2.23,1.32-5.43,2-6.95,2-4.4,6.48-11.38,10.66-11.38,1.49,0,2.54,1,2.54,3a5.26,5.26,0,0,1-1.49,3.83.77.77,0,0,1-.51.2.66.66,0,0,1-.65-.62,1,1,0,0,1,.54-1.1c.26-.11.52.19.54.48,0,.14,0,.21.08.23a.27.27,0,0,0,.23-.09,3.9,3.9,0,0,0,.71-2.5,1.9,1.9,0,0,0-2-2.17c-2.07,0-4.62,2-7.07,5S202,367.13,202,370.24a2.49,2.49,0,0,0,.35,1.45,1.75,1.75,0,0,0,1.5.8c1.56,0,3.55-1.7,4.73-3.24s2.7-4.58,2.7-6.6a3.33,3.33,0,0,0-.08-.73c-.18-.8-.64-1.1-1.19-1.1a4.36,4.36,0,0,0-2.6,1.36,9.24,9.24,0,0,0-2.15,3.87c-.07.3-.18.43-.26.43s-.12-.13-.08-.34a10.07,10.07,0,0,1,2.35-4.44,4.25,4.25,0,0,1,2.94-1.43,1.89,1.89,0,0,1,1.92,1.4,4.09,4.09,0,0,1,.17,1.24,12.45,12.45,0,0,1-3.21,7.31A7.55,7.55,0,0,1,204,373a2.16,2.16,0,0,1-1.95-1A3.18,3.18,0,0,1,201.65,370.45Z"/><path d="M199.5,372.05a2.15,2.15,0,0,1-1.95,1,7.57,7.57,0,0,1-5.14-2.83,12.45,12.45,0,0,1-3.21-7.31,4.09,4.09,0,0,1,.17-1.24,1.89,1.89,0,0,1,1.92-1.4,4.22,4.22,0,0,1,2.94,1.44,10,10,0,0,1,2.35,4.43c0,.22,0,.34-.08.34s-.19-.12-.26-.43a9.15,9.15,0,0,0-2.15-3.86,4.32,4.32,0,0,0-2.6-1.37c-.55,0-1,.3-1.19,1.1a3.33,3.33,0,0,0-.08.73c0,2,1.45,5,2.7,6.6s3.17,3.25,4.73,3.25a1.75,1.75,0,0,0,1.5-.8,2.61,2.61,0,0,0,.35-1.46c0-3.1-2.9-9-5.24-11.87s-5-5-7.07-5a1.9,1.9,0,0,0-2,2.17,3.9,3.9,0,0,0,.71,2.5.24.24,0,0,0,.23.09c.06,0,.07-.09.08-.23,0-.29.28-.59.54-.48a1,1,0,0,1,.54,1.1.65.65,0,0,1-.65.62.81.81,0,0,1-.51-.19,5.31,5.31,0,0,1-1.49-3.84c0-2,1-3,2.54-3,4.18,0,8.69,7,10.66,11.38.68,1.53,2,4.72,2,6.95A3.13,3.13,0,0,1,199.5,372.05Z"/><path d="M231.37,367.59c-.39-2.2.36-5.58.77-7.2,1.17-4.67,4.4-12.32,8.52-13.05,1.47-.26,2.67.52,3,2.51a5.27,5.27,0,0,1-.81,4,.85.85,0,0,1-.46.28.64.64,0,0,1-.74-.5,1,1,0,0,1,.33-1.18c.24-.15.55.1.62.38s.06.2.11.21A.25.25,0,0,0,243,353a3.88,3.88,0,0,0,.26-2.58,1.9,1.9,0,0,0-2.34-1.79c-2,.36-4.19,2.76-6.09,6.14s-3.64,9.54-3.1,12.6a2.6,2.6,0,0,0,.6,1.37,1.74,1.74,0,0,0,1.61.53c1.54-.27,3.2-2.3,4.1-4s1.86-5,1.51-7a2.87,2.87,0,0,0-.2-.7,1.19,1.19,0,0,0-1.37-.88,4.37,4.37,0,0,0-2.32,1.79,9.28,9.28,0,0,0-1.44,4.19c0,.31-.11.45-.19.46s-.13-.1-.13-.31a10,10,0,0,1,1.54-4.78,4.2,4.2,0,0,1,2.64-1.93,1.91,1.91,0,0,1,2.14,1.05,4.05,4.05,0,0,1,.38,1.19c.38,2.13-.38,5.22-1.89,7.76a7.52,7.52,0,0,1-4.57,3.67,2.14,2.14,0,0,1-2.09-.64A3.16,3.16,0,0,1,231.37,367.59Z"/><path d="M229.53,369.54a2.16,2.16,0,0,1-1.75,1.32,7.58,7.58,0,0,1-5.55-1.89c-2.28-1.87-4-4.51-4.43-6.64a4.16,4.16,0,0,1-.05-1.26,1.9,1.9,0,0,1,1.66-1.71,4.23,4.23,0,0,1,3.14.91,9.91,9.91,0,0,1,3.08,4c.07.2.06.33,0,.34s-.2-.09-.33-.37a9.25,9.25,0,0,0-2.79-3.44,4.31,4.31,0,0,0-2.79-.89c-.55.09-.95.47-1,1.29a3.13,3.13,0,0,0,0,.73c.35,2,2.3,4.67,3.81,6s3.68,2.65,5.22,2.38a1.73,1.73,0,0,0,1.33-1.05,2.49,2.49,0,0,0,.1-1.49c-.54-3.06-4.42-8.36-7.23-10.79s-5.78-4-7.82-3.68a1.91,1.91,0,0,0-1.59,2.48,3.91,3.91,0,0,0,1.14,2.34.27.27,0,0,0,.24.05s0-.1,0-.24c0-.29.17-.63.45-.57a1,1,0,0,1,.72,1,.65.65,0,0,1-.53.72.76.76,0,0,1-.53-.1,5.27,5.27,0,0,1-2.14-3.52c-.35-2,.51-3.13,2-3.39,4.12-.73,9.77,5.36,12.47,9.35.94,1.39,2.8,4.3,3.18,6.5A3.17,3.17,0,0,1,229.53,369.54Z"/><path d="M260.15,359.61c-.77-2.1-.62-5.55-.5-7.22.34-4.81,2.19-12.91,6.12-14.34,1.41-.51,2.73.05,3.42,1.95a5.33,5.33,0,0,1-.09,4.12.8.8,0,0,1-.42.35.63.63,0,0,1-.81-.36,1,1,0,0,1,.12-1.22c.21-.19.56,0,.67.27s.1.19.16.19a.28.28,0,0,0,.19-.17,4,4,0,0,0-.19-2.59,1.9,1.9,0,0,0-2.62-1.35c-1.94.71-3.65,3.44-4.93,7.1-1.22,3.5-1.93,10-.87,13a2.51,2.51,0,0,0,.83,1.24,1.74,1.74,0,0,0,1.68.25c1.47-.54,2.76-2.82,3.34-4.67s1-5.23.28-7.13a3.13,3.13,0,0,0-.33-.66,1.18,1.18,0,0,0-1.49-.62,4.29,4.29,0,0,0-2,2.17,9.12,9.12,0,0,0-.7,4.37c0,.31,0,.46-.1.49s-.15-.08-.19-.29a9.8,9.8,0,0,1,.69-5,4.27,4.27,0,0,1,2.26-2.36,1.91,1.91,0,0,1,2.29.66,4,4,0,0,1,.59,1.11c.74,2,.53,5.21-.52,8a7.61,7.61,0,0,1-3.86,4.41A2.19,2.19,0,0,1,261,361,3.12,3.12,0,0,1,260.15,359.61Z"/><path d="M258.67,361.85a2.15,2.15,0,0,1-1.49,1.6,7.54,7.54,0,0,1-5.79-.9c-2.58-1.44-4.78-3.73-5.52-5.77a4.26,4.26,0,0,1-.27-1.22,1.91,1.91,0,0,1,1.33-2,4.2,4.2,0,0,1,3.25.35,10,10,0,0,1,3.73,3.36c.11.19.11.32,0,.35s-.22-.06-.39-.31a9.17,9.17,0,0,0-3.35-2.9,4.29,4.29,0,0,0-2.9-.4,1.2,1.2,0,0,0-.75,1.44,3.22,3.22,0,0,0,.18.71c.69,1.9,3.08,4.21,4.79,5.28s4.09,2,5.56,1.44a1.74,1.74,0,0,0,1.13-1.27,2.56,2.56,0,0,0-.16-1.48c-1.07-2.92-5.8-7.47-9-9.37s-6.4-3-8.35-2.27a1.91,1.91,0,0,0-1.13,2.72,3.9,3.9,0,0,0,1.52,2.11.26.26,0,0,0,.25,0s0-.11,0-.24.06-.65.34-.64.74.32.88.85a.65.65,0,0,1-.39.81.86.86,0,0,1-.55,0,5.31,5.31,0,0,1-2.71-3.09c-.69-1.9,0-3.18,1.36-3.69,3.93-1.43,10.55,3.58,13.91,7,1.16,1.2,3.5,3.75,4.26,5.85A3.2,3.2,0,0,1,258.67,361.85Z"/><path d="M287.1,346.75c-1.12-1.93-1.57-5.36-1.74-7-.5-4.8-.08-13.09,3.54-15.18,1.29-.75,2.69-.43,3.7,1.32a5.26,5.26,0,0,1,.62,4.07.78.78,0,0,1-.34.42.65.65,0,0,1-.87-.21,1,1,0,0,1-.09-1.22c.18-.23.56-.1.71.14s.13.17.18.16.13-.07.16-.19a3.84,3.84,0,0,0-.64-2.52,1.89,1.89,0,0,0-2.8-.88c-1.8,1-3,4-3.63,7.85-.59,3.66-.16,10.21,1.4,12.9a2.54,2.54,0,0,0,1,1.09,1.74,1.74,0,0,0,1.69-.06c1.36-.78,2.23-3.25,2.48-5.18s.05-5.31-1-7.06a2.75,2.75,0,0,0-.44-.59,1.18,1.18,0,0,0-1.58-.36,4.27,4.27,0,0,0-1.56,2.48,9.16,9.16,0,0,0,.07,4.42c.08.31.05.47,0,.5s-.17,0-.24-.25a9.86,9.86,0,0,1-.19-5,4.27,4.27,0,0,1,1.83-2.72,1.92,1.92,0,0,1,2.37.25,4.55,4.55,0,0,1,.76,1c1.09,1.88,1.43,5,.88,7.94a7.6,7.6,0,0,1-3,5,2.18,2.18,0,0,1-2.19.11A3.11,3.11,0,0,1,287.1,346.75Z"/><path d="M286,349.21a2.17,2.17,0,0,1-1.2,1.84,7.57,7.57,0,0,1-5.86.13c-2.78-1-5.35-2.86-6.43-4.73a4.08,4.08,0,0,1-.48-1.16,1.92,1.92,0,0,1,1-2.18,4.25,4.25,0,0,1,3.26-.22,9.89,9.89,0,0,1,4.25,2.67c.14.16.17.29.1.33s-.22,0-.44-.24a9.28,9.28,0,0,0-3.79-2.28,4.39,4.39,0,0,0-2.94.12A1.2,1.2,0,0,0,273,345a3,3,0,0,0,.3.67c1,1.75,3.76,3.6,5.64,4.37s4.37,1.22,5.72.44a1.72,1.72,0,0,0,.89-1.44,2.5,2.5,0,0,0-.42-1.43c-1.55-2.69-7-6.35-10.47-7.66-3.63-1.38-6.82-1.83-8.62-.79a1.91,1.91,0,0,0-.64,2.87,3.84,3.84,0,0,0,1.87,1.81c.12,0,.22,0,.24,0s0-.11,0-.24-.06-.64.22-.68a1,1,0,0,1,1,.68.64.64,0,0,1-.25.86.77.77,0,0,1-.54.09,5.34,5.34,0,0,1-3.21-2.57c-1-1.75-.59-3.12.7-3.87,3.63-2.09,11,1.69,14.92,4.52,1.35,1,4.1,3.09,5.21,5A3.13,3.13,0,0,1,286,349.21Z"/><path d="M311.41,329.41c-1.44-1.71-2.48-5-2.94-6.61-1.32-4.64-2.35-12.88.85-15.57,1.15-1,2.58-.88,3.88.67a5.26,5.26,0,0,1,1.32,3.89.8.8,0,0,1-.27.48.64.64,0,0,1-.89-.06,1.06,1.06,0,0,1-.3-1.19c.14-.25.53-.19.72,0s.16.15.21.13a.29.29,0,0,0,.13-.22,4,4,0,0,0-1.07-2.37,1.89,1.89,0,0,0-2.92-.38c-1.58,1.33-2.25,4.49-2.2,8.36.05,3.71,1.62,10.08,3.61,12.46a2.48,2.48,0,0,0,1.21.89,1.76,1.76,0,0,0,1.66-.35c1.19-1,1.62-3.59,1.53-5.53s-.87-5.24-2.17-6.79a3.62,3.62,0,0,0-.53-.51,1.19,1.19,0,0,0-1.62-.07,4.35,4.35,0,0,0-1.11,2.71,9.23,9.23,0,0,0,.84,4.35c.13.28.13.44.07.49s-.17,0-.27-.2a10,10,0,0,1-1.06-4.91,4.21,4.21,0,0,1,1.33-3,1.9,1.9,0,0,1,2.37-.17,4.1,4.1,0,0,1,.93.85c1.39,1.65,2.28,4.71,2.24,7.66a7.58,7.58,0,0,1-2.12,5.47,2.17,2.17,0,0,1-2.14.49A3.19,3.19,0,0,1,311.41,329.41Z"/><path d="M310.79,332a2.13,2.13,0,0,1-.86,2,7.56,7.56,0,0,1-5.75,1.15,12.57,12.57,0,0,1-7.16-3.54,4.32,4.32,0,0,1-.66-1.06,1.9,1.9,0,0,1,.57-2.31,4.19,4.19,0,0,1,3.17-.79,10,10,0,0,1,4.65,1.89c.17.14.22.26.16.31s-.22,0-.47-.16a9.16,9.16,0,0,0-4.14-1.58,4.28,4.28,0,0,0-2.86.62,1.19,1.19,0,0,0-.21,1.61,3.11,3.11,0,0,0,.41.61c1.3,1.55,4.33,2.9,6.31,3.32s4.52.45,5.71-.55a1.76,1.76,0,0,0,.63-1.58,2.58,2.58,0,0,0-.66-1.34c-2-2.38-8-5-11.65-5.72-3.81-.72-7-.61-8.62.72a1.9,1.9,0,0,0-.13,2.94,3.9,3.9,0,0,0,2.15,1.46.29.29,0,0,0,.24-.08c0-.05,0-.11-.09-.23s-.17-.63.1-.71a1,1,0,0,1,1.12.49.64.64,0,0,1-.09.89.81.81,0,0,1-.52.18,5.31,5.31,0,0,1-3.61-2c-1.3-1.55-1.12-3,0-3.94,3.21-2.68,11.14-.24,15.48,1.87,1.5.73,4.57,2.33,6,4A3.1,3.1,0,0,1,310.79,332Z"/><path d="M332.34,308.11c-1.72-1.43-3.31-4.5-4-6-2.11-4.34-4.55-12.27-1.87-15.48,1-1.14,2.38-1.32,3.93,0a5.29,5.29,0,0,1,2,3.61.81.81,0,0,1-.18.52.64.64,0,0,1-.89.09,1,1,0,0,1-.49-1.12c.08-.27.48-.27.71-.1s.18.12.23.09a.29.29,0,0,0,.08-.24,3.9,3.9,0,0,0-1.46-2.15,1.9,1.9,0,0,0-2.94.13c-1.33,1.59-1.45,4.81-.72,8.62.69,3.65,3.34,9.65,5.72,11.65a2.51,2.51,0,0,0,1.34.66,1.75,1.75,0,0,0,1.58-.63c1-1.19,1-3.81.55-5.71s-1.77-5-3.32-6.31a3.62,3.62,0,0,0-.61-.41,1.19,1.19,0,0,0-1.61.21,4.28,4.28,0,0,0-.62,2.86,9.16,9.16,0,0,0,1.58,4.14c.18.25.21.41.16.47s-.17,0-.31-.16a9.85,9.85,0,0,1-1.89-4.64A4.2,4.2,0,0,1,330,295a1.9,1.9,0,0,1,2.31-.57,4.08,4.08,0,0,1,1.06.67c1.66,1.39,3.06,4.24,3.54,7.15A7.56,7.56,0,0,1,335.8,308a2.13,2.13,0,0,1-2,.86A3,3,0,0,1,332.34,308.11Z"/><path d="M332.18,310.79a2.13,2.13,0,0,1-.49,2.13,7.52,7.52,0,0,1-5.47,2.12c-3,0-6-.84-7.66-2.24a4,4,0,0,1-.84-.92,1.91,1.91,0,0,1,.16-2.38,4.29,4.29,0,0,1,3-1.33,10,10,0,0,1,4.91,1.06c.19.1.25.21.2.28s-.21.06-.49-.08a9.23,9.23,0,0,0-4.35-.84,4.35,4.35,0,0,0-2.71,1.11,1.19,1.19,0,0,0,.08,1.62,3.09,3.09,0,0,0,.5.53c1.55,1.3,4.77,2.1,6.8,2.18s4.52-.35,5.52-1.54a1.74,1.74,0,0,0,.35-1.66,2.52,2.52,0,0,0-.88-1.21c-2.38-2-8.76-3.56-12.47-3.61-3.87-.05-7,.62-8.36,2.21a1.9,1.9,0,0,0,.38,2.91,3.9,3.9,0,0,0,2.37,1.07.25.25,0,0,0,.22-.12c0-.06,0-.11-.13-.21s-.27-.59,0-.72a1,1,0,0,1,1.19.29.64.64,0,0,1,.06.89.8.8,0,0,1-.48.27,5.26,5.26,0,0,1-3.89-1.32c-1.55-1.3-1.63-2.73-.67-3.87,2.69-3.21,10.93-2.18,15.57-.86,1.61.46,4.9,1.5,6.62,2.94A3.12,3.12,0,0,1,332.18,310.79Z"/><path d="M349.25,283.51c-1.94-1.12-4-3.86-5-5.22-2.83-3.9-6.61-11.29-4.52-14.92.74-1.29,2.11-1.71,3.86-.7a5.33,5.33,0,0,1,2.58,3.21.77.77,0,0,1-.09.54.64.64,0,0,1-.86.25,1,1,0,0,1-.68-1c0-.28.43-.35.68-.22s.2.08.24.05a.26.26,0,0,0,0-.25,3.88,3.88,0,0,0-1.81-1.87,1.9,1.9,0,0,0-2.87.65c-1,1.79-.59,5,.78,8.61,1.32,3.47,5,8.92,7.66,10.47a2.55,2.55,0,0,0,1.44.42,1.72,1.72,0,0,0,1.44-.89c.78-1.35.3-3.93-.45-5.72s-2.61-4.63-4.36-5.64a3.86,3.86,0,0,0-.67-.3,1.19,1.19,0,0,0-1.55.49,4.29,4.29,0,0,0-.12,2.93,9.11,9.11,0,0,0,2.28,3.79c.22.22.27.37.24.44s-.17,0-.33-.1a9.8,9.8,0,0,1-2.67-4.25,4.21,4.21,0,0,1,.22-3.26,1.91,1.91,0,0,1,2.18-1,4.2,4.2,0,0,1,1.16.48c1.87,1.08,3.75,3.65,4.72,6.43a7.57,7.57,0,0,1-.12,5.86,2.17,2.17,0,0,1-1.84,1.2A3.21,3.21,0,0,1,349.25,283.51Z"/><path d="M349.56,286.16a2.16,2.16,0,0,1-.11,2.19,7.57,7.57,0,0,1-5,3c-2.9.55-6.06.21-7.93-.87a4.14,4.14,0,0,1-1-.77,1.91,1.91,0,0,1-.26-2.37,4.27,4.27,0,0,1,2.72-1.83,9.86,9.86,0,0,1,5,.19c.21.07.29.17.26.24s-.2.09-.5,0a9.2,9.2,0,0,0-4.43-.07,4.31,4.31,0,0,0-2.48,1.56,1.2,1.2,0,0,0,.36,1.59,3.45,3.45,0,0,0,.59.43c1.75,1,5.06,1.24,7.06,1s4.4-1.12,5.18-2.47a1.76,1.76,0,0,0,.06-1.7,2.49,2.49,0,0,0-1.09-1c-2.69-1.55-9.24-2-12.9-1.4-3.82.63-6.81,1.83-7.85,3.63a1.9,1.9,0,0,0,.88,2.81,3.87,3.87,0,0,0,2.52.63.26.26,0,0,0,.2-.16s0-.1-.17-.18-.36-.53-.14-.7a1,1,0,0,1,1.22.08.65.65,0,0,1,.22.87.8.8,0,0,1-.43.34,5.24,5.24,0,0,1-4.06-.62c-1.76-1-2.08-2.41-1.33-3.7,2.09-3.62,10.38-4,15.18-3.54,1.66.17,5.09.62,7,1.74A3.23,3.23,0,0,1,349.56,286.16Z"/><path d="M361.63,256.33c-2.1-.76-4.65-3.1-5.85-4.26-3.46-3.35-8.47-10-7-13.9.51-1.41,1.78-2.06,3.69-1.37a5.32,5.32,0,0,1,3.09,2.72.83.83,0,0,1,0,.54.64.64,0,0,1-.81.39,1,1,0,0,1-.85-.88c0-.28.36-.42.64-.34s.21.05.24,0a.26.26,0,0,0,0-.25,4,4,0,0,0-2.11-1.53,1.91,1.91,0,0,0-2.72,1.14c-.71,1.94.29,5,2.27,8.34s6.45,7.93,9.37,9a2.48,2.48,0,0,0,1.48.16,1.74,1.74,0,0,0,1.27-1.13c.53-1.46-.39-3.92-1.44-5.56s-3.38-4.1-5.28-4.79a2.71,2.71,0,0,0-.71-.17,1.18,1.18,0,0,0-1.44.74,4.32,4.32,0,0,0,.4,2.91,9.21,9.21,0,0,0,2.9,3.34c.25.18.33.32.31.39s-.16.07-.35,0a9.92,9.92,0,0,1-3.36-3.72,4.21,4.21,0,0,1-.35-3.25,1.9,1.9,0,0,1,2-1.33,4,4,0,0,1,1.22.26c2,.74,4.33,2.94,5.77,5.52a7.59,7.59,0,0,1,.9,5.79,2.16,2.16,0,0,1-1.6,1.5A3.11,3.11,0,0,1,361.63,256.33Z"/><path d="M362.4,258.9a2.15,2.15,0,0,1,.27,2.17,7.55,7.55,0,0,1-4.41,3.86c-2.76,1.05-5.94,1.26-8,.52a4,4,0,0,1-1.11-.58,1.92,1.92,0,0,1-.66-2.29,4.25,4.25,0,0,1,2.36-2.27,9.92,9.92,0,0,1,5-.69c.21,0,.32.12.29.19s-.18.13-.49.1a9.26,9.26,0,0,0-4.37.7,4.34,4.34,0,0,0-2.17,2,1.2,1.2,0,0,0,.62,1.5,3.68,3.68,0,0,0,.66.32c1.9.69,5.2.34,7.13-.28s4.13-1.87,4.67-3.34a1.74,1.74,0,0,0-.24-1.67,2.46,2.46,0,0,0-1.25-.83c-2.92-1.06-9.44-.36-12.95.86s-6.39,3-7.1,4.94a1.9,1.9,0,0,0,1.35,2.61,3.91,3.91,0,0,0,2.6.19.28.28,0,0,0,.16-.19c0-.06-.06-.09-.19-.15s-.46-.46-.27-.67a1,1,0,0,1,1.22-.13.65.65,0,0,1,.37.81.84.84,0,0,1-.36.42,5.28,5.28,0,0,1-4.12.09c-1.9-.69-2.45-2-1.94-3.41,1.43-3.93,9.52-5.79,14.33-6.13,1.67-.12,5.12-.27,7.22.5A3.08,3.08,0,0,1,362.4,258.9Z"/><path d="M369.11,227.42c-2.2-.39-5.12-2.24-6.5-3.18-4-2.7-10.08-8.35-9.35-12.47.26-1.47,1.4-2.33,3.39-2a5.3,5.3,0,0,1,3.52,2.13.8.8,0,0,1,.1.54.65.65,0,0,1-.72.53,1,1,0,0,1-1-.72c-.06-.28.28-.49.56-.45s.22,0,.24,0a.25.25,0,0,0,0-.25A4,4,0,0,0,357,210.4,1.9,1.9,0,0,0,354.5,212c-.36,2,1.15,4.89,3.68,7.82S365.9,226.5,369,227a2.53,2.53,0,0,0,1.5-.1,1.74,1.74,0,0,0,1-1.33c.27-1.54-1.06-3.79-2.37-5.23s-4-3.45-6-3.8a3.06,3.06,0,0,0-.73-.05,1.2,1.2,0,0,0-1.29,1,4.39,4.39,0,0,0,.9,2.8,9.23,9.23,0,0,0,3.43,2.79c.29.13.39.25.38.33s-.14.09-.35,0a10,10,0,0,1-4-3.08,4.26,4.26,0,0,1-.9-3.14,1.9,1.9,0,0,1,1.71-1.66,4.09,4.09,0,0,1,1.25.05c2.14.37,4.78,2.15,6.65,4.43a7.59,7.59,0,0,1,1.88,5.55,2.14,2.14,0,0,1-1.31,1.75A3.19,3.19,0,0,1,369.11,227.42Z"/><path d="M370.31,229.81a2.14,2.14,0,0,1,.64,2.1,7.56,7.56,0,0,1-3.67,4.57c-2.54,1.51-5.63,2.27-7.76,1.89a4.05,4.05,0,0,1-1.19-.38,1.91,1.91,0,0,1-1.05-2.14,4.2,4.2,0,0,1,1.93-2.64,9.92,9.92,0,0,1,4.78-1.54c.21,0,.33.06.31.13s-.15.16-.46.19a9.09,9.09,0,0,0-4.18,1.44,4.34,4.34,0,0,0-1.8,2.32,1.19,1.19,0,0,0,.88,1.37,3.39,3.39,0,0,0,.7.2c2,.35,5.18-.56,7-1.51s3.75-2.56,4-4.1a1.74,1.74,0,0,0-.53-1.61,2.52,2.52,0,0,0-1.37-.6c-3.06-.54-9.36,1.29-12.6,3.1s-5.78,4.05-6.14,6.09a1.9,1.9,0,0,0,1.79,2.34,3.88,3.88,0,0,0,2.58-.26.26.26,0,0,0,.13-.22c0-.05-.07-.08-.21-.12s-.53-.37-.38-.61a1.05,1.05,0,0,1,1.18-.34.65.65,0,0,1,.5.74.84.84,0,0,1-.28.47,5.26,5.26,0,0,1-4,.81c-2-.35-2.77-1.55-2.51-3,.73-4.11,8.38-7.34,13.05-8.51,1.62-.41,5-1.16,7.2-.77A3.25,3.25,0,0,1,370.31,229.81Z"/><path d="M371.45,197.65c-2.23,0-5.43-1.32-6.95-2-4.4-2-11.38-6.48-11.38-10.66,0-1.49,1-2.54,3-2.54a5.26,5.26,0,0,1,3.83,1.49.77.77,0,0,1,.2.51.66.66,0,0,1-.62.65,1,1,0,0,1-1.1-.54c-.11-.26.19-.53.48-.54.14,0,.21,0,.23-.08a.27.27,0,0,0-.09-.23,3.9,3.9,0,0,0-2.5-.71,1.9,1.9,0,0,0-2.17,2c0,2.07,2,4.62,5,7.07s8.76,5.24,11.87,5.24a2.57,2.57,0,0,0,1.45-.35,1.75,1.75,0,0,0,.8-1.5c0-1.56-1.7-3.55-3.24-4.73s-4.58-2.7-6.6-2.7a3.33,3.33,0,0,0-.73.08c-.8.18-1.1.64-1.1,1.19a4.36,4.36,0,0,0,1.36,2.6,9.24,9.24,0,0,0,3.87,2.15c.3.07.43.18.43.26s-.13.12-.34.08A10,10,0,0,1,362.7,192a4.25,4.25,0,0,1-1.43-2.94,1.89,1.89,0,0,1,1.4-1.92,4.09,4.09,0,0,1,1.24-.17,12.45,12.45,0,0,1,7.31,3.21,7.55,7.55,0,0,1,2.82,5.14,2.16,2.16,0,0,1-1,2A3.18,3.18,0,0,1,371.45,197.65Z"/><path d="M373.05,199.8a2.15,2.15,0,0,1,1,1.95,7.57,7.57,0,0,1-2.83,5.14,12.45,12.45,0,0,1-7.31,3.21,4.09,4.09,0,0,1-1.24-.17,1.89,1.89,0,0,1-1.4-1.92,4.22,4.22,0,0,1,1.44-2.94,9.94,9.94,0,0,1,4.43-2.35c.22,0,.34,0,.34.08s-.12.18-.43.26a9.15,9.15,0,0,0-3.86,2.15,4.32,4.32,0,0,0-1.37,2.6c0,.55.3,1,1.1,1.19a3.33,3.33,0,0,0,.73.08c2,0,5-1.46,6.6-2.7s3.25-3.17,3.25-4.73a1.75,1.75,0,0,0-.8-1.5,2.53,2.53,0,0,0-1.46-.35c-3.1,0-9,2.9-11.87,5.24s-5,5-5,7.07a1.9,1.9,0,0,0,2.17,2,3.9,3.9,0,0,0,2.5-.71.25.25,0,0,0,.09-.23c0-.06-.09-.07-.23-.08-.29,0-.59-.28-.48-.54a1,1,0,0,1,1.1-.54.65.65,0,0,1,.62.65.81.81,0,0,1-.19.51,5.31,5.31,0,0,1-3.84,1.49c-2,0-3-1.05-3-2.54,0-4.18,7-8.69,11.38-10.66,1.52-.68,4.72-2,6.95-2A3.13,3.13,0,0,1,373.05,199.8Z"/><path d="M368.59,167.93c-2.2.39-5.58-.36-7.2-.77-4.67-1.17-12.32-4.4-13.05-8.52-.26-1.47.52-2.67,2.51-3a5.26,5.26,0,0,1,4,.81.85.85,0,0,1,.28.46.64.64,0,0,1-.5.74,1,1,0,0,1-1.18-.33c-.15-.24.1-.55.38-.62s.2-.06.21-.11a.25.25,0,0,0-.13-.22,3.88,3.88,0,0,0-2.58-.26,1.9,1.9,0,0,0-1.79,2.34c.36,2,2.76,4.19,6.14,6.09s9.54,3.64,12.6,3.1a2.6,2.6,0,0,0,1.37-.6,1.74,1.74,0,0,0,.53-1.61c-.27-1.54-2.3-3.21-4-4.1s-5-1.86-7-1.51a2.87,2.87,0,0,0-.7.2,1.19,1.19,0,0,0-.88,1.37,4.34,4.34,0,0,0,1.8,2.32,9.21,9.21,0,0,0,4.18,1.44c.31,0,.45.11.46.19s-.1.13-.31.13a9.92,9.92,0,0,1-4.78-1.54,4.2,4.2,0,0,1-1.93-2.64,1.91,1.91,0,0,1,1.05-2.14,4.05,4.05,0,0,1,1.19-.38c2.13-.38,5.22.38,7.76,1.89a7.56,7.56,0,0,1,3.67,4.57,2.12,2.12,0,0,1-.64,2.09A3.16,3.16,0,0,1,368.59,167.93Z"/><path d="M370.54,169.77a2.14,2.14,0,0,1,1.31,1.75,7.52,7.52,0,0,1-1.88,5.55c-1.87,2.28-4.51,4.05-6.64,4.43a4.16,4.16,0,0,1-1.26.05,1.9,1.9,0,0,1-1.71-1.66,4.26,4.26,0,0,1,.9-3.14,10,10,0,0,1,4-3.08c.2-.07.33-.06.34,0s-.09.2-.37.33a9.25,9.25,0,0,0-3.44,2.79,4.31,4.31,0,0,0-.89,2.79c.09.55.47,1,1.29,1a3.13,3.13,0,0,0,.73-.05c2-.35,4.67-2.3,6-3.81s2.65-3.68,2.38-5.22a1.75,1.75,0,0,0-1.05-1.33,2.49,2.49,0,0,0-1.49-.1c-3.06.54-8.36,4.42-10.79,7.23s-4,5.78-3.68,7.82a1.9,1.9,0,0,0,2.48,1.58,3.87,3.87,0,0,0,2.34-1.13.27.27,0,0,0,.05-.24c0-.05-.1-.05-.25,0s-.62-.17-.56-.45a1,1,0,0,1,1-.72.65.65,0,0,1,.72.53.76.76,0,0,1-.1.53,5.27,5.27,0,0,1-3.52,2.14c-2,.35-3.13-.51-3.39-2-.73-4.12,5.36-9.77,9.35-12.47,1.39-.94,4.3-2.8,6.5-3.19A3.28,3.28,0,0,1,370.54,169.77Z"/><path d="M360.61,139.15c-2.1.77-5.55.62-7.22.5-4.81-.34-12.91-2.19-14.34-6.12-.51-1.41.05-2.73,1.95-3.42a5.33,5.33,0,0,1,4.12.09.8.8,0,0,1,.35.42.63.63,0,0,1-.36.81,1,1,0,0,1-1.22-.12c-.19-.21,0-.56.27-.67s.19-.1.19-.16a.28.28,0,0,0-.17-.19,3.89,3.89,0,0,0-2.59.19,1.9,1.9,0,0,0-1.35,2.62c.71,1.94,3.44,3.65,7.1,4.93,3.5,1.22,10,1.93,13,.87a2.59,2.59,0,0,0,1.25-.83,1.73,1.73,0,0,0,.23-1.68c-.53-1.47-2.81-2.76-4.66-3.34s-5.23-1-7.13-.28a3.13,3.13,0,0,0-.66.33,1.18,1.18,0,0,0-.62,1.49,4.25,4.25,0,0,0,2.17,2,9.12,9.12,0,0,0,4.37.7c.31,0,.46,0,.49.1s-.08.15-.29.19a9.8,9.8,0,0,1-5-.69,4.23,4.23,0,0,1-2.36-2.26,1.91,1.91,0,0,1,.66-2.29,4,4,0,0,1,1.11-.59c2-.74,5.21-.53,8,.52a7.61,7.61,0,0,1,4.41,3.86,2.19,2.19,0,0,1-.27,2.18A3.12,3.12,0,0,1,360.61,139.15Z"/><path d="M362.85,140.62a2.18,2.18,0,0,1,1.6,1.5,7.54,7.54,0,0,1-.9,5.79c-1.44,2.58-3.73,4.78-5.77,5.52a4.26,4.26,0,0,1-1.22.27,1.92,1.92,0,0,1-2-1.34,4.21,4.21,0,0,1,.35-3.25,10,10,0,0,1,3.36-3.72c.19-.11.32-.11.35,0s-.06.22-.31.39a9.17,9.17,0,0,0-2.9,3.35,4.28,4.28,0,0,0-.4,2.9,1.2,1.2,0,0,0,1.44.75,3.22,3.22,0,0,0,.71-.18c1.9-.69,4.21-3.08,5.28-4.79s2-4.09,1.44-5.56a1.74,1.74,0,0,0-1.27-1.13,2.56,2.56,0,0,0-1.48.16c-2.92,1.07-7.47,5.8-9.37,9s-3,6.4-2.27,8.35a1.91,1.91,0,0,0,2.72,1.13,3.9,3.9,0,0,0,2.11-1.52.28.28,0,0,0,0-.26s-.11,0-.24,0-.65-.06-.64-.34.32-.74.85-.88a.65.65,0,0,1,.81.39.83.83,0,0,1,0,.54,5.29,5.29,0,0,1-3.09,2.72c-1.9.69-3.18,0-3.69-1.36-1.43-3.93,3.58-10.56,7-13.91,1.2-1.16,3.75-3.5,5.85-4.26A3.33,3.33,0,0,1,362.85,140.62Z"/><path d="M347.75,112.2c-1.93,1.12-5.36,1.57-7,1.74-4.8.5-13.09.08-15.18-3.54-.75-1.29-.43-2.69,1.32-3.7a5.26,5.26,0,0,1,4.07-.62.85.85,0,0,1,.43.34.66.66,0,0,1-.22.87,1,1,0,0,1-1.22.09c-.23-.18-.1-.56.14-.71s.17-.13.16-.18-.07-.13-.19-.16a3.84,3.84,0,0,0-2.52.64,1.89,1.89,0,0,0-.88,2.8c1,1.8,4,3,7.85,3.63,3.66.59,10.21.16,12.9-1.4a2.54,2.54,0,0,0,1.09-1,1.74,1.74,0,0,0-.06-1.69c-.78-1.36-3.25-2.23-5.18-2.48s-5.31,0-7.06,1a3.1,3.1,0,0,0-.59.43,1.19,1.19,0,0,0-.36,1.59,4.27,4.27,0,0,0,2.48,1.56,9.16,9.16,0,0,0,4.42-.07c.31-.08.47,0,.5,0s0,.17-.25.24a9.86,9.86,0,0,1-5,.19,4.27,4.27,0,0,1-2.72-1.83,1.92,1.92,0,0,1,.25-2.37,4.91,4.91,0,0,1,1-.77,12.54,12.54,0,0,1,7.94-.87,7.58,7.58,0,0,1,5,3,2.16,2.16,0,0,1,.12,2.19A3.11,3.11,0,0,1,347.75,112.2Z"/><path d="M350.21,113.26a2.17,2.17,0,0,1,1.84,1.2,7.53,7.53,0,0,1,.12,5.86c-1,2.78-2.85,5.35-4.72,6.43a4.2,4.2,0,0,1-1.16.48,1.92,1.92,0,0,1-2.18-1,4.21,4.21,0,0,1-.22-3.26,9.89,9.89,0,0,1,2.67-4.25c.16-.14.29-.17.33-.1s0,.22-.24.44a9.21,9.21,0,0,0-2.28,3.79,4.29,4.29,0,0,0,.12,2.93,1.19,1.19,0,0,0,1.55.49,3.55,3.55,0,0,0,.67-.3c1.75-1,3.6-3.76,4.36-5.64s1.23-4.37.45-5.72a1.72,1.72,0,0,0-1.44-.89,2.55,2.55,0,0,0-1.44.42c-2.69,1.55-6.34,7-7.66,10.47-1.37,3.63-1.82,6.82-.78,8.62a1.91,1.91,0,0,0,2.87.64,3.88,3.88,0,0,0,1.81-1.87.26.26,0,0,0,0-.25s-.11,0-.24.05-.64.06-.68-.22a1,1,0,0,1,.68-1,.64.64,0,0,1,.86.25.77.77,0,0,1,.09.54,5.34,5.34,0,0,1-2.57,3.21c-1.76,1-3.13.59-3.87-.7-2.09-3.63,1.69-11,4.52-14.92,1-1.35,3.09-4.1,5-5.22A3.21,3.21,0,0,1,350.21,113.26Z"/><path d="M330.41,87.89c-1.71,1.44-5,2.48-6.61,2.94-4.64,1.32-12.88,2.35-15.57-.85-1-1.15-.88-2.58.67-3.88a5.25,5.25,0,0,1,3.89-1.32.8.8,0,0,1,.48.27.64.64,0,0,1-.06.89,1,1,0,0,1-1.19.29c-.25-.13-.19-.52,0-.72s.15-.15.13-.2a.26.26,0,0,0-.22-.13,3.94,3.94,0,0,0-2.37,1.07,1.89,1.89,0,0,0-.38,2.92c1.33,1.58,4.49,2.25,8.36,2.2,3.71-.05,10.08-1.62,12.46-3.61a2.48,2.48,0,0,0,.89-1.21,1.76,1.76,0,0,0-.35-1.66c-1-1.19-3.59-1.62-5.53-1.53s-5.24.87-6.79,2.17a3.62,3.62,0,0,0-.51.53,1.19,1.19,0,0,0-.07,1.62,4.33,4.33,0,0,0,2.71,1.11,9.23,9.23,0,0,0,4.35-.84c.28-.13.44-.13.49-.07s0,.17-.21.27a9.9,9.9,0,0,1-4.9,1.06,4.21,4.21,0,0,1-3-1.33,1.9,1.9,0,0,1-.17-2.37,4.1,4.1,0,0,1,.85-.93c1.65-1.39,4.71-2.28,7.66-2.24a7.56,7.56,0,0,1,5.47,2.12,2.18,2.18,0,0,1,.49,2.13A3.15,3.15,0,0,1,330.41,87.89Z"/><path d="M333,88.51a2.14,2.14,0,0,1,2,.86,7.56,7.56,0,0,1,1.15,5.75,12.57,12.57,0,0,1-3.54,7.16,4.32,4.32,0,0,1-1.06.66,1.9,1.9,0,0,1-2.31-.57,4.2,4.2,0,0,1-.79-3.18,9.85,9.85,0,0,1,1.89-4.64c.14-.17.26-.22.31-.16s0,.22-.16.47A9.16,9.16,0,0,0,328.94,99a4.28,4.28,0,0,0,.62,2.86,1.19,1.19,0,0,0,1.61.21,3.62,3.62,0,0,0,.61-.41c1.55-1.3,2.9-4.33,3.32-6.31s.45-4.52-.55-5.71A1.75,1.75,0,0,0,333,89a2.51,2.51,0,0,0-1.34.66c-2.38,2-5,8-5.72,11.65-.73,3.81-.61,7,.72,8.62a1.9,1.9,0,0,0,2.94.13,3.9,3.9,0,0,0,1.46-2.15.26.26,0,0,0-.09-.24s-.11,0-.22.09-.63.17-.71-.1a1,1,0,0,1,.49-1.12.64.64,0,0,1,.89.09.81.81,0,0,1,.18.52,5.29,5.29,0,0,1-2,3.61c-1.55,1.3-3,1.12-3.93,0-2.68-3.21-.24-11.14,1.87-15.48.73-1.5,2.32-4.57,4-6A3,3,0,0,1,333,88.51Z"/><path d="M309.12,67c-1.44,1.72-4.51,3.31-6,4-4.34,2.11-12.27,4.55-15.48,1.87-1.14-1-1.32-2.39,0-3.93a5.29,5.29,0,0,1,3.61-2,.81.81,0,0,1,.52.18.64.64,0,0,1,.09.89,1,1,0,0,1-1.12.49c-.27-.08-.27-.48-.1-.71s.12-.18.09-.23a.29.29,0,0,0-.24-.08A3.9,3.9,0,0,0,288.31,69a1.9,1.9,0,0,0,.13,2.94c1.59,1.33,4.81,1.45,8.62.72,3.65-.69,9.65-3.34,11.65-5.72a2.51,2.51,0,0,0,.66-1.34,1.75,1.75,0,0,0-.63-1.58c-1.19-1-3.82-1-5.71-.55s-5,1.77-6.31,3.32a3.62,3.62,0,0,0-.41.61,1.19,1.19,0,0,0,.21,1.61,4.28,4.28,0,0,0,2.86.62A9.16,9.16,0,0,0,303.52,68c.25-.18.41-.21.47-.16s0,.17-.16.31a9.85,9.85,0,0,1-4.65,1.89,4.19,4.19,0,0,1-3.17-.79,1.9,1.9,0,0,1-.57-2.31,4.32,4.32,0,0,1,.66-1.06,12.57,12.57,0,0,1,7.16-3.54A7.56,7.56,0,0,1,309,63.5a2.13,2.13,0,0,1,.86,2A3.17,3.17,0,0,1,309.12,67Z"/><path d="M311.79,67.12a2.13,2.13,0,0,1,2.13.49A7.52,7.52,0,0,1,316,73.08c0,3-.84,6-2.24,7.66a4,4,0,0,1-.93.84,1.9,1.9,0,0,1-2.37-.16,4.21,4.21,0,0,1-1.33-3,10,10,0,0,1,1.06-4.91c.1-.19.21-.25.27-.2s.06.21-.07.49a9.23,9.23,0,0,0-.84,4.35,4.35,4.35,0,0,0,1.11,2.71,1.19,1.19,0,0,0,1.62-.08,3.09,3.09,0,0,0,.53-.5c1.3-1.55,2.1-4.77,2.17-6.8S314.68,69,313.49,68a1.72,1.72,0,0,0-1.66-.35,2.52,2.52,0,0,0-1.21.88c-2,2.38-3.56,8.76-3.61,12.47-.05,3.87.62,7,2.2,8.36a1.91,1.91,0,0,0,2.92-.38,4,4,0,0,0,1.07-2.37.23.23,0,0,0-.13-.22c-.05,0-.1,0-.2.13s-.59.27-.72,0a1,1,0,0,1,.29-1.19.64.64,0,0,1,.89-.06.81.81,0,0,1,.27.47,5.27,5.27,0,0,1-1.32,3.9c-1.3,1.55-2.73,1.63-3.88.66-3.2-2.68-2.17-10.92-.85-15.56.46-1.61,1.5-4.9,2.94-6.62A3.12,3.12,0,0,1,311.79,67.12Z"/><path d="M284.51,50.05c-1.12,1.93-3.86,4-5.22,5-3.9,2.83-11.29,6.61-14.91,4.52-1.3-.74-1.72-2.11-.71-3.86a5.33,5.33,0,0,1,3.21-2.58.77.77,0,0,1,.54.09.64.64,0,0,1,.25.86,1,1,0,0,1-1,.68c-.28,0-.35-.43-.22-.68s.08-.2.05-.24a.26.26,0,0,0-.25,0,3.88,3.88,0,0,0-1.87,1.81A1.91,1.91,0,0,0,265,58.5c1.8,1,5,.59,8.62-.78,3.47-1.32,8.92-5,10.47-7.66a2.55,2.55,0,0,0,.42-1.44,1.72,1.72,0,0,0-.89-1.44c-1.35-.78-3.93-.3-5.72.45s-4.63,2.61-5.64,4.36a3.86,3.86,0,0,0-.3.67,1.19,1.19,0,0,0,.49,1.55,4.29,4.29,0,0,0,2.93.12,9.18,9.18,0,0,0,3.79-2.28c.22-.22.37-.27.44-.24s0,.17-.1.33a9.8,9.8,0,0,1-4.25,2.67,4.21,4.21,0,0,1-3.26-.22,1.91,1.91,0,0,1-1-2.18,4.2,4.2,0,0,1,.48-1.16c1.08-1.87,3.65-3.75,6.43-4.72a7.57,7.57,0,0,1,5.86.12,2.17,2.17,0,0,1,1.2,1.84A3.21,3.21,0,0,1,284.51,50.05Z"/><path d="M287.16,49.74a2.16,2.16,0,0,1,2.19.11,7.57,7.57,0,0,1,3,5c.55,2.9.21,6.06-.87,7.93a4.41,4.41,0,0,1-.77,1,1.89,1.89,0,0,1-2.37.25,4.23,4.23,0,0,1-1.83-2.71,9.86,9.86,0,0,1,.19-5c.07-.21.17-.29.24-.26s.09.2,0,.5a9.2,9.2,0,0,0-.07,4.43,4.31,4.31,0,0,0,1.56,2.48,1.19,1.19,0,0,0,1.58-.36,3,3,0,0,0,.44-.59c1-1.75,1.24-5.06,1-7.06s-1.12-4.4-2.48-5.18a1.74,1.74,0,0,0-1.69-.06,2.49,2.49,0,0,0-1,1.09c-1.55,2.69-2,9.24-1.4,12.9.63,3.82,1.83,6.81,3.63,7.85a1.89,1.89,0,0,0,2.8-.88,3.84,3.84,0,0,0,.64-2.52.26.26,0,0,0-.16-.2s-.1.05-.18.16-.53.37-.71.15a1,1,0,0,1,.09-1.22.66.66,0,0,1,.87-.22.85.85,0,0,1,.34.43,5.24,5.24,0,0,1-.62,4.06c-1,1.76-2.41,2.08-3.7,1.33-3.62-2.09-4-10.38-3.54-15.18.17-1.66.62-5.09,1.74-7A3.15,3.15,0,0,1,287.16,49.74Z"/><path d="M257.33,37.67c-.76,2.1-3.1,4.65-4.26,5.85-3.35,3.46-10,8.47-13.9,7-1.41-.51-2.06-1.78-1.37-3.69a5.32,5.32,0,0,1,2.72-3.09.83.83,0,0,1,.54,0,.66.66,0,0,1,.4.81,1,1,0,0,1-.89.85c-.28,0-.42-.36-.34-.64s.05-.21,0-.24a.26.26,0,0,0-.25,0,4,4,0,0,0-1.53,2.11,1.9,1.9,0,0,0,1.14,2.72c1.94.71,5-.29,8.34-2.27s7.93-6.45,9-9.37a2.48,2.48,0,0,0,.16-1.48A1.74,1.74,0,0,0,256,35c-1.46-.53-3.92.39-5.56,1.44s-4.1,3.38-4.79,5.28a2.71,2.71,0,0,0-.17.71,1.18,1.18,0,0,0,.74,1.44,4.32,4.32,0,0,0,2.91-.4,9.21,9.21,0,0,0,3.34-2.9c.18-.25.32-.33.39-.31s.07.16,0,.35A9.92,9.92,0,0,1,249.06,44a4.21,4.21,0,0,1-3.25.35,1.9,1.9,0,0,1-1.33-2,4,4,0,0,1,.26-1.22c.74-2,2.94-4.33,5.52-5.77a7.59,7.59,0,0,1,5.79-.9,2.16,2.16,0,0,1,1.5,1.6A3.11,3.11,0,0,1,257.33,37.67Z"/><path d="M259.9,36.9a2.15,2.15,0,0,1,2.17-.27A7.55,7.55,0,0,1,265.93,41c1.05,2.76,1.26,5.94.52,8a4.31,4.31,0,0,1-.58,1.11,1.92,1.92,0,0,1-2.29.66,4.25,4.25,0,0,1-2.27-2.36,9.92,9.92,0,0,1-.69-5c0-.21.12-.32.19-.29s.13.18.1.49a9.26,9.26,0,0,0,.7,4.37,4.29,4.29,0,0,0,2,2.17,1.2,1.2,0,0,0,1.5-.62,3.68,3.68,0,0,0,.32-.66c.69-1.9.34-5.2-.28-7.13s-1.87-4.13-3.34-4.67a1.74,1.74,0,0,0-1.67.24,2.46,2.46,0,0,0-.83,1.25c-1.07,2.92-.36,9.44.86,12.95s3,6.39,4.94,7.1a1.9,1.9,0,0,0,2.61-1.35,3.92,3.92,0,0,0,.19-2.6.28.28,0,0,0-.19-.16c-.06,0-.09.06-.16.19s-.45.46-.66.27a1,1,0,0,1-.13-1.22.64.64,0,0,1,.81-.37.88.88,0,0,1,.42.36,5.28,5.28,0,0,1,.09,4.12c-.69,1.9-2,2.46-3.41,1.94-3.93-1.43-5.79-9.52-6.13-14.33-.12-1.67-.27-5.12.5-7.22A3.08,3.08,0,0,1,259.9,36.9Z"/><path d="M228.42,30.19c-.39,2.2-2.24,5.12-3.18,6.5-2.7,4-8.35,10.08-12.47,9.35-1.47-.26-2.33-1.4-2-3.39a5.3,5.3,0,0,1,2.13-3.52.8.8,0,0,1,.54-.1.65.65,0,0,1,.53.72,1,1,0,0,1-.72,1c-.28.06-.49-.28-.45-.56s0-.22,0-.24a.25.25,0,0,0-.25,0,4,4,0,0,0-1.13,2.34A1.9,1.9,0,0,0,213,44.8c2,.36,4.89-1.15,7.82-3.68S227.5,33.4,228,30.34a2.53,2.53,0,0,0-.1-1.5,1.74,1.74,0,0,0-1.33-1c-1.54-.27-3.8,1.06-5.23,2.37s-3.45,4-3.8,6a3.06,3.06,0,0,0-.05.73,1.2,1.2,0,0,0,1,1.29,4.39,4.39,0,0,0,2.8-.9,9.23,9.23,0,0,0,2.79-3.43c.13-.29.25-.39.33-.38s.09.14,0,.35a10,10,0,0,1-3.08,4,4.26,4.26,0,0,1-3.14.9A1.9,1.9,0,0,1,216.57,37a4.09,4.09,0,0,1,.05-1.25c.37-2.14,2.15-4.78,4.43-6.65a7.58,7.58,0,0,1,5.55-1.88,2.14,2.14,0,0,1,1.75,1.31A3.19,3.19,0,0,1,228.42,30.19Z"/><path d="M230.81,29a2.16,2.16,0,0,1,2.1-.64A7.59,7.59,0,0,1,237.48,32c1.51,2.54,2.27,5.63,1.89,7.76A4.37,4.37,0,0,1,239,41,1.91,1.91,0,0,1,236.85,42a4.2,4.2,0,0,1-2.64-1.93,9.92,9.92,0,0,1-1.54-4.77c0-.22.05-.34.13-.32s.16.15.19.46a9.16,9.16,0,0,0,1.44,4.19,4.32,4.32,0,0,0,2.32,1.79,1.2,1.2,0,0,0,1.37-.87,3.68,3.68,0,0,0,.2-.71c.35-2-.57-5.18-1.51-7s-2.56-3.75-4.1-4a1.74,1.74,0,0,0-1.61.53,2.49,2.49,0,0,0-.6,1.37c-.54,3.06,1.29,9.36,3.1,12.6s4.05,5.78,6.09,6.14A1.9,1.9,0,0,0,242,47.73a4,4,0,0,0-.26-2.59.26.26,0,0,0-.22-.13c-.05,0-.08.08-.12.21-.06.28-.37.53-.61.38a1.05,1.05,0,0,1-.34-1.18.65.65,0,0,1,.74-.5.8.8,0,0,1,.47.29,5.24,5.24,0,0,1,.81,4c-.35,2-1.56,2.77-3,2.51-4.11-.72-7.34-8.38-8.52-13-.4-1.62-1.15-5-.76-7.2A3.06,3.06,0,0,1,230.81,29Z"/><path class="cls-1" d="M210.54,154.31h-8.81v23h-3.25v-23h-8.77V152h20.83Z"/><path class="cls-1" d="M186.73,155.12l-7.63,4.41,11.52,19.95-2.82,1.62-11.51-19.95-7.6,4.38-1.16-2,18-10.41Z"/><path class="cls-1" d="M166.51,167.73l-4.4,7.63,19.95,11.52-1.62,2.81-20-11.52-4.38,7.6-2-1.17,10.41-18Z"/><path class="cls-1" d="M155.31,188.76v8.81h23v3.25h-23v8.77H153V188.76Z"/><path class="cls-1" d="M156.12,212.57l4.41,7.63,19.95-11.52,1.62,2.81L162.15,223l4.38,7.6-2,1.16-10.41-18Z"/><path class="cls-1" d="M168.73,232.79l7.63,4.4,11.52-19.95,2.81,1.62-11.52,20,7.6,4.38-1.17,2-18-10.41Z"/><path class="cls-1" d="M189.76,244h8.81V221h3.25v23h8.76v2.33H189.76Z"/><path class="cls-1" d="M213.57,243.18l7.63-4.41-11.52-20,2.81-1.62,11.52,20,7.6-4.38,1.16,2-18,10.41Z"/><path class="cls-1" d="M233.79,230.57l4.4-7.63-19.95-11.52,1.62-2.81,20,11.52,4.38-7.6,2,1.17-10.41,18Z"/><path class="cls-1" d="M245,209.54v-8.81H222v-3.25h23v-8.76h2.33v20.82Z"/><path class="cls-1" d="M244.18,185.73l-4.41-7.63-20,11.52-1.62-2.81,20-11.52-4.38-7.6,2-1.16,10.41,18Z"/><path class="cls-1" d="M231.57,165.51l-7.63-4.4-11.52,19.95-2.81-1.62,11.52-20-7.6-4.38,1.17-2,18,10.41Z"/><path class="cls-1" d="M199.65,223.65a25,25,0,1,1,25-25A25,25,0,0,1,199.65,223.65Zm0-46a21,21,0,1,0,21,21A21,21,0,0,0,199.65,177.65Z"/><circle cx="199.65" cy="63.65" r="6"/><ellipse cx="81.9" cy="131.71" rx="6.25" ry="6.06"/><ellipse cx="81.75" cy="267.58" rx="6.25" ry="6.06"/><ellipse cx="199.74" cy="335.64" rx="6.25" ry="6.06"/><ellipse cx="317.67" cy="267.49" rx="6.25" ry="6.06"/><circle cx="317.65" cy="131.65" r="6"/></g></g></svg>